<mxfile host="Electron" agent="Mozilla/5.0 (Windows NT 10.0; Win64; x64) AppleWebKit/537.36 (KHTML, like Gecko) draw.io/28.2.5 Chrome/138.0.7204.251 Electron/37.6.1 Safari/537.36" version="28.2.5">
  <diagram name="Page-1" id="Py4HxrmszII0EHEiYkL5">
    <mxGraphModel dx="1148" dy="663" grid="1" gridSize="10" guides="1" tooltips="1" connect="1" arrows="1" fold="1" page="1" pageScale="1" pageWidth="827" pageHeight="1169" math="0" shadow="0">
      <root>
        <mxCell id="0" />
        <mxCell id="1" parent="0" />
        <mxCell id="UU1zndkIT4-Pa7lK9VET-1" value="" style="html=1;verticalLabelPosition=bottom;labelBackgroundColor=#ffffff;verticalAlign=top;shadow=0;dashed=0;strokeWidth=1;shape=mxgraph.ios7.misc.iphone;strokeColor=#c0c0c0;" vertex="1" parent="1">
          <mxGeometry x="80" y="80" width="200" height="400" as="geometry" />
        </mxCell>
        <mxCell id="UU1zndkIT4-Pa7lK9VET-6" value="" style="html=1;verticalLabelPosition=bottom;align=center;labelBackgroundColor=#ffffff;verticalAlign=top;strokeWidth=2;strokeColor=#0080F0;shadow=0;dashed=0;shape=mxgraph.ios7.icons.trashcan;" vertex="1" parent="1">
          <mxGeometry x="100" y="390" width="20" height="20" as="geometry" />
        </mxCell>
        <mxCell id="UU1zndkIT4-Pa7lK9VET-7" value="" style="html=1;verticalLabelPosition=bottom;align=center;labelBackgroundColor=#ffffff;verticalAlign=top;strokeWidth=2;strokeColor=#0080F0;shadow=0;dashed=0;shape=mxgraph.ios7.icons.settings;" vertex="1" parent="1">
          <mxGeometry x="240" y="390" width="20" height="20" as="geometry" />
        </mxCell>
        <mxCell id="UU1zndkIT4-Pa7lK9VET-8" value="" style="html=1;verticalLabelPosition=bottom;align=center;labelBackgroundColor=#ffffff;verticalAlign=top;strokeWidth=2;strokeColor=#0080F0;shadow=0;dashed=0;shape=mxgraph.ios7.icons.user;" vertex="1" parent="1">
          <mxGeometry x="240" y="150" width="20" height="20" as="geometry" />
        </mxCell>
        <mxCell id="UU1zndkIT4-Pa7lK9VET-9" value="" style="html=1;verticalLabelPosition=bottom;align=center;labelBackgroundColor=#ffffff;verticalAlign=top;strokeWidth=2;strokeColor=#0080F0;shadow=0;dashed=0;shape=mxgraph.ios7.icons.share;" vertex="1" parent="1">
          <mxGeometry x="140" y="390" width="11" height="19.5" as="geometry" />
        </mxCell>
        <mxCell id="UU1zndkIT4-Pa7lK9VET-11" value="" style="html=1;verticalLabelPosition=bottom;labelBackgroundColor=#ffffff;verticalAlign=top;shadow=0;dashed=0;strokeWidth=1;shape=mxgraph.ios7.misc.iphone;strokeColor=#c0c0c0;" vertex="1" parent="1">
          <mxGeometry x="321" y="79" width="200" height="400" as="geometry" />
        </mxCell>
        <mxCell id="UU1zndkIT4-Pa7lK9VET-12" value="" style="html=1;verticalLabelPosition=bottom;align=center;labelBackgroundColor=#ffffff;verticalAlign=top;strokeWidth=2;strokeColor=#0080F0;shadow=0;dashed=0;shape=mxgraph.ios7.icons.trashcan;" vertex="1" parent="1">
          <mxGeometry x="350" y="389" width="20" height="20" as="geometry" />
        </mxCell>
        <mxCell id="UU1zndkIT4-Pa7lK9VET-13" value="" style="html=1;verticalLabelPosition=bottom;align=center;labelBackgroundColor=#ffffff;verticalAlign=top;strokeWidth=2;strokeColor=#0080F0;shadow=0;dashed=0;shape=mxgraph.ios7.icons.settings;" vertex="1" parent="1">
          <mxGeometry x="720" y="389" width="20" height="20" as="geometry" />
        </mxCell>
        <mxCell id="UU1zndkIT4-Pa7lK9VET-14" value="" style="html=1;verticalLabelPosition=bottom;align=center;labelBackgroundColor=#ffffff;verticalAlign=top;strokeWidth=2;strokeColor=#0080F0;shadow=0;dashed=0;shape=mxgraph.ios7.icons.user;" vertex="1" parent="1">
          <mxGeometry x="483" y="149" width="20" height="20" as="geometry" />
        </mxCell>
        <mxCell id="UU1zndkIT4-Pa7lK9VET-15" value="" style="html=1;verticalLabelPosition=bottom;align=center;labelBackgroundColor=#ffffff;verticalAlign=top;strokeWidth=2;strokeColor=#0080F0;shadow=0;dashed=0;shape=mxgraph.ios7.icons.share;" vertex="1" parent="1">
          <mxGeometry x="390" y="389" width="11" height="19.5" as="geometry" />
        </mxCell>
        <mxCell id="UU1zndkIT4-Pa7lK9VET-16" value="" style="html=1;verticalLabelPosition=bottom;labelBackgroundColor=#ffffff;verticalAlign=top;shadow=0;dashed=0;strokeWidth=1;shape=mxgraph.ios7.misc.iphone;strokeColor=#c0c0c0;" vertex="1" parent="1">
          <mxGeometry x="561" y="78" width="200" height="400" as="geometry" />
        </mxCell>
        <mxCell id="UU1zndkIT4-Pa7lK9VET-17" value="" style="html=1;verticalLabelPosition=bottom;align=center;labelBackgroundColor=#ffffff;verticalAlign=top;strokeWidth=2;strokeColor=#0080F0;shadow=0;dashed=0;shape=mxgraph.ios7.icons.trashcan;" vertex="1" parent="1">
          <mxGeometry x="581" y="388" width="20" height="20" as="geometry" />
        </mxCell>
        <mxCell id="UU1zndkIT4-Pa7lK9VET-18" value="" style="html=1;verticalLabelPosition=bottom;align=center;labelBackgroundColor=#ffffff;verticalAlign=top;strokeWidth=2;strokeColor=#0080F0;shadow=0;dashed=0;shape=mxgraph.ios7.icons.settings;" vertex="1" parent="1">
          <mxGeometry x="475" y="389" width="20" height="20" as="geometry" />
        </mxCell>
        <mxCell id="UU1zndkIT4-Pa7lK9VET-19" value="" style="html=1;verticalLabelPosition=bottom;align=center;labelBackgroundColor=#ffffff;verticalAlign=top;strokeWidth=2;strokeColor=#0080F0;shadow=0;dashed=0;shape=mxgraph.ios7.icons.user;" vertex="1" parent="1">
          <mxGeometry x="719" y="148" width="20" height="20" as="geometry" />
        </mxCell>
        <mxCell id="UU1zndkIT4-Pa7lK9VET-20" value="" style="html=1;verticalLabelPosition=bottom;align=center;labelBackgroundColor=#ffffff;verticalAlign=top;strokeWidth=2;strokeColor=#0080F0;shadow=0;dashed=0;shape=mxgraph.ios7.icons.share;" vertex="1" parent="1">
          <mxGeometry x="621" y="388" width="11" height="19.5" as="geometry" />
        </mxCell>
        <mxCell id="UU1zndkIT4-Pa7lK9VET-21" value="" style="html=1;verticalLabelPosition=bottom;align=center;labelBackgroundColor=#ffffff;verticalAlign=top;strokeWidth=2;strokeColor=#0080F0;shadow=0;dashed=0;shape=mxgraph.ios7.icons.settings;" vertex="1" parent="1">
          <mxGeometry x="715" y="390" width="20" height="20" as="geometry" />
        </mxCell>
        <mxCell id="UU1zndkIT4-Pa7lK9VET-22" value="Card Rule 1" style="rounded=1;whiteSpace=wrap;html=1;" vertex="1" parent="1">
          <mxGeometry x="140" y="200" width="120" height="20" as="geometry" />
        </mxCell>
        <mxCell id="UU1zndkIT4-Pa7lK9VET-23" value="" style="rounded=1;whiteSpace=wrap;html=1;" vertex="1" parent="1">
          <mxGeometry x="102" y="200" width="18" height="20" as="geometry" />
        </mxCell>
        <mxCell id="UU1zndkIT4-Pa7lK9VET-24" value="" style="rounded=1;whiteSpace=wrap;html=1;" vertex="1" parent="1">
          <mxGeometry x="101" y="233" width="18" height="20" as="geometry" />
        </mxCell>
        <mxCell id="UU1zndkIT4-Pa7lK9VET-25" value="" style="rounded=1;whiteSpace=wrap;html=1;" vertex="1" parent="1">
          <mxGeometry x="101" y="264" width="18" height="20" as="geometry" />
        </mxCell>
        <mxCell id="UU1zndkIT4-Pa7lK9VET-26" value="Card Rule 2" style="rounded=1;whiteSpace=wrap;html=1;" vertex="1" parent="1">
          <mxGeometry x="139" y="233" width="120" height="20" as="geometry" />
        </mxCell>
        <mxCell id="UU1zndkIT4-Pa7lK9VET-27" value="Card Rule 3" style="rounded=1;whiteSpace=wrap;html=1;" vertex="1" parent="1">
          <mxGeometry x="140" y="264" width="120" height="20" as="geometry" />
        </mxCell>
        <mxCell id="UU1zndkIT4-Pa7lK9VET-28" value="" style="triangle;whiteSpace=wrap;html=1;" vertex="1" parent="1">
          <mxGeometry x="164.5" y="320" width="31" height="40" as="geometry" />
        </mxCell>
        <mxCell id="UU1zndkIT4-Pa7lK9VET-29" value="" style="shape=image;imageAspect=0;aspect=fixed;verticalLabelPosition=bottom;verticalAlign=top;image=data:image/jpeg,/9j/4AAQSkZJRgABAQEAeAB4AAD/4QAiRXhpZgAATU0AKgAAAAgAAQESAAMAAAABAAEAAAAAAAD/2wBDAAIBAQIBAQICAgICAgICAwUDAwMDAwYEBAMFBwYHBwcGBwcICQsJCAgKCAcHCg0KCgsMDAwMBwkODw0MDgsMDAz/2wBDAQICAgMDAwYDAwYMCAcIDAwMDAwMDAwMDAwMDAwMDAwMDAwMDAwMDAwMDAwMDAwMDAwMDAwMDAwMDAwMDAwMDAz/wAARCAK8AqIDASIAAhEBAxEB/8QAHwAAAQUBAQEBAQEAAAAAAAAAAAECAwQFBgcICQoL/8QAtRAAAgEDAwIEAwUFBAQAAAF9AQIDAAQRBRIhMUEGE1FhByJxFDKBkaEII0KxwRVS0fAkM2JyggkKFhcYGRolJicoKSo0NTY3ODk6Q0RFRkdISUpTVFVWV1hZWmNkZWZnaGlqc3R1dnd4eXqDhIWGh4iJipKTlJWWl5iZmqKjpKWmp6ipqrKztLW2t7i5usLDxMXGx8jJytLT1NXW19jZ2uHi4+Tl5ufo6erx8vP09fb3+Pn6/8QAHwEAAwEBAQEBAQEBAQAAAAAAAAECAwQFBgcICQoL/8QAtREAAgECBAQDBAcFBAQAAQJ3AAECAxEEBSExBhJBUQdhcRMiMoEIFEKRobHBCSMzUvAVYnLRChYkNOEl8RcYGRomJygpKjU2Nzg5OkNERUZHSElKU1RVVldYWVpjZGVmZ2hpanN0dXZ3eHl6goOEhYaHiImKkpOUlZaXmJmaoqOkpaanqKmqsrO0tba3uLm6wsPExcbHyMnK0tPU1dbX2Nna4uPk5ebn6Onq8vP09fb3+Pn6/9oADAMBAAIRAxEAPwD8cVXmnU6OPefYU5Y8Ma/PWz8rbuNVM1Ike2nKvYUoXJqLk8wBc08DAo6UqjcahsybuJ1p6rilAwKVV3VDZLdgAyaekfNOSPbTqluxm5DQnPNOApypnrTulRKRm5DQnrTgKcqZ61KowoqG7kSkRBKeseBT6VRuNS3YnmEAxTgmR1pQuKWpbuZuQ3y/enDgU4J61KowBUt2JciJUz1p6xY5zT6VRuNS2Q5DPL96cBgU7y/enAYFS3YlyGBSaXy/enU4J61PMS5DQMCinhcGlqXIlzGqmetKI8ZPrT1TPWl2c9aVwTGCNpBtUFm6KB6/5Ffaf/BRVU+G3w9+D/gJUDR+GPCv2q4hI+RZnVIgzd87kc477ic9x8zfs3+AT8Sf2g/BWgkbk1TWraOQY/5ZiRWk/wDHFavbP+CkXjv/AISv9tfxFvuXg0zRYYNLJ37kUxx7m+Qdt7sCT0P0r9J4Aw/NUlVPu+FKVqFSp3dj5tsL64d5Lu2nlSV0Cv5jZCnjAcnkqTjA7Z+uVvbWKNBJLLKLiQZLpKXdDjAX5sDheMDOTnryKZpHlP57MrmJGchTweSeCR1UgZ6cYzn1uXEpvdTOorcJHDEmUaQfvJgAQuAQeRj8PWv1eOup9TYL61QWmmeUwYbstIW8xYipGQR1284z3/WotPhMviSWC3WJFlOVJYvjcOY1I/undwevJwehnuZ003T7S1iQRxXcxLvMD5m0g9+49PfHYDFiSW3tvsNpASLeZfMEu/DMxPfHPHTtng02rikVJzbtb3MELT2SQYjaTeNzkAlmB9xn8QfwieMIiQiCRoJYVdpG5lwPvHggbeo6Z5561NPdRXOp6il589moBhZFyshwd3I5LFQR7EH8KkcJW2hkMUH2S3Y5YHzHy3Rcn3Ptj1NTfoNCvBbw+TPcqnkwxNiCI4MmRnaWA5Iz93HAzyelTM7WU9szmEQW/wC+QREoHbOcsCT0Gcn0A6YyJPFaSLcWzROLiMAIYnYEoBk5+Xuff0PrVWW4F/rFx+8ktEYrDmQ4JXvv69u455qbNDsWbq1+0yG6ea2giuFaWWFm2ZLHAGO3UkHqOa+yv+CZWkJ8HvgZ8ZfHbGWI6dpogh8wgrvWF5Swb1LGJW9179K+OrnT4rif/S4I7VYHVPLwJnKjptPUr6+xHTOK+yYJZfhf/wAEh2ciGLUPH+qEKB8qurzAKBjnHl2+P+Bc1xY/WCiurRrSep8WwbrSN/LInvTAGn3y7Crsd+Qo6jvk8cn0p8fl3unRWRZU+wxMyyyHpk8qT2UnOD2PTvVGK7FjZahFJE8E4xEox8rNnlgRyMf+zVe01WlgmaIR3LhFUqzhZI48ZOF6MM4Bz82R712Q0SRlM7b9mDw/ZeIv2hvBluslvqDrrmniRypVpMTKQeOuMEZPHavXP+Cr+sLq37X2t2eAWi0qzT02AIXJ45/i6DjiuJ/YcsUvv2t/h5bxSTNG2tpcSMAAk3lxM23jptx24PYd6vf8FGtfe9/bf8eRbRL5Zt7YDYWyUt4vlwOQeeD2rlvfFxXky0v3bPEprf7W/lFhHLbn9wUfy9zAjPTqeM47EmtyLMSLds1raxgAzB5A+3aMglcZYnb0I9Oe9YN3BHb6kfMDQudryICpiAzg4PJVeTyPX14rWmshbaeVRULQBSMuFSUfNnDdd/8AEQcZB9Ntem3dNGEdz68tr/8A4Tn/AII5ahKrwSfYdaYqzAogxdLjcOqgb8EflxXxO0dzbW19ZSWpSXCkHzABxyWIIwK+0f2e7pvFn/BJH4l29vkT6ffyOFPBVw1s5P06EfWvjHVXS4s54mtpvtEB2yGUnG4MN20jqeuMdM89K8rC6VKi8zoqbIk06WMFTcWYGV84SI5jaMjA4GcMCccHpXf/ALLPxDHw8/aF8CeIpXkge2162iuMxcSRSny2G7vhWJwc5xmuDh0+Y2jQ2ptxcXEDBlOZQihs7yB0PAx6A802R5I2jeBlaGwK3DuZt0TyIwII28HPH5V01VeDXkQtz3v/AIKyeAz4N/bK1e5SPZF4gsrbUFPXc+zyn/WM181OuTkV9t/8FYLNPH/w2+D/AMQYRvXWdJ+zyuv8TPHHMv6l6+J/Lx1Nfz/n9H2WNnE/NOI6Xs8dLz1+8j8v3ppGDUxTjim9K8dO54XMR00pk9alYbhSeX71SZSkRbDSdKkIwaKfMXzELJmkKEjkVKU9KQoRVXuWpEBTjim9KnKgnmkZMdKrmK5iBhuFIU44qQpk9aaRg1SZSZH0ppTJqamsmelUn3KjIrtHg00jBqwRTXjyKpSNOYgZcmmsu0VKY+etIRg1adykyKmPHmpSmT1pCMGqTsWpFdlxTWG4VYKg1G6cnFUpGikQsu0UlSdKaydTVplp3ImGDTGTPSpqYy45q0zSMiF05phGDVimOnFWmaJ3IqYw5NPIwaKu5SdiHyjRUhTmiquzTmJ449vJ60/GKKeqjArBs5nIRUz1p3SjrT1XFSQ3cai5OafQBk09E5qGyOYRU5qVVxSgYFKo3Gs2zNyADJpyrtpVXPFOVMmobMnIbT0TmnqnrTulS5Et2EVdtO2k0qpnrTulQ3czchoT1pwFOVM9alUYAqW7ESkRBPWnqh+lPpVG41LdyeYaowKcFJpQnPNO6VLdiHIaE55p3SnKmetOAxUORm5DVTPWlC4NOAyaXy6nmJbG05Uz1p4ixTlXbSbuS3YjEWTTxHgU6nhQRUt2JcyIJzTlGCKfsFLjApXFz3PpT/gk34MTxJ+1/Y6lMoNt4Z0271ORj0jbaIkP/kQn8K8n+NniVviH4613xEoljOqardXiq7mQuXmYAFQQcFdpx7cHoD9Af8E7VHw4/Zv+Onj6Q+U9vpSaRayNwN7oxOPfdJD+lfLtnZibSHuL0zXF25TY8itmBs4SUEfeXG4Y6gFTngCv23gTC8uC5+5+qcP0/ZYCHnqZ9xaRRXk25Zg+1W8uICN2YHBz3xnA4JHPfpWjJaQQrBJcytIZgzQxJEAuSeD754P4/So7u7VNZBk86SUbGfZGvzcZLqAM4yOh49OvD/EbNG9sqYgRjuYnBQsTkk56Z5PT+Hjsa+55bHsc1x8tjLf6lDJOly0kwKQ7djKsZ6sc4HPTvx06CkjMjpfSTQXcUaNujjWNHZI+emfutk5A/KooLxNU1ea4miaSwt08os+PlOM4BOAQBjrk8dTmoo3e3a5ysMkV4jOoKvv2g8sN33WGMc8c8UgKuo3zfZYvNQO0imaRs7WmHUcD+M5HHarGkaN5kkYjkfT4JGQPCfnIYqTwOucZ546d6dp2mwaf4Wv9RVTKijyx5j4RWJOOhyxI3HA4+T64sNp9raRwwTbYruaAvJu+fYGPB54HG0/nz2od72C5nXsslpYzQS2sayxttX95jfltoJx/EQegHBANC26aZZqbyR0j8sybpYiGdxwq/wC1kkdsdPSrum6d9j1yV5pIAJcqDKfkCgAk/KPUE59W+lDQtpumSNPGt7c3zBolkUssaDHyMO4bqG9QeOcVFnzXYXKj3T2drczSbZHljEcUXmbJd54TYc/dz9eMivs7/gpUzfCn9nL4NeBbeSSKPRtOW8vRCdsmEiji4HrveTH0+lfM/wCzr8P5viX8e/BGlyG6kOo6xbI6vGpSOJWDNnPP3VJz049a9v8A+CqnjKXxN+1ndWlrIyxeHtNtrEKDhV3gyyYJB+Yb19/l/CuGqufEQh21NYu0Gz5W1FxJLClu8yJL975RsKghQp79e+D179akm2QssQZRdzuY1jRCrGIDJYemc1NodrMllcStGDcxhpVcyhTEM/cG7luQPf5hjtUt/wCbYWFpCUE1/gyzTBcsS3O5GJyjgYG09c9u/a76Gd7o9r/4Js2X9o/tq+BLceXcNp6XlzJJ5RR4ttu4CMenBOcnPbgVi/tq3Et3+2H46vFRtsmtSoWRgrMEKpk+v3ce3B46V3//AASV0IS/tjWci+buttHvJpN0oY7yFXBUZA5Zh1/hryX44apB4g+OPjvU7xke2TxBfKmeFcrK4xgnnkfjuBweDXDT1xT9C/8Al2cTrzJDeFRHIkhDKPlAkl5+U5PBB7e4FWLyeO9toDG720N2rNcRxBQJ2AABJP1z9WIzzis3V55i0M7BVmkceXhDtUYxx6Pjt0PrTNPs/wC07kacIU3tlklMmwrHncwD4wvPXHbIr0ZS6mZ9qfsVWs2r/sBfHTSXjEMUVvJLb/KF3qbUsGwOM5THvivjfULG7u7m2ut7HyJAQ+BkLj5Sw6DHQjHI719if8EvnGufCD446SyMrS6SGIPRj5FwvC9fQZPcYr430iRFjcNJcWpt8JH5su9pGOOD/C3B+9/DiuHDK1eovM0n8EWaAgjiuBqJEomktpFSUL5JD5wQhHJ7ZLcEYFZmkxPFqEolia0l3kNNIAGXkksSPlXPHTPTtUl1dTRx2ETq0rSedLJvch2GeAR2X5fu5GfbrUunmXS7mO585d9w77ZHONwwMYB53EcZ6V38t3ZGKeup9geNyPjH/wAEgdJu1/eXXgPVFjbByURJjGTnuPLmT8q+JOe/XvX3D/wT6sB8Rv2Xvjj8O3a2nNxaNf2ywkYJlhYA4HAO+KP8a+IVJKjIwe49K/EuOcP7LFqS2dz4jjCladOr3Vn8iJkz0o2cVLtGaRkzXw/MfGKZC6cc00pxxU3SkIzQmUpEHSkYbhU5jqNk9KtMpPsRlOOKb0qUrgUlUncpSImG4U0oRUpT0pvSqTsWpEdMYHmp6YynNUmVGRAyelNIxU5UE80wjk1fMaJ3I6YynNSlPSm9KpSKTI6Y6VMVBph4Jqky4yIGXFNYbhVmmPFnkdatMtSKxGDSMNwqUjBxTSmBVJmikQsnrTGGDU9Rsn5VomaRkQsmTTSMGpWXFNYbhVpmnMRsNwpjDHFSEYNFXcpMrsn5UxlxVhhg0x0q0zVSIaKcU5oquYosIvenUU9VxWDZztgq4pyjcaFG41JHHtqGyHIRE4qQDAop6rjmobuZOQ1Fyc0+gDJwKlWHHes2zNyGKmOvWpVXFKBgUqrmkS5CVIOBQBinKmetZtmTdxAMmnKmDSgYqRegqGyW7DQnrTlXHApQuacBgVLdiHIQJzzTulKBk08DAqHIzlIaqZ604DFKBk04R5PrS5iG7jQMmnpHzTgnrTulZt2JbsNCc807pTlTPWndKnmIlIYBk08DAopwT1pN9yG7jaUDJp6xZqQDAFTzEt2IfLp5iJAHbGTT6HJWIlQS2CQB61ULykkhwTlJRW59dzWsnw0/4JLaZaxEW978Q/ETzl2XI8lHYjd3KlbdAR/tdOcV8u38cdjaEi887cfnd43TzDgrlATkg5+734OO1fV//BQWW6+Gnwz+Dvw/sJEjbw74bW7uI2I2+a6pHhx6HEuPc18iu0+rW12wkAS5yIpD+8AI6k88ADGevK8c4Ff0hw7hvYYGED9opQVKlCkuiRBBYsL0IPJdZMZiyBhRzuUjnPXPqM+oqpqcKNeW9xMDdFcyOWGGdc/xjnHQc46E1qLpdwbe2SOKKS+lBEZgUMu0A5bGfvbT3JGASM9KhjQaYrtDKkkzx7cljvJ5A4XnaenOK9wrmLVzJcXTrBc26Kq/vZHWPZGrZJD7COTweRnKjtjNY9wHNxNfPcrJcMVhjibcAwHVtzcDuMHPUccVtavITYrdNdNcyMm2PyXIkhOffPzDOCB29Oc0fFNgH1C0AJme4jVY4lyd5/hG3qCc8n2z/FRa407mj58WnRFdQYSlHCwxiXYspGCxIAwVzgHpnnjjFV9QdrLUY1vZ1a2VAfssWHAJGcAdApB6ZJ6HtVhtOn011lvLlH+zKEtopIgBCx+UblyBtPTngdznkNmvriHU7vUooI7yTDQgKgKrMwyQvONvfucipfYqJXfUpdDt5JPMuUDn7LbKCvyEjDMfUKOmOc/Sql9FHq93DCYn8+JuZIy+FVh8q4JwV69elaN5f20kSZt4ft0sLSq0ob7wOAie3PI45P41WkuFU6dEYWm8w5cI5kIG0DJzjgcjkADPvUyWlipO2p9Kf8Es/A6a/wDtiWMskKs3h3TLi+mZgCA5AjRhj+HL5+ox2ryH9o3xr/wsr9pfxvrId7eK+1WdluvPzlEdlj2kjhsIoKjOR9a+lv8Agmpbw/Dj4VfGj4gtvEel6aLSAyL86skTykA5wRuMQ69R26V8eahcQX+sxT3puprHyi3zYjJYKCcjgA5HBxls49K4Ka58VOXRWRpLSCRE2qrb291LOLbcxW3jOwnc5bcSWPKADjOOCQe1VLyJNX1eMETfaVOJHDlgM/cJQ4Xj1yO2RitMyWGqWtvMdx81meCEuFRCBuJPqSD39OnHOfLceXpVk7W7ySvIoZN5ZiMbcYHBA54IPDd+3oNdDI+u/wDgkJZiP9pnXmaPy10/w87swberbpoxuBwMjAIx2wa+ZPE+rrqGp6nPfRtGlxq9y6phW81mmZgxB5GQRz24Oa+rf+CS1pDpvi34n6sqyxx2fh+MFWYMA2XZsEcE4Rf618gwXHm3VzDeKs0E0Il8srlsE78q44zk9s9umK86lript9kaT+BFBLyZtZv2unhnkKtHDwojUc/L8uOT2wNoPJqHzGWZbmHJuYXMkqKpUBT0DLjaM4yCB93ryKqf2k1jDOYYimCy5eXAznAzj0yTgdea0bfSEbRrWWN54xG5bj5Y1AUEtvGSG44B/oa7tDNuyufY/wDwSDnjuvFnxBsPLt4zqfhxJWVSd7ESMpLex39f5d/ku/jhtvE0EjL9rs7Y+S6quxI3HyEbeuQR1Gc8cV9Rf8Eh9WVP2qNRs4pZnhufDUrbZECgDzoWU7u4wOD2r5l8bRSaH4y1aOSe5gnsdavLeAJCFYgSlB83r6Z46d64qHu4qcfJG01emmUrfxA8tg0qWciTTSjei8SPGOgXd1wTkbfbHNZV0qrZR200FzLbgrKXyXyM8LnPXqB6gYreubGDT9IVYX+1ySNsXaPOwmdxYnkDBOcD1rP1bSLD7fJEHluEtJEaYsWCtJ12Jt4Uc/8AAfavRa1OfmsfU/8AwSh8W/2D+1ANOnjuYY/EmhzwyK4AjZoyjovqMBHHJ7+9fOHx38Dt8OvjV4t0Jk2f2Vq9zAo/2BKSuP8AgJWuy/ZL+IMXgH9ozwbrPmQwRQ6tFEy7mXEUjCNwTkjOHP1OB2rs/wDgqj4GPg79sTW7gJsi1+1ttRBx1Yp5Uh/76jNfl/iHhv3cax87xTR58EqnZnzfInzdccUxlxz61ZI3H8KjMfJ5r8kufmnNoQ00pk1OYQe9MaPHShMafYj8v3ppHNSEYpCM1SdilIiKelNZOOamKccU3pVJ3L5iBlxSVMyZ6U1k45qk7FJkJT0pvSpWXFJVJl8xCyZppGKmKelNIqky1IhZM0jRkipSnpTelWpGikQMu0UlTlQajdOTiqTKTuQsMGkIyKk6UjLmrTLUiu6c0wjBqwRTHjyKtM1UiFlyaYeDUrDBprLmruWmRMmelRsnWpjwaayZ6VaZqpENMYYNSuuDTatOxakRMNwppGDUjDBpKtMtMi2g0U8pzRVcxpzEqjApyLk5oUbjUiL+lYtnM2OVcc0tFPVcCs2zNsFXFOUbjQo3GpESpbM2wjTbzT8Yo6U9VGBWbZm5DUXJzT6AMmnqm01DdiG7iImSKeFyaco4FOC5OKlu5DkCrninKu2lVewpyrms2zJyG09VxSgYFKo3GpbsZtiU9Ys0saVIBgVEpEt2GrHjrTulOVM9ad0qG7mbkNVM9ad0pQMmnCPJ9alslu40DJpwhJp4jx7U4cCp5iW7DVjwKcBgUqrkUoTmkQ2Np3l+9O6U5Uz1pN2IchirtNdl+z54GPxL+O3g7QQCRqusWsEgA42eYpf/AMcDVyHl819H/wDBK7wYniT9rvTb+dAbbw3p91qUjkfcYII1Ofbzc/hXflVF1sXTp92j08mpe2xtOHmR/wDBTzx/F4s/a48QII0a30KO30/dE5Eu2NN7qMjaTukfAP59BXztZXcF1B5cMzr5gEKGRFVlxyxLdACevsPat34s+O1+LfxM8YeI7i4jFvqOq3F1Fk88yNsGeRgLg1jyTx6ibeGS3ggt4wkpR4iwlweWUqepGeOnPvX9O4SChSjFdEfr9R+8aU96b7UYPOk2TQ4iaS3AC4PG7PYj5fw9MZqGztPJN/Hbzs6XKMsbIVKuBnksenOeQOcDnuGRXzNeXBtm2Waxg+SiIS38PKc/McKDz/hWhfQQaN4cnS1LpMgDIyxCJ0XncCvTJAPP+R0NXZF7FK106XUNEtzG4tluWDTTbRmRkGS6bsYbaQpHOdvfrWXDdzQ3RnbzHkP7xJpCC5Uc7uc89c4NaaXd8LI7AEWb9wZt5kL92cf3T9B0ySec1T1TSYdwt7Pzbme+mWK2KwhIAzHPK5yDndjsBzSasCNHWLa38u31KaV59Qj5ZI4y+7K5DnOQVAH1yuO1N0W0tL6Tzr029vOj+afLV2VQck7QByeM8DI3DHqEu70f21Y2UW63MI8mQRzAFcg7nB6FOmB2APrzHb3Fp4dt7vy0NzK0Q8tk4+Yt1UkZyF4+uevSp8yl2FntZZ9PW9toYUtVcBfMkCF+oJAPO7kZIJ4HrmqHh+xkR3nbzrazU/I8v71ZcAkANgFVJHA+laE8LLYm8vvOmuYMRqQ4CK7cnAPBbPU9frjFMDPZGKWczsbl/LhZeHLsASAuOu7PTPXt1qZbXKufYT2s/wAKf+CQ935VuYNU+IOq7RFEduFkmAGzJ4URQZAPvXx9HbHV7+7it7mVyYkWUtApIC54XjAJ5OR0GfQ19lf8FHZH+GX7N/wn8EQyLCbDTftV1Gp2CQ+UkW0+gZ5JTntgivjC1sX+0W7xfu7E7XQq/m8txw31IbHbmvPwCvzVO7ZtW3Uexb1bQ2e5a0jiNxdxnzDEiqQjEAgDn5D975unTjOBWPBbT3WsMIku4hy8pwkqQ5zhVA5BIznJrXlmS51LULOzlaG3aTyZLmNTvlwXOD6nj73oPqagELXtzPFBloYco0e3YzKoJ3H1weOcda9K12Yo+yf+CbwXSfgb8cNaItwselfZ0ljXy8otvcsCwPfLZLdxx2r4s0VzMr3yb47TTbfiESBZJnzgqo7qQTlewGa+y/2OLxY/+Cdvxy1aDzWW7jmtkwN7Mfs4UhT3/wBbxnueOK+LdNCr+9RXjjtl8udWbDIxZt3Hrgjt2615mGd69SXmaz0hEo2kDalc3F9JGEuJ28lURCAfwXow7H29a1dMll8NQSwAR3CvGPNy3liN+cEKeD07cjGfSsrT9Y3aDHH50hDyySKBwVOQAcjn2x/k37aI2+hXiSEybGRY0dMyRh+wXOZDjPHQgV6MY63MWfR//BJjVBH+29CIWWaOXR7mCSTnhtikYx1GEIx2xXmv7T2nHTf2hPF1tIu2SHV72O2KzeUFH2hyMg/eJIYd+3Q4rrf+CZqQ+Gf2w/BohnIe9ubmCZF5TcbaQA5/HGOetZX7eumLpP7VPjhWN06JrjysiQiTyVZVk3ZPCjJOAfUnHFedH3cV6o3bvTPNZCdE0W9gnQteyIHjYMEZfmII47YycD154p0KS6jostvFPmY+WxydiuxCltzeuT6HOauzQSWGtRyyRqq3MO5o1DTfeyTljxnB5HXp6moPCN1FYWmqC4WZo9T/ANVlABHgdNh+8p6EnGOMdDXqKDuc19B2oQzWR069MM4/s648wsXAeWQAspB7qCMk8Y5619Zf8FXbAeM/B/wo8exA/wDE40prWVupDFI5wCfq0lfJUepQs72sw2OG8xw+6VCeMqV6hh1BHUZHrX1148/4vB/wSN0G/XM114H1RYWJBDKiTNEc98+XMn5V8fxng1WwEmt0ceZUHWwVWm+118j4sdMUwpk9al2Z4560jR46dq/n1yPxvmtoQkYNFSdKQoDQncpSIvL96Y0WKnKccU3pVJ2KUyBl2ikqxUbxck+tUncpO5HUbdTUrLtFNIzVJ2KTsRMmelMaP8KnKccU0immaqRXIwaRhuFTNHmmGPGau5SZCRg0hGRUtNKVaZakQsnrSEZGKlprJjpVJmikQOuTTCMGpyM0wjmrTNE7kdMYYNSMMGkq0yk7ELJnpUbrg1OwwaYUzVp3NU7kNMYYNSMuKSrTLTsQuueaiZcc1YYYNMdc81omaqRDTGGDUrrnmm1aZqpEdFOKc0VYywi7RTqOlPVcc1ztnO2CjApyjcaAMmpEX9KlshsWNdq06jrT1XFZyMmwVcc04DJoAyakRKhuxm2LGm2lVeaXpTlXHNQ2Ztgqc806jrT1XFQ3czbEVOQadSqNxpyR81m3chsRUx161Kq4oAwKcq5pEOQlSDgUAYpVXIrNsybuJSqmTT0TrTwMClzEt2EVPWnAYpQMmnKu2obIchFTPWlC4NLTgnrUuRDkNpwT1pwGKcqZ61LZDkNAxSgZNPVOeKcE55pc3YlvuR+XX2B/wSx8NXGqeFfjFLo0kJ8US6Atjp0TsFwZFmwx9B5mwZ9lzxXyKBiul+FvxY8R/BjxVHrnhbVbjSNUjQx+bEAwkQjlGUghlOASCD07V6eT5hHC4qNeorpHrZHmFPB4uNaotP8AMi1v4OeJvhXq8On6z4V1vQVsI28+4m0+V0fHUAFdpbAzkHjPGT05mBpIb+dEJumEgl2Bc70GSFXBzt2t09MnIxX1n4Q/4K5/ETSI1h1zSvDXiK3HDCSF7Z2Hf7p2k/Va6Nf28fgn8T8Dxt8H4LW4cEPdWMME23PU7lEb5/Ov2bBcfYGSSm7P7vzP0qlxBltV+7Ut6pr8T5A042zeNUD2dnuvIW8hGdo0HyYJDdsZzg4yNuQBxUd2Bf8Ah+VZxiGKRpGLuztKudoGeh27QMf/AF6+woPhd+yX8VdSF3pfifUvCOov/q472WWOON+x2TKyE/8AAu/Wo9f/AOCUdt470yabwP8AFHRNfW5w7JcqjCQgccwMwHXsvpX0WH4hwNZXjNf16Nnp0506utOSl6O58d2UEDXcFwksygIXeKEFoWU5/djuCQOvqKl1TUJbTUbaS1jT7XbZRQBiQScjDLwO/B64J61714h/4JsfGfwXpwSTQbHWVtWLoNHu4j5w6bSGCt0JxkHHTgV5L46+EHij4f32NY8OeJdOVAS8V1pzZLLygD7duORyCTxyRXqxxdKS92SZbptPUxYFig8RTytqjzRrEgURsJFifA2ruIAVDkgk45H1NUby4ax0u4tyJPtd05kUTIMlgMjleAd2Oo5HXA4KeG3kRb2NmghLkrkj74GNyFQed2c5I4bPPXEsUf2bwpFfR7IrmeRpJWRwQsYB+UJ25PHfIrWKTE9DTTR4NO8O6ajRw3stxEXlCJlZGBxgZ5BUgjHfjHauk+CPgRfiN+0L4G0VGN6Ly+gR/tKfcUSAsQB/EEBXnuD9RxuoWGbSzS1uFuZriPzDJGjHax42YBJ3cAjAz/X6M/4Jd+Fm8aftb6fdPGoj0KxuNRkbzA6CVlWJMr0U5ccjnissVJQpSl2TKpq8khv/AAVo8ap4n/aZvbG3FxL/AMI1ptrZhbcr+78zMr7s8FcOAR7dex+dJbIxWmlwshjt5EWTEsyrlCchtvY5YH/gX5dX+018RpfGfx1+IGv204KanrU6LN5Rc+VEwVUUngMAqkH3x0PPJX90sdvAIXfFxtAkKmSLcQQWVjyp4wV5O4HgDJGWBp8tGMX2HVd5Mn8NaabvxfNbwieC0t42u9+7ow4wDn5sAZyOwPoKmisoFs7uJJJrTzImdkiXKzP/AHkY9CODx2z15NQ2OmS2XihdNs/IikSTAn3eWX4yWGRwRnHy+vvUUM0tvczJtzahiMFym1lOQSx4DDBAYdeldlkjNXPrr4PXp8Hf8EiPiBqKiCI3V68arCTGB+8t4wCTyDx3618ULaQ2mrvDbsrwStslkK5kwRksozyMjg19p6rJ/Zn/AARslZ9yHWdc56MV3XnUk/ewI8564HtXxmn26a5V1kILN5SzOoUyKSST/tKccfTFeZg4+/OXmdNX4Y+hRsttvrckUEZFqsIjVSArOwGcsSDk5xx9BmrMbTyacsUqneZv3VwrbmjAAOz/AGWz0/HkVX8QybteW3DnySgWGSZjJLndzgjox7Gp/C0/2Jbq1hkaaeRW+yRkANGe5kU8425OB83Nd6kupjbU9R/YXu4NB/a1+Gd0srN52si3co+7czlkGcj35x2xXZ/8FGLeXw7+2V4+8ryUbUFs5VeQ7lUGGPLhQchgcYb0zXkv7J1ze6h+1L8N7PToP7Qu7LWLXetqobCCYMWOOoC7iSegBr7r/ap/YI1D9pX9prxN4gh8TaT4a0hLOxtbqWdGaZsR7sjoqj5R1avHxGIp0sTGc3bRm6X7o/P37QNQ8PSSW8RdljDXOJGQqc9WUnDMexXjoDVjW/s+n/ZNRhWKa3hSEtb+YXVT784+bHTk9a+xof2N/wBnn4NIU8WfFf8AtOSLLfZbO6jUKe+EiEje3UUH4/fss/CO2EPh/wAAah4qlh4WS7tSVbHOc3Dc9T0T8K5q/FmAoq0p/iv+HPPrYvDUlerUUfK+p8p6VoN34m1Z20/Trq8nu90kFvZpJMVOAV2Mo+XGScEY/PFfY/7Lfwi1/wALf8E7virp/jXTrnQrLULa6urSK9QxSrsg5cq2CAZEQL06fjXMa1/wVuv9Ht2tvBnw98OeH4VGEaZ95X/gEYjX9TXi/wAcv22fiP8AtAaJJpXiDWkTR5mDyWVjbrbQyY5XfjLPg8gM2K+OznjrCVqMqMFe54+L4ny6nCShJyla1lf9Tx0LvUEk5Iz0prLtqy5DP0wBTHQZOK/H5SPyqUrtsgprJnpUzRZppTikmCdiIrgUlSdKayZ6VSdhqRGU9Kb0qQjFIw3CqTuaKREUyaY8eM1OU44pvSqTsWpFfGKayZ6VaqJ0yTimmVGRARimsmelTdKayZq0zRSIWTjmmMMGpyKjZPyqlI0TIWTJppGDUrLimsNwrS5aZGy5NMIx1qQjBpGG4VaZopEDDBpjLip2GOKaycVaZomQMNwprLtqRl200jIq0y0yNhuFROu01MRg01kz0q0zZMhpjDBqV12mmkZFaJlJkTDcKiddpqY8GmuueauJqmQ0U/y8+tFUacxMi5OakAyaTrUkceOtYyOVsdHHtp1HSnquOazkZtgq45pyjcaQDJqVE/KobsZtixptpwGOnegCnquKhshsFXFLRT1GBWbZk2CjApyjcaFG41Ii/pUXM2wROKeOBR1p6riokQ2Ii96dQBk1KkWB1qG7GTYxUqQJg04DApVG41LdyXISnBPWnAYFKBk1LdjNyEApwT1pwGBSgZNS2ZuQnSnKmetKkfNPCc81DfYlsakfWnquKUCnBPWpb7kOQ2nKmetOAxSgZNS5EOQ0Lg0tPWLNSBABUuRDkRBPWlEOak2j0panmE5DFixVjTbuXS7gS2009rOpyJIZDG4PY5Ug1GBmnBSOAevtWkK0o6xdmXTrVIO8HZn0z8Ff+CkOp/DnwdaaVrOkanq9xYgRpqFrrckEsqA8eYkiyIzAdwBkdfWvQrP/AIK5wxR7JvD+qXMWMNHdfZ5B+abP5GviZYieQKCD6Gvep8U46nFRUr2+8+ko8Z5jTiocydu61+8+z9Q/bu+CfxMd08X/AAqUmXiS6t7WFn+uQVf8mNULn4a/smfGSxkgsPEuqeCZrgbSssktuO5581GU4yT98V8fU4Jkdvxr0sNx7mFPez+//M7qfHeLT/eQi/vPsab/AIJdaf4qt0n8C/Evw9q8KKNiSxpI2R907oXbBGTztr0b9kn9krWP2KfBHjPX/E2oWF34g1i2NnZx2QaVQ2WKYJUMzO5XKgcBCfp+e9lNNp1yJraWW3lByJIXKMPoQQa6GX4seLbs2/m+KPEUjWoIgLalMTED12ktkV7f/ER5VKfJWi/wPXoceYZLmqU2n2Tv+dj6r1X/AIJVeAb+EiT4o3scpy7faYIgoc4ZjyVzlgfx+gqjd/8ABKHTb+KJNO+LGiyCKQSKrwoNpH93ZKRkjI6V8n3/AIq1jVflutW1S69fOu5JM/8AfRNZzRAybmb5vU9RTXiXUjZRg9PQmpx7hr6UX959aa1/wR/8V6lq1tdW3jbw1qCQA7g6TBpc+pAI/AVl69/wSW+KUen3ENjd+FpfMKgf6ZInmKOQGLR4ODnDdT79K+aLfVr2wfdBe3cB7eVMyfyIrY034r+LNGINr4o8SW/p5epzjH/j9dEPE6fWD/AdPjrCPWVJr5n6D61+zR4f0H9m7wP8KfGM13qmn2k5vtWawZ4WIRZZNwZcMq+c6qGON2DXnOv/AA//AGSfhp5Md/pr3U1lkIkl/PdSj8BL+pr4u8Q+KtW8U3Uk+p6nqWpzTYMkl1cvMz46ZLE5/pWYYBGo2j2x6V5Vfj+om3Qja/n+hOI8QIWtRpX82/6/M+ybr4/fso6PcK9t8MJdSkiHyM+lA/8AoyWmW/7cvwH8LTCTR/gjaiVTlJG0+xRs9MkkMRxxXxzsI7UmK8qpxvmMteZI8apxzj38Kivl/wAFn2db/wDBVnw54VRz4c+E2m6dNsKq63EVv+B8qHJHqMjPrXy38Z/jXr/x48ealr+u3b+bqUgb7NC7LbQIoCoipnAwABk5JxXLBVI5BzTfLAPOa8rGZ/jMVHkqz08jy8bxLjsXD2dSbt5EQhCkKoAUcCmtDtPSpzFk8cUwjBxXjubZ4jqN9SEx800jBqxTSmTQmLmIGG4Unl+9StHj2pCnFUnYtSISMGkYbhUtNZM9KpO5SkRGPI9aYyelTdKRhuFUnYtSIOlNZM9KmeOmMu2qTLTIiMU1kz0qamlMCqTKUiEjFNZM1NTWTqapO5opEDRd6YRg1YprxhuapMtMgYbhTSMGpGXFJVplpkLJnpUbrg1OwwaYUzV3NU7kNMZcVIy4pKtMtOxEw3CmEc1Ky4pjLwa0TNVIiYYNRsuOanI/Wo2HJq0zVMjpjDBqRlxSVZSdiF1zzUTLjmrDDBqN15571oap3ISMimHg1IeDTXXPNWmWmM2g0UtFVcu5Oi/rUoGBSIMD605Rk1hIxkOQYFL1o6U9F/WpMWKowKeowKFG0YpyLk5qGyGxyDApetHWnquKybMmwAwKco3GhRuNSRptqLmdwRf0p/WlVc0/pWbdzNyAcClUbjQo3GpUQKBipbsZN2GonFSAYFFPVcc1BDkNRcnNPo609VxUN3M5SBVxzS0qjcacic1LdiGxFTHXrUgT1pwGBSqNxqW7k8wnSnKmetOAwKUDJqHIychOlOVM9ackfNSDgVDdjNyI1TnipBwKKcE9alu5LfcbTlTPWlC4NLUt2Jb7DQnPtTulOCetOEOanmJchgGTShOeakVPWndKTZPMRCPPrTo4NzgDqeKfUkK4kQ57g1PMJtiPYOg5IpoibpkVed8+9QCLIqo67ii+4xbRmHVaX7C2eq1IEI704Ic8mm0O5F9iYngr+dBsJDzlfzqbyvc0DKHrkfWla5KfYiNjJtxlcfWm/YX9V/OrG7dmm7ee/HvVcoIh/smQ915pG0yQHHy/nVyMkgc0rr7moJuykulyt0xQdGmYdB+dXEYoRzVhJsik20Jza2MSa0aByp4I681GyelXdTbdfOfp/IVBQnc0jJ2uQFcCkqby/emvH7flVp2K5iFkz0oKce9SGOkZdop8xakRdKayZ6VNTSmT1pqRSdyFosimsmPrUxGDTWTPSrTKTIelNKZPWpmTjmmMhX6Vadi4yIiMGmsmelTU0pgVXMWpEDx80wjBqxUbJ+VWmaJkTLk0wjBqVlxSVSZSZCyZ6U3pUrDBprLk1aZqpETJnpUbrg1MeDTWTPSqTNUyGmsvNSuv6UyrTKTImG4VG8eM1O4waYw3CruaxkQUxlxUzr+lM61aZaZEw3CmMMcVKwwaYy8GtIs0iyFhg0xhg1ORUbDORVpmyZHUbdTUhGDSOMirTKRDIv61ERg1ORkVG6/pWiZsmMoooquYrmLIGTTwMUiDApwGTWNznbBFyc1Kg5puMVIoyBUNkSHIM806gcClQc1m2ZNjlXApyjJpAMmpUTt6VDZlcEXJzT+tAFPVcVnIzbADApyjcaQDJqdVAAqG7GbkIi7RTqKei4GagzlIFXFOUbjQo3GngYFS2ZNgBgUqrupVTPWpEXAqGzNsRYsCnjgUU9VxUNkOQKuOaWlVdxxUiw471m5GbkRqmTUqJtpVXbTlG41LZDYlOVM9aVV20oGTUNkOQAYpQMmnJHzTwnPNS3chyGCPJ9aeE9ad0pypnrUt2JbGgYpQMmnBcGlqW7kcw3y/ejYKkVM9aPL96m5PONHApyKSw+tOAwKdEMyqPUilzE8wrA0qjirLWwoW2q+dD9orFcKTT1j9qsLbDNSLb5HepdQl1EUz/nio2ya0Gt/ao2thRGoCqopDPenBSasm3A7GlFuB2qnUKdREMYIGBSlT3zVgRUvk/WodQh1CoV/SlViKstFTTFjtRzhzozrn/XtUbDcKs3QxO1QsmelCkUpEZTjikK4FSlOPem9KpPsWpEdNZM9KlYbhSFOOKfMUmQsnHNNKccVN0prJnpVJ3KTIelNZM9KmaLjNMZcVSZakRdKayZ6VNTSmBVpl8xA6c0wjBqxTXjyKvmLTK7JnpTelSsm2msNwqkzRSImTPSo2T86nIwaaw3CrTNU7kHSmMuOamdOaYeDVplJkdMYYNSsnU02tEzRSIXXPNRMuOasMMGmOueapM1TuQ0x1walcc5ppGRVploiYbhUTrtNTHg011zzVpmyZDTGGDUjrg011yKtMpMidc8008ipKY4wfrWiZtFkLLnimEYNSuMGmOuBmtImpG/SmnkU8jIpnSriXEj6UVJ5We1FWXzElSRjpTEHNTKuBWMjBsWnouBmmoOafWcjJvoKg5p9IowKci5OazkZNjkX9alAwKRRgU5Fyc1nIhscgwKUDJop6Lj8ahuxjckQYWlo6UqDmoM7jlXFOUbjSAZNSAYqWzJsAMClRcnNCLk5qZVxzWbZAKuOacBk0AZNPAxUN2MmwAxSqNxoUbjUqLtFQQ5Ai4Ap1FPVcVm2ZtjUXJzT6VV3HFPSPBqG7mcpDVTNSJHtpVXbTgMmpbsQ2JTlTPWlVdtKBk1LdyHIAMUoGTShOead0qW7EOQ0JzzTgMU5Uz1pypzxUt3IchgGTS+XUgTnmndKhsnmIxDUkMf71Oe4pQMmnIDG4YdQc0uYlstPEQORSLGewNNN857J+R/xoF84/hT8qXMyOZkyxkU9U46VX/tBv7qflR/aDf3U/KpbJbZO6kmmOhz0qP7e/91PypDev/dWjmGmxxFKqbjUZu2/ur+VL9rdR91R+FVzFcxN5PFI0eB0NRi/cdk/KkN857LSuTdjiCKQjNNN4x7L+VNM7E/w/lTUi0yC7T96fSoTHViXLNk96bVcxSZAVxSVMU9KRo+Kq9xqRAyZ6UhXAqUpxxTSMU0y+YjppT0qRkz0pCuBVJlqRF0prJnpUrDcKay7RVJlpkDJzTSMGrFMdKtSLUiBkz0pvSpWXFNYbhVp3NFIZUUiYJNSkYNIy7qqJSZBTGXFSsmOlN6VonY0UiJhuFRunpUzrg00jIq0zaMiDpTGXHNTOv6UyrTLTI6jPBNSuuDTWG4VomaJkTrnmonXBqcjBpki/rVJmydyKmOuDUhGDTW6GrKRC45+tREYNWKilXFaJmyZE655ptSUxhgmtC0yJupopzrnmm1aNUQNwx+tIeRT5BnNMrRGqI+lFP2g0UyuYsL90UoGTSL0FORcnNZmI/pTk6mkUZNPrMxbADJqVF/SmoOPrUoGBWZDYqjJp44FIgwPrTkGWrMxYqLjmpVGBSIPm+lOAyazIkKi5Oaf1oAxTkXnNTIybFAwKeq8ikAyakRf0qGzK4sYxmnAZNFPUYFZt2M2xQMUqDcfXFCjcakiXFQZNjkGBS0daeowKzbIbBRgU5RuNCjcakRf0qLmTkIiVIBgUU9VxUNkNiKmetO6UU9VxUN2M3IRUz1p3SlUbjTkj5qWzOUhqruqRI8U5V20tTzENiKu2lpwT1p3Ss2yW7DfL96VV209Uz1pyx88VPMS5EdOCZHWpBHSquDRcz5iLy/enCHNSUVLdguxoj460eX71IEyOtHl+9LmFzEfl+9Hl+9SeX70eX70cwroj8v3o8v3qTy/ejy/ejmDmIzHTTDUxTjimkYo5h8xCY8UFOKmpGG4U7j5iAjFFTGOmtHgc1SdhqRCU9KaRipinHFN6VSdy1IiYbhSGPIqQpk00jBqk7FJkLR46U3pU7DcKY6cc1SZakQsmelN6VKy7RSVaZopELJnpTelSsuKaw3CqTNFIiKZqN1/SpyMGmsu6ruUmQUxlxUjptpKtM0TImG4VG6elTMuKay5rRM0TIOlMZcc1M6/pTOtWmaJkRGRUTptqdhg0x1zzVpm0WQ0xhgmpHGD9aaw3CtEy0ROueab1qQjBpjrg1obRZE654qPpU7DIqJxzmqiakb9Kjdc81KRkUzpVxLiyFxzmmEZFTSLk/Wojwa1iapkfSmOuDUrjBphGRVo1TInHeonGD9anYZ4qNh1FaI2TI6KOlFWMsAZNSU2PvTl6isZGEh6DA+tOQc0lPjTP41nIyJEGBUi9BTKevQVnIxkxafEvNNQc1MowPrWciGxaegwPrTUHNPqTJvoKg5p9IvQU5Fyc1mZNjo1/WpQMCkUYFORcnNZshsci4GacoyaSpI1x/Os2zFseq45petFPQYH1rNszYAYFOUbjQq7jipEXn6VLZk2CL+lPop6ris5ENgowKco3GhRuNPAwKhuxm5ABgU5V3UiJk9KmVcVm3Yychqx4FPHAop6riociGxFTPWndKVRuNOSPmobM5SEVM9acqc8U9V20tS3YhsRVxTuXH0pQnrTnKqMjjA5oTu9AW+gxht5PApU8t/uuCfTPSv0Y/wCDf7/gmp4N/bLvvFfxH+I2npr/AIc8JX6aRpmiy7ha3l2Y1lkmnxjeiK8YVPuksxbOAK+mv2/P2ZfihF8WdZ0f4I/sQfs8eMfBPh6wt5Y9Y8QSW2n3OsytFvkgtYYjEV2ZC7nbBbODX2uWcG1cVh415z5b6pW6H6JlHh9XxuFjiZ1FHm2Vr6H4oDA7frRjceK/YD/gk58Iv2Tv+CuPwl8X3N/+ztb/AAy+IPw81b+w/FegQ6pdxiyuTv2tHJG8Z2lo5RtZQytGwIYAMffvEv8Awbi/s1667Nbaf4y0ckcC08QSsq/QShxW1TgPFL4Jr8Tar4ZYtfBUi/vPwCEZNL5Jr9u/FX/Br78JdQDHR/H3xF0on7vnSWd0B+cKn9a8/wDEn/BrHCI3Oi/Gm8Dfwrf+Hkf82jmX+VcU+CsxW3K/mebV8O82j8Ki/mfkJ5OB1FJsPQniv068Rf8ABr18ULTd/ZPxP8Cago5AurG6tSx/4D5lee+Kv+Dcb9o7QSxsf+Ff60o6C31mSJm/7+wqB+dcNThPM4/8u7/NHn1OB85j/wAur/Nf5nwV5IYcU0oB06j1r628Uf8ABDX9qTwupLfDAaii/wAWn63YzZ+gMit+lef+If8AgmX+0V4UVze/BT4iKsectBpv2sfXMJauKeQ5hHek/uPPqcM5rT3oy+48I2E9vypMY+tdv4k/Z3+Ing1mXV/h/wCOtL2/eNz4fu4gPxMYFcjfwSaSxW8t7izPQieNoj+RArklgcTD4qb+44J5bi4fHSl9zK2001k596UXdvORsljb6ODTvL9DWDpztqmczp1Iq8o2+RGU496b0qVl2ikqE7EcxEw3CmOnHNTFMnrTSMGnzFJkJTjim9KnYbhTGjqlIpSIWTPSm9KlZdtNYbhVJmikRMmelRvHipiMGkYbhWiZSZBTWTqaldOaYeDV3NFIjpjDBqRlxzSVaZomRMNwqJ12mp2GDTGXg1aZomQ0xhg1LIuOaYRkVomaRYyoZFwSfepulNdcc1UTVMhqM8E1IeCaa44rWJpFkbrjmomGDU9RuODVo2TIXXPNNqSmMMGtEWmRHgminOOKbVmyIG4Y/Wkp8o/nTKtGiI26mopB+lSt1NNcc1ojWJDUZ4JqRuppr9auJrEjfpTae3Q0ytImqI2UbjRQ3U0VVzRFinoMCmL1FSVmc0hUHNTIMCo40z+NS1mZyHJ0p3Wmp0p6dazMnuTLwo+lLSL0FOQc1mZDl6CnIuTmkAyak6VmZNgBk1Ki/pTY0z+NS1EjNsAMmpOlNjGM09Rk1nIxkKi45qVRgU1Fyc08DJqJGVxUXJzT+tHSnxr+tZyM2xUXPFSAUAYpUHNZyMr6jlXFOAyaTrTwMCoZDYuMU5EoVMmpVXbUGMpAq4pyjcaAMmngYrNshsAMClVd1CLuNTKm2ouZtjVj4p44FFPVcVEiGxFTPWnAYpQMmnJHzUNmbkNVcimXw8q0dv8AZNWAnPNUvEN8lrpsuPmYA8DtxV0buaSLoJyqJI/d/wD4NgfDn9lf8E37y+ZNj6z4w1Kfd/eVRDCD/wCQzXe/8FS/jD+3B8JdSvrr9mj4a/C3xx4Uj0RZJJNUupTr0N9vk8zybczRRSIIxEVXLMzFhg8Azf8ABvl4W/4Rj/gk38MZNoD6uNQ1JiB18y/uMZ/ACvH/ABd+3R/wUR+Df9teFJ/2R/DfxI1wXk8Wh+L9H8W29tpM8BdvIkuLVjvDKm3dl4gcHhc8f0Ll0OTDQj2SP6pyql7PCU4dkg/4NftB+GFz+yH458X+EfE3iPxT8RfGfiuW9+JU+vacmm39prGC7W5t0d1SJfNkdWDEsZHJ2sDGn6cL90delfBv/BBb/gmh40/4J3fs+eM7/wCKGo6fffFD4s+I5PFPiKDT3D2unOwIWBXX5XYM0rsV+XMmFyFBP0bp37fHwv1DTYL3+3NUtrK5TzIbq58Palb28ydnWV4AjKRyGBIIIIJFdp6B7NRXl2j/ALaXwj1hlWL4k+Co2bpHc6tDbSH/AIDIyn9K6/w/8W/CvixgNL8TeH9S3dPsuowzZ/75Y0AdFRgelIrB1BBBB6Ed6WgAxSbR6ClooAaYUPVVP4Vl634M0jxIrJqOladfoeCLm2SUH/voGtakwfWpcU90S4xe6PL/ABV+xf8ACPxtG66p8MPh/fiT7xm8P2rMfx2Zrxb46f8ABE79nP41eD7/AE2D4d6R4R1S4iIttW0BDY3NlJj5XCqRG4B/gdSpGQRX1wRnvUZXDH371z1cLRnG0op+py1sDh6sXGpBNPuj+UP47/B/Uf2fPjf4t8B6xLDNqXhDVp9KuJYgfLn8tiFkUHkB0KuB2DVyUkW45Feof8FEvFr+Kf8Agof8cNQikJSTxpqMSZ5G2KYxD9I68ptr8OcONjevY1+D5tho0cVOFLZNn8y53hI0cbVhS+FN2Q8px700ipyN47fhTHTjmvMv3PHUiEp6U3pUrLtFNYbhTTNFIiZM9KjePFTEYNIy5q0ykyCmMuOamdPzpnSrizRSI6jdOalZcc00jIq0zRMgPBpjLjmpnjph4NWmaJkdRngmpXGD9aaw3CtEzWLInXPNRMME1ORg0yRf1rQ0TIHXPNN61IRg0xxg/WtEbJkbLg1E3U1ORkVHIOPpWhSIWGCaa/3TUhGRTOlWjZMhcY5phGRUzrzz3qIjBrRGqI+lMYYJqRhg01/umriaxZFJ2qFupqx1qKQfpVxNkxlRt1NSVG3U1pEuJFIP0plSyLk/Wojwa0ibIjbqaYwwalcYNMf7prSJpEZRRRVmhKnWnr1FIvQU5OtYyOdksfenp1pq9BT06ms5GUh1SRjkcVGvUVOowPrWcjNsWnr0FMXqKkqHsZSHR96cvUUi9BT06VmzFj0HNPAyaRegp6dKzZm31HVJCME0xOtSx96zexi30HU9BgfWmoMtTzwagzkKi5Oalj701BnFSVmZNgBk1J0pFGBTkHNZmbY5FwM05Fyc0nWpY1/Ss2+pjJix96dRinqMAVm31M27AowKci5OaEXcalRNprNszkxVXHNLSgZNPAxUN3M7iKMCnKNxoRcnNTKuOalszlIaicc05mEaEk4ApJZlgjJbIz096zrm5adjngDtThBsdOnKRJdahv8AlTgHv3rG8SyeTpcrc525/wA/jWiBuNZHjgmLQpyBnKHj1/zmvRwlNOrGK7nrYCknXhBdz+oj/gkT4TbwN/wTG+CGnyDYy+EbOd/96VPOJ/8AH6/Kf/gpz/wdlfE39kr/AIKJ+KPhx4G+H3hC78E/DfWH0jVRrS3B1HXZIsLM0ciOqW67twjPlyZADNkNtFD/AIOibH4wfDb/AIJ1/sw6P4VOv2nwo0zQ4bXxTJpTyrEL6OztVtFuymMR7ROU3fKXyeoWvxq1P9k34z+OPglffG7VPD3iLUvDNu6vLrOobpZrqGJooDcgSZeW2jeS3iaXBjVpETPBA/fqEeWml5I/qDDx5aUV5L8j+0y0+Mtt43/ZZi+IVjFcWVpq/hQeIbeKcYlgSWzFwquOzKGAPvUv7LOkHQf2Zfh3ZMux7XwzpsTr6MtrGCPzFfzv/wDBv9/wUv8A2hPj14j+PXgjxx4z8UePvAU3wy1bUbiXWLh7saDebEgtjDI2fKWQysnkjCsBuCjYTX9KPh7Sl0LQLGxQAJZ28cCgeiqF/pWpsJquhWOuRGO+tLS7RuCs0SyKR9GBrkdZ/Zg+GviJm+3/AA+8EXpfq02hWrt+ZTNd3Xhn/BRf9uvwp/wTc/ZL8T/FrxhBe3+naEscNtp9mQLjU7uZxHDAhbhdzkZY5CqGbB24IB5F+3/4v/ZO/wCCbHwmj8b/ABR0nT/CtjeXH2PTbXQ1uIb/AFSbG4x28Ns6EkDksdqqOpGRnm/+CdH7Un7OH/BUPwprN58F/H/xU0298Osg1PRrjxVqtpqFgr5EcjRS3EiPGxBwyFlyMHB4r+fb/gtr/wAFqbX/AILI23w51CfwNfeAdb8BtqNu9qmrDUbC7trkwMkgYxxukymEqw2kEMCCMYOj/wAG7/8AwUw+Fv8AwSq/aE8afEP4lHxnff2xokfh2w03w/YxzswkuY5ZrmYySxqFjEKgKCzMZDwMcgH9R8H7MWs6WudP+L3xTtmz8qz3VjfIP+/1ozH8TSP8HPinYSZs/jHLcKP4dU8KWU5P1MBg/Suo/Z7+PPhX9qP4KeG/iD4J1WPWfCviyyS/068jRk82NhjDK3zKykFWUjKspB5FdsDkUAeRTaH8cNLjAt/Enww1cY4+0+Hr2xc/Vku5B6/wit39nH4m6p8XPhTb6zrVlptnqX22+sZksJXltZDbXcttvjLqH2t5W7BHGa7yWQRqzEgBBlj7V5V+wzG6/so+DZ5P9ZqNtLqLe5uJ5Jyf/IlAHrC8KOv40yXAVj+vpUlc/wDE/wAQ/wDCJfDfxDqpOP7N024uz/2zjZv6VE37rJm7RbP5O/i54hbxl8bfHOsMdx1bxHqV5u9RJdyuP51z5OTUOkXDX1otyxy1zmYn1Lc/1q065JHoa/Acwqc2JnLu2fy9mdXnxdSfdsda3rW5wTkHsa0LeZbtfkOcdR6VkkYNRz6lHpxDlwp788Vx+y53aO557oOb9zc3CM8VE8eCaZp2pG/0wXn2a4W1LbPtPlMIWPpvxtz7ZqcgMOOlZ1KFSl8cWjKvh6tF2qxcfUgpjLipmi5zTD1qEyFIiYbhUbr+lTMMGmkZFUmWmQUxhgmpXXaaaRgVpFmqZEw3ConXaanYYNMdc81pEtMhqM8E1K/WmOuea0iaxZG45zTCMipajbqauJsmQycU3rUzjmoW6mrRomRng0kgytPk7U3rWiNUVyMGmOMH61LJw1N61qjRMiYZFROMGpjwajbqa0RtFkTdDTOtSN1NRt1NWjSLIzwaa/Snv1prdDWhsiBupprjvT3601uhq0aojboahfrU9Rv3rRGyZE/3TTKkqNuprRFxI26mipKK0RqiSpE7VGvUVKnWsDAfT16CmL1FSVmYyHR96lXoKbF/Sn1mzOQ5OlPTrTV6Cnp0qZGEh1SxD+VRp1qVOlZyM3sO61IOBTE609eorORjIfGmfxqWmJ1p4GTWcjJsegwKcg5pOlPjTP41nIykSIMCnJ94UlPUYFZyM2xakHApiDmngZNZyMpDkHFSqMCmoOaeBk1nIxYqDmngZNFPjX9azkZyY5F/Sn0AYpydTWbZmxVGBTkXJzSAZNSxjn6VDZk2OVcc02aZYIyzde3vTndUUk8Afqazru5NzJkjgdBTpwuOnBt67Dbi5a4fLfgKSOMvwTgCmquT9Kl25IBPWuhdjr0WkRMKDwcD+dVjocvivxPo+kQRSSz6nfQWyIilz80ignA5wAcnHYGu9+An7P8A4w/af+Kum+CvAmiXOveIdTb93DF8scKAjdNK+MRRKMbnPT3JAP66eDv+CTnhP9gP4OaJazyQeKPiX4t1XTLHVdceLEcCy3sCNbWisMxxAE5b7745xwo+q4byOtiq0a0tILr3PteE+G8Rja8cQ1amne76+SP0s8U+ENSuvhvJo2hX2m6VeLbJbQXF9p39oQRBQFw0PmRh+BjG4Cvzv8Rf8Eb/ANppP25IfjvB+1B4V8W6tDpEnhyTwvr3w/Nv4duNFkIZ9MNvDdsBCxVWJA371ViT0r9NYzlRn061MvQV+wq9j96jZKx8seP/ANnLw98Bf2MdS0LRPAfw88Baj4o1TSbPVbTwdpy2dhdzT6nbwsw2xxs3ySNjcCVyRmvqcdK8i/a6lM+n/DzTx01Px7oykevkzG7/APbavXQcjPrTKCvmn/grT/wTysP+CoX7Efif4T3esv4dvr+SHUdJ1QRebHZ3tu+6IyJ/FG2WRgOQrkjkCvpaoZozKrKwbBz0OCRx+X+elAH8qfx8/wCDdq4/4Ji/A/xZ8Uf2mviD4JGlaXbTWnhPwz4bvpptR8Yao4CwR7pIo/KhQsJZCu9giNnbndVD4+f8Gxnxx1/x7o2vfs96XY/FX4N/ECCDV/DOvxazZ272lpcIsiR3iyyIVaMNtLIGB254YlR+/n7Rv/BBv9lz9rLxLJrXj34ealr+syAp9tn8V6w8sankqmbohFyeigCu1/Yp/wCCZXgb/gnzarpfww8R/EXSvCAMkg8L3/iB9T0eN3+88aXCvJEc/N+6kQE8kHJyAH/BJj9iq9/4J5/8E+vhx8I9V1GDVdY8MWUz6lcwZ8g3VxcS3Mqx5AOxHmZVJAyFBwM19IDpSKcqKWgDnfi1rv8Awi/ws8Tan0GnaTdXXH+xC7f0rF/Zj0X/AIR79m3wBYkYe08N6fC3uwtowT+YrN/bN1Y6P+yj8RZU4kk8P3luh9WliaMfqwr0Lw9pS6FoFjZIMJZ28cCj0CqFH8qALg6V45/wUE8Vr4H/AGGvjDqxfyzZeDtVdW/ut9klAP4EivY6+UP+C3fipfCP/BLD4zzmRUa60VbBATyTPPFDj8nNYYl2pSfkzmxknGhOS6J/kfzVaLbiLTYVIICoox6cVJdXKW4JJ2ge9T/D/wAM+IPi74tsvC/gzw/q/ijxFqB222n6bbNcTyHjnao4XuWOAO5r9Tf2Cf8Ag2M1LxO9l4m/aI1iSxtjiVPB+i3A80/7N1drwvbKQ/8AfwHivxvA5BisbVcoq0b7s/Act4XxuY1nKMbRvu9j80/2ef2cfiN+2R4+Xwx8L/CeqeKtTDKLiWFNlpYA/wAVxcNiOJcc/MwJ7A1+wP7AX/Bsx4M+FUll4n+O2ow/ELxGgWVdAtt0eiWT9cP0kuiP9rbHx9w1+kvwV+BHg39nTwNa+F/AnhrSPC2gWI2xWWn26wx5xjc3dmPdmJJ6kmvzB/4OVPCXxR+Evjr4NfG3QvjD8WvAPwl0TVo/D3jmHwfqTwSaHFcSYj1VYlIWbqY3WTI+WFV2l2Nfo+VcNYbCJOS5pd3+h+tZLwfg8Ck5Lmn3f6H6lS/C3wzJ4H/4RkeHdCHhwQfZjpf2CM2XlYx5fk7dm3HbGMV/Pj/wWS/YBi/YO/aoePw/Zva/D7xqjaloCruaOyZT/pFmGPJ8tmUoD/yzkQfwmu0/bt/b0+Ln/BOK8tdA+Hv/AAUGv/jp461FYv7L8G2/w307XLyYyANGJ7xHZULKy4B3SkEEJivoz4Kfswftb/8ABTn/AIJn+PNO/ar0LRNH8dJdReIPhpO1vBY6tbTJE4eC6toUCwxyYCDc3mYmbeoCIa2z/KIY3CShFe8tU/M6OKMip5jgpU7e8ldPz7H5EHK8dqhkTbU7QXFjd3NneW81pfWUr21zbzLtkglQlXRh2YMCCPUUx1/SvwqrTlTm4yVmj+aa1KdKbpzVmtyCozwTU0i45phGRSTFFkTrnmomGDU/SmOOT71oapkDjim9akIwaY4wfrWiNkyNlxxURGDUzjionGD9a0RcSJupprjipXGVpg4FWjaLI+tRSD9KlbqabIM4rRGiZD1qM8GpDwaY/WtEbRZHJyaiIwancZWoX4IrRGkSN/vGmOueakfpTa0RsmV26mmv0qWX+tMrRGiIm6GmVI3U1G3U1ojaIyX+lRVK/Wom6mriaojbqaY/WpH601/umriaxIG6mmP1qR+tNf7prSJqhlFFFWWSp1qVOlRJ1qZegrMxkPTpTl6imp0p6dazMnuTL0FKvUUi9BTk61mYsfT16Cmp94U+szKQ+L+tS0yI/wAqfWbM5Dk6U9OtNXoKki/rWbMJEi9BTk60lOTpWZm9hy9RUqdaZH3qVegrMxkKvUVJTY+9OXqKzM5D16CnxjNNqWIfyrMwkPAwKdGMZptPXoKzIbHIMtUqcE0yNM/jUtZmLADJqTpSIMCnIOazM5Do0z+NS9KanSo76fyosD778D6VMbtkJOTsVr663vt/hU1AEIINNPJp6jC/XmuuKSO2MbKw7GecYFew/sV/sQeO/wBvP4tweE/A1gCsTLJqmr3CsLHRYSf9ZMwHUjO2MHc5HGOSO8/4Jtf8EvfG/wDwUX8d7LBZvD/gLSpwms+I5Ycoh6mC2BwJZyvblUyCxHAP9Cv7Ln7K/gj9jr4TWHgzwDosWkaPZjdK/wB65vpiPmnnkIBkkbux9gAoAFfZ8P8AC08S1XxKtDour/4B+hcLcGTxbWJxacYdF1f/AADif2Bv+Cd3gP8A4J7fC1dB8JWn23Wb5VfWdeu0H23V5R3YjOyMHOyNThfckscD9r9zq/xz+E+mj5vtHjHT3ZfVYnac/pEa+nRgLkccZr5l+LCjxB+3V8KLEnctvf3t+3t5VhcYP/fTqPxr9So0YU4qFNWS6dEftVGjClBU6aSS6I+nlGAKWgdPSitjU8m+P8qaj8afgxpbHIfxJd6gy+og0m+A/wDH5Ur1kHIryT4kWy6x+2F8Mbfhjpmia9qTD+7zYW6n8fPcfnXrdABRRTWO3nIA+uAKAHUV8RftB/8ABwx+yh+zN+0fP8LPFfxLW38S6fc/Y9TltNMubuw0efdtMVxcRoUV1P3gN2zo20ggfaWga7ZeKNCstT027tr/AE7UYEubW6t5VlhuYnUMkiOpIZWUgggkEEGgC3RRTZHWJCzEADnJoA8l/bchW/8A2eNR084zrGqaTpoHr5+pW0ZH5Ma9XubuO0jLyOqhRkknpXz3+3d8Z9E8FeH/AATHfX9vDBJ420qScySBEWOGRrliT2A8kHJrlY/ih8S/2uLkp4B07+w/C8rc+KNYieO1dc/etYeJbr2I2RcffPSgD1n43/tZ+GPg1pElxqGoW8Jz5aBn5kc8BFHVmJ6KuSfSvnL48fsveO/+CqPwyuvCnixdS+HHwx1a5t7i5lmQJreqxwyiVUigIxbozKoLTfPjpHX0N8Ev2MvC3wg1ePXLtrvxb4wAw+u6xtlniJ+8LdAPLtlzniJVJHVm6169sxjHTOaUoqSsyZJNWfU8U/ZQ/Yv+En7B/hP/AIRr4ceGdN0W5ltWmncMJdW1VYyoaSWZz5knzMmcnYGcAAZr+ffxv/weG/tPeEv2j9cnXwp8PrXwxZajNbr4V1HS5vOs40kZPKkuFkSXzlxhifl3Z+TtX7uf8FVf2YfGH7R/7LepXfwr8Qal4R+M3gcSa74I1nT5/JnS9SNg1o56PBdRloXRwUJZGYNsFfzhf8FUv2N/i58Vf2PPgR+034o0m+8ZeLvi0moyeM9W0nw9b2KadOk6x2cFxDaQoBM8aSs80q7mk3oT8gBmEYxXLFWJpwjCPLFWSP2u/wCCLn/BfPXv+CwPj3VNCsfglP4TsfCOnpd+I9fbxEt1ZW8shYQQQx+Qru8pWQgFgFWN8noD2H/BZT/gn/8AtD/8FHdT8MfDbwN8UfD3w++BOvWciePUfT/P1W5dJVaOOPI/exupHyB4grREszAqo8x/4Nbf2MNT/YK/4Jlah4o+I+nP4N134h6vJ4jvE1jFnJYadHEkNr54kI8vKrJKN2CFnGQDkV9sy/HzxT8cYpIPhNo8I0uUMP8AhMvENvLFpfOADaW4Kz3vs2YoTj5ZW+7Vmh8nf8EEv+CL9t/wTO+HXidvHXgrwLc/EeLxJfW+k+MbN2vNQ1LRtyi3dt4ItGYbsxxHlSm75s1+jZQNxwRXC/s9fFO4+LHw8WbVrWLT/FGi3UmkeILGMkpaahAQJQvcxuCssZ7xyxt3rusgrxSYWPwf/wCDiX9hZv2ef2krb4uaBZ7PCnxKlK6osanZZ6sq5cnsBOg8wHvIkvqK/PaM+YgYcgjNf1Ifts/sq6N+2h+zP4q+HetrGkeuWx+x3TLubT7tPmguF90kCk46rkdzX8v3jXwBrXwZ+JOu+DvEtpJY654bvpdOvrdx/q5om2t9VbhlP8Sspr8n41yf2Vb61T2lv6n4b4hZB7Gv9dpLSW/qZ8nzcYqEjBI9KssMGoZR/OvgkfmUWtiFxg/WmuMrUvWozwauJsmQvwBTGGRUzjk+9REYNaRNIkdRuM5qRuppr9K0iaoh6VG3U1I3U0x+taRNYkb9aa3Q1I3Q0ytImyIH601/umpX71HWkTVEdRS/1qVuppj/AHjWkTREVRt1NSVG3U1pE1iMf7xqKpn6VC3U1rE2RG3U0x+tSP1pr/dNXE1iRv8AdNQv1qeopf61ojaIyo26mpKjbqa0iXEil/rTOlSy/wBKirSJuiM8mihupoqzRE8b4/Cpajjbp+VSVk9jGQ9egp8ZxTF6CpI3x+FZvYxJQcinJ0ptPU5FQZjk609eopsfenp94VmYPclj705eopqdKenWsmZvcfUsX9KiXqKlTrWb2MJD6kpifeFPrN7Gch8X9alpkX9KfWUjFj16Cnx96bT1ORUPYzFXqKmTpUcfepV6CspGEhydafTY+9PTrWcjN7kkX9KeBk01OlPTrWcjIfT40z+NMXqKlTrUS2MZMfnB56YrLuJjLOx7dquajceVb47txVB5AilnO1euSeg/z/QVth4N6o6cNTd7rdihlRSTgepJr7r/AOCTf/BF/wARft2ajZ+MvGaX/hr4SwyblmAMV54j2tzHbZHywnkNMeOoTJG5fXP+CQ//AAQevPjF/ZXxN+N2mXGneE2KXWj+FZwYrjWF6rNdr1jhPUR53OMFsLw37X6RpVpoOmW9lZW0FpZ2kSwwQQxiOKFFACoqjhVAAAA4AFfpPD3Cu2IxnyifrfCfBWscZj4+kX+b/wAjE+GHwt8PfBTwFpnhbwpo9hoPh/RoFtrKxs4tkUCD0A6knJJJLMSSSSTXTR/cGeuKZncRgCsvxl4y0v4f+Fr/AFvXNRtdJ0fTIWuLq8uZRHFBGOrMx4H9TjGSa/RIxSVkfrEYqKstDQv7mKxtJp5nSKGJGd5JGCrGo5JJ6AADNfGvwj+LSftB/wDBSDS7/RLKWXwhoXh3VLix1mQ7E1qUyW0LSWyEbmtl3lRMcCQk7AVG4+qjw3q/7Y+NQ8U2F9oPwqQCSy8OXKG3vvFWDlZ9QX70VqQAUtDhnzmbAPkjnvgWn9p/t++KZkWNYdJ8Ix2yqigKnm3nCqBwBttwAO22qKPp4dBRQOBRQB5EwbUf28AM5TSPARyP7putQ4/MWZ/KvXa8k+Hkv9rftjfE64I3f2Zoeg6arehLX87L+UyH8a9bHSgAr8yf+Cs3/BzN8PP+CXn7S1t8LB4H1r4heIrOGC619rPUY7CHRo5lDxoCyOZZzGVfZ8igOnz8kD9Nq/DD/gvf/wAGzXxR/be/bU1P4y/BvVfDN5/wmcFqmuaRrN81nLZ3MMKW4mikKsrxtHHGSpKsrBsAggAA/n6+LXiG08Y/FfxNrNlcX11Zarqt1eQTXoAuZI5JndWlAJw5DZbBIyTyetf1F/8ABAf/AILCfs//ABM+Dfwq/Zl8P+Mdcv8A4h+D/CdtZJLqulvZWuuTQQb547ORmYsIvnCrIEZkjyqkAgfkVqn/AAQd8NXfxS8U/s8eGvidoPiT9pbwb4OXxTfRQ3ixaDNfrdAT6HFI4BM0VoySmRwv7xipCANtf/wRi/4JYfHr4Yf8FJPB/ifVPAWt6ddfDe9OovZRyRPPcTbHSONnVzHDEWcFpZGVSgIXcTigD+pjxh8R9L8GWby3dyibATjcB2yefavnbWv2qvFP7QGuXGh/CnRH18wyGK61aST7Po+ntnBElzghnH/POJXf1VetaXhP9iPVvijeLqvxj1sasH+dPDGlTSRaXFnkLcS/LJdEHt8kZxjY1fRPh/QLHwtotvp+mWVpp9jZx+Vb21rCsMUKDoiqvCj6cUAeFfDj9gXRm1yy8RfEu9X4j+JrGUXNrHd2+zSNLmwQGgtSWBcZIEspdvTb0r6FjQIiqowoGAPSlAwKKACiivMPiR+09pHhPxRN4Y0Cy1Dxv42RQx0LRgskloD0e7mYiK0Q8czMCQflV+lAHpUnBZiSAB16V4hp3xy02Brzwr8FfDNv4suo724lu7y3m+y+HNJuZpWlnaa82sruZZGZobZZJMs2QnWrP/DP/if44E3PxX1mN9Jk+ZfBugzSRaUoyflu5/lmvj935T5cJxzE33qt/tNftBaH+w18DovF99oMkXw98MSwxa7JpFtn/hHdOb5DeC3jQl4YWKGRYxlIi8gBCbaAPnL9pv8AbG/Z0/ZC+Kmk2f7U3xs8P6p48mCX9n4fltZ20nRVYny5U0+BZdvQ7Z7svIcZUqPlH1J+z3+1z8L/ANq/w4urfDXx/wCE/HFgV3M+kalFcvF7SIp3Rn2dQRX8v/8AwcYfs22Xjv8AbG8U/tC/Df4leBPiv8O/iUsGpK+jeI7W81LRXS3jhkhmtVkMwiURgh1TaquFbaV5+Bf2dfB/iP4lfHLwn4U8JXl/Y+IfFmrWuiWMtpK8cgkuZkiXlCDjLAkUAf2q/EmVfgR8e7Dx3A6x+G/Gclv4b8VbMbLS73bNPv27L8z/AGVyT0mtyflir21RhR615H8Fv2NPBHwP/ZH074NafpzXHhKz0c6Vc+c5e41EuhE1xK5JYzSOWkLk8McjGBiz+y7461PUPD+qeDvE1zJdeMfAFwulajcScNqcO3daX/8A23hwzekqzL/BQB6pX40/8HLv7B7aTq+l/H7w7Z4guTFo3iwRLgI/3bW8b6j9yx9oa/ZVfujFcl8bfg9of7QHwm8SeCfEtot9oXiewl0+8iI5KOpG4HsynBB7EA9q4MywMMXh5UZ9fzPLzjLYY7Cyw8+q09T+T6C4+0xK3Uk4NEi5P1rt/wBpf9nXXf2QP2i/FXw18RKz3/hy7McNxtwt9bt80Fwo/uyRlW9jkfw1xR5Br8AxmFnh60qM1Zo/l/H4OeFxEqFRWaZAeDTH61I/WmP0rFGESN+lRP1qZuhqJ+lWjREb9KY3Q1I3Q0ytUaxIZO1MboallGAajrRGsSOo26mpG6mmucmtDaJE/Wom6mpn6VExyatGkSJuppr9Ke/Wmt0Nao2RA3U0x+tSucmmP901qjWJG/3TUL9an6VFIf1rSJtEic8UxuhqRuhplaRNYkdRvxmpG6mmOctVm0SKo26mpKYxya0NIkcjYP0qI8mpX61E3U1aNkRt1NFP3AUVojREq8kVIDg0yM/rTwcGspGUiSpImyajBqWM/rWcjEfT16CmdKkHIqHsYyHocj6U5OtNU5FPjOKzexiyVTkU+PvTFO4U+PvWb2M2PT7wqZegqFOtTL0FZSMHuOTrTwcGmx96en3hWcjN7ksfenL1FNTpT0+8KzkZD6evQUzpUg5FZyMZD43x+FS1HG3T8qkrORkx69BTkPNNXoKkjOBWT3MXsSL0FPTpTc5p69BWb3IHJ1qZD8vP4VEnWug+Hfw8174veOdM8MeFtHvdd8Q6zN5FlYWce+a4f+igcljwo5JABIqjRnVqKnTV2woUJ1qip01dvsc01lPrms29nZ29xe3t1Klvb28EbSSzyMcBFVQWZieAACSeK/Z7/gkL/wAEHIPhU2k/E7436db3/ioBbrR/C0qiS30VvvLLcjlZLgcEJysZ65fBX1z/AIJK/wDBFTw/+w9p1p428cJY+Jfi1dRb/OA8yz8Oqw5htQfvSY4aY8k8Lhc5++UG1fU1+ucPcLwwyVbEay7dj914V4Np4OEcRi1ep0T+z/wRFbYnYetSKQVBFNbheMZ9K4b40/HDT/g7p1lD9lvNc8Ta2zQaLoOnhWvtXmAyQgYhUjQHc8zkRxKcsRkA/aH6EjT+LPxZ0L4K+EpNb1+6aC2Ei21vDFG01zfXDnEdvBEoLyzOeFRAWPPYHHn3hD4T698bvFFh4x+JtkllbabN9q8PeDvMWa30lx9y7vSpKXF7j7oBMVvyI9z5mOl8Kfgdqcvi+Pxz8Q7u01nxsUZLG2tyW0zwrE4w0NkrAFpGHyyXLgSSdAEjxGPV1+6KYytrEvlaXM2DxGTz9K+cv2O0XVv2nfjHfkZNvFpFgD7Yu5T/AOjBX0J4vn+z+HrtvSM14J+wBbfbNY+Lerf8/fitbUN6CGxthj8C5/OgD6OHSigdKQkigDyT4BxLqPxs+NOpLgiTxJZ6eG9BBpNkSPwaVvxJr1tRgDjFeP8A7KE+3TviJqU7Ko1Dx7rBDE/eEMq2qn8oMfhS/HH9rfwx8G9Lea+1CBHZvKRS2Xlc8BEUcsxPRVyx7CgD1XUtYttJhaSaVIwMk5NfLv7bHxi8EfEbQY/Bl/P4v1G/1MtHbaX4U1m/sNSviRtKqLKRJGX3Y7FySSOtN0/wh8W/2srjz7trv4Y+EJTkTXcCvrV6h/55W7ZW3B/vTZYZ/wBX3r2/4Jfs2+D/ANn+wmTw7pYjvr0D7dqd07XGo6gR/FNO+XYZ/h4Udgo4oA/NL9mv/g1/+FVl8bdI+J2qaT4r+HEml3f2+z0bTfF13dajcSEk7ru73Ex5yd0cTMSGIaTkiv1K+Gvwp8OfB3wzFpHhfRrHRNNjO7ybWLb5jd2c/edj1LMSSeSSa6JfujPXFLQADpRRXMfE/wCLnhv4N+G31bxRrFno9gH8pHnY7p5D92OOMZeWRugRFZj0AoA6euF+L37QPhr4My2trqd3Pda5qQJ07RNNga81TUiM/wCqt0y7KCMFziNf4mUc1xkniH4l/tCMBoVpdfC3wnLnOqapbJJ4iv0/6YWjAx2YIzh7jfJg/wCoQ8123wk+AHhj4Kx3Mmi2Mj6rqOG1HV72ZrvVNUYfxT3MhMknspO1c4VVHFAHEjwd8SP2ggJPE97P8NPCkvP9h6PeCTXL5PS6vl+W3UgDMdrluT+//hr0r4b/AAt8O/CDwzFo/hnRrHRNOiYv5NtHt8xz1d26yOepdiWY8kk810Y6CigBF+6KzfFfhbTvGnhjU9G1ezg1HStYtpbK9tLhPMiuYJEKSRsvdWUkEd8mtOigD8N/gH/wbn23g34U/tz/AAR0aeHTvFHiufTP+EF12/UnOhmT7fawtLgtse4he2nKjlrXODhc+d/8EJv+DZb4yfs5/t36D8Vfjpp+i+HdE+HE73ukafbalDqE2s3wRlhk/dFljhjLeZliGLKg2jJI/oFa0j+1mbYglK7C+35tucgZ9M81OOg7UAAORXi/7ScUnwi8YaP8W7JJPI0CL+yvFcUYz9o0WWTJnI7taSkT5xkRNcgffFe0VV1Cxg1KzntriGOeC4Ro5IpVDJIrDDKVPBBzyD1zQBPbzJc26SRusiSKGV1OQwI4IPpR3+hrxv8AZlvp/hlrGtfCPU5ZpJfB8aXXh6eVyz32hysRbjcfvPbMGtnPXbHCx5kFexA8dc46n1ouB+Yf/ByJ+wcfir8HLH41+HLRn8RfD6P7PraRL893pTtnzDjqYJG3f7jyelfioj7lDL91hkV/Wz4h8PWXi3QdQ0vUrWG9sNRt5LW5gmXdHPE6lXRh3UqcEdwa/ma/4KK/sZXv7B/7V/iPwJJHO2gu/wDaPh25kz/pWnSsTGN3doyGiY/3o896/M+OModljqa02kv1Px/xIyL4cxpLTaX+Z4RKOCfWoW6Gp5AVU565qE8mvzc/I0R1G/epG6mmOeT7VUTREVRt1NSE5NMY5Nao1iRP8pNRnk1M/WoW6mtEaxI26mmydqe5yfpTHPFaI2iMc4WoX5IqfpUUrZNaI1RE/Sm09/ummVojWJDL1pjHAqSU/wA6jJwK1RshlRSdDUvWo3OM1ojWJH0qM8mpOlRnk1ojWJG3U02Q4p7/AHjTJO1aG8SEnJpG6GnMcmmt0NaI06kTniomOTUz/dNQscmrRshKKKK0QyaPnNOBwabHzmnA4NZSIe5J1qWI/wAqi61LEf5VnIyH9KkHIqPpUg5FQ9jGQ9TkU+M4pinIp8ZxWb2MWSqdwqRDkfSo1O4VIhyPpWcjNj4+9Sr0FQoeamXoKykYPcfH3p6feFMj709PvCs5GUiZDkfSnJ94U1DkfSnJ94VnIyY8HBqQGowcGpAazZlIljP60/pTIz+tP6VnIxJByKfG/Ipg5FPjb9Kye5kyWnqcrn8KZ1qRT8vp2qOtiDu/2cP2d/F37Vfxg0nwL4G0w6nr+rsxUM/lwW0S48yeZ/4IkGCW6kkKASQD+g/xe+Omif8ABtr8Rvhb4E8KfB3WPjT8TPibZSan4k8TK3kSz2cJYS2OmIquwdCvmFCANu0sXMg8vlP+DZz4qeGvBP7afjDQNYuLS01vxb4djg0N5yFM7wzeZNbof7zIVfb1IhPpX1v/AMHNXwE1vX/2JtD+N3gky23xB/Zt8RWvjXS7mHIlS2SSNbkZHO0YimYf3bc+tfrXB2V0IYZYuyc317eh+48A5LhYYOONSTqS6vp6H0B/wT1/4K//AAM/4KY+Hlk+HXi2KPxLCm+98LaqBaa1YYB3ZgJ/eKMH54i6epB4r6lQYUDviv50P2uNJ+HX/Bdr9p/4cw/sc/DSbwx8YBb2HiPx98U9Oln0XTPChmhDvbzCML592jkjzkw5aPapkBZo/wBB/wDgmN4n/b8+C37Q83wV/aA8NaD8RPAFjYyz2fxYt9RSGdIhuWJWBTN1MzAfu5I0kUZZ3dcFvt0ktEfo/kfbvxk+PMnhDXrfwj4UsE8T/EHVojNbaZ5hjt9OgztN7fSqD5Fsp6cF5SNsas2Sr/gr8A0+Gt9eeIdc1KXxR491qNY9V12eMRlkB3C2towSLe0Qk7YgTk/M5dyXPE/sf20Pwm17Xfh94iiVfiKsjavfaxI2+Txxblti6mrNzkZWOSAHFu21UAiaIn35RhRTAUHIFFFFAHPfE65+y+Db5yduIzn9a8d/4JyW5PwZ8R3+MHVvF+rXAP8AeCTeQD+UNeofHO6+yeAL0g7coRXB/wDBOy38v9j/AMK3BXDajJfagx9fOvriUH8mFAHt4GBTXO0Z9TTh0rN8WagujeGdRvHOEtLaWdj7Khb+lAHwb8I/jb4o+Kfh/wAM+APBMlvb634u1HW9ZnvblGeDTbV9TuZZbiRAQXx5qKqAjc7oMgZNfU/wQ/Y38KfBvU11uX7X4p8Xsv7zXtYImukz1WFcCO3XOfljVfcsea+Lv2VNYP7KHxi+D/iHWx5eheL/AArbaDfXL8LZTXognhmJPAQzqqN6eaD0Br9Lh0oARRhRS0VFI/lsdxAUHqTjA/z+lAEtZviPxHp/hLR7rUtVvrTTNNskM1xd3cywwW6DqzyMQqj3JGK8s1X9qKXx5qlzo/wr0f8A4TzUreQw3GrNObbw7pcg4IlvAp851J5itlkbjDeX1rx/9t3xx4R/YN/Zs8R/Hj4+6refEm48IRpPYaUsK2+lR3sj+Xb29lZEtGJGkZR585llUZbcqjbQB6wvx28V/HT9x8LNHjtdDkGD4z8Q2siWLLxlrKzyk12cZw7GGE4BDyDiuh+GX7NGh+CfEo8Tapdaj4y8avGUfX9bdJrmEHlo7dFAitYif4IEQHjcWPNfmt/wRx/4Oebf/gpv+1dc/CHxj8O7TwHqGv2d1deHb3T9Ve6jm8iJpZbebeqFH8lXdZF+UmMjaCQa+of+CIf/AAUt0r/gon+zLrCtq6at4v8Ahlrdz4b1qUvmS/gjlkFjqB9RcW6qSx4MscwHSgD7TU5UY6UtFFABRRRQAUUUUAFFFRuMFjz7460ASUV+b/8Awchftt/Ez9m7/gln/wAJz8CtYlhbXNbs9P1HxNpDiWXSNOlWbdNC4yEZpkih8zqhkI4Ygj+e79nP/gv7+11+zN4hW90j41eK9ftmcvLYeJ5/7ctJ89QVud7Jn1RlPvQB/Wx+1H4V1G10vSvH/hy0mu/E/wAO5pL+O1gBMmr6e6gX1iB3MkSh0H/PeCA9jXovg/xbp3j3wppmt6RdR3ulavbRXlncRnKzRSIHRh7FSD+Nfmb/AMG+f/BV39oj/grcPEvifx14f+HXhr4eeCtumyXWkWF0t7rupugfYnmXDrHHFGVd8AkmSNR1bH218H8fAP4z6t8N5cx+HvEHn+I/CJPCQq0gN/py/wDXKaQTxqP+WVyVHEJoA9sAFfCv/BeD9hF/2tP2VpvE2gWfn+N/hqJNUsRGv72+s8ZurUepKqJFH96MActX3UOlQygNuB5ByMYz+lc2Lw0MRRlRqK6ZyY7B08VQlh6qupKx/IqkolTeDlXGQfUVHX19/wAFov2F2/Yl/bA1B9JsjB4G8eGTWdCKriK1ct/pNmD28uRgyjski+hr5BPWvwPMsDPCYiVCfTb0P5hzfLKmAxU8NPoxjHJqOU5z7VIxyaY/WuKJwIhpjHJp7dTTGOTWkTWIyTtUTHJqWTtUTHJrZbGkSNzk/Smv9005zk/Smv8AdNWjdDOlQy8mpulRSH9a0RqtyN/ummU92wKZWiNokUnQ0zpT5T/OmdK1RpEjPJpkpwfwp55NMkfH4VojaJETUZ5NSdKjPJrRGsRjnJ+lMfpT3OT9KY/StDZELdTSN0NK3U0jdDVo0RG/3TULnJ+lTP8AdNQsck1ojdCUUUVohksZ/Wng4NMjP608HBrKRD3JAakjbJFR9afCcGoZkS9DUg5FR9KkHIrN7GMh6nIp8ZxTEOR9Kch5rN7GLJlO4U5GwcU1TkU+PvWb2M2PT7wqZegqFPvCpl6CspGEh8fenocNUaHmng4NZyM3uTI2Saen3hTI+c09DhqzkZD+lSDkVHnmpByKzkYyJIm6flUnSoomxUoPFZyMmPU5FSRt+lRqcinxnFZyMZE3WpE+ZD7VEp3CpIn4x3NZ9TN7CQ32peHdYsdZ0W/utL1nSJ0u7G9tZDFNazowZJEYfdKt39evWv31/wCCUv8AwUu8Nf8ABV/9nHXvhp8RIrGP4hW2jy6Z4m0vASLxBYzRmF7yBP7rhiJEH+rc/wB1lr8DgpQ4Pep/AfxW8Ufs5fGHQvHvgbVp9E8VeG5hc2t1EMhuzRuv8cbqSjIeGUkV9Zwzn0sHVVOesH+B9xwdxNLAV/Yz1py/A/aT/g2e/Z1+Jv7F3gr4+/B7xn4Ou9M8K+CPH9xH4a8SzW6QL4jQgxyFOjyoqxQuJSCv79kBJQgerf8ABR3/AIOGfgH/AMExvj3pfw48bjxdrfiq4t4bzUYdBsY7hNEt5c+W87SSxgswG7y49zbcEgZXPqf/AAS8/wCClXhj/gpV8AYvEenCHSvFmjhLTxLoXmZk025I++ndoJMFo37jKnlWr8EP+DvjwZ8JtL/4KNTax4Y8Uavd/FDU9Lsf+Eu0H7AGsLHZAqW0oud4IleFYt0IQgDa28E7a/YqVWNSKnB3TP3yhWhVpqpB3TP2W/bP/wCCu37JmlaT8OU1742aV4V8VeJ7G28V+CNctbG4u5NJjuEIhuZ/LjKxwSrujlhnKb03ggYDL9Ufs2/tBQ/HDw7NDepZ2finRki/tWztJxPbSJIm6C8tZRxNZ3CfvIZRnI3KcOjgfx//ALIn/BIn49f8FAtH0TUvAelaJqNlqKSLby6p4ks7GSG2hkMLzCKaRZWgjdGQmJHCkYwCQD/UH+x/+yrB8Jv2N/hn4Z+H/jrRPFPxM+A2jQ+G5tZtLgyadq0iIrXOk3DLn/RmYgKDl7dlicAMrI2hqfZg6DNFcX8FvjBYfG/wX/adrBdafe2sz2WqaXdgLeaPeR48y2mUE4dSQQR8rKyOpZWVj2afcGBgY6YxQB5b+1trA0T4RarOeBFA7n3whJ/lUn7F2iHw7+yR8NrUjDDw3Yyt/vPArn9Wri/+Cjet/wBjfs3+Jnzg/wBmXI+v7tv8a9k+FWh/8Ix8L/DemYx/Z2l2tt/3xCq/0oA3xwK4L9qPWT4d/Zo+Il+hw9n4a1GZf95baQj9a72vPf2pfh7rHxW/Z78YeG9A+xnVtb02W0thdTGGFmfAIZgGKgjIzg9ehoA8b/ab/ZatPHH7Mek6NJbhjp+iW1iQByAkCx8H1wBXR/8ABO39oa7+M/wZk0TxDOZPGvgOVdI1gu37y7UL/o93/wBtYxkn++ko7Vuan8UfiVLYPbaj8GLyeFlKn+zPFFjOAMdhN5JP5V8b+KfjNrH7Hn7YOi+PLj4e+PvDnh3VHGk+JjdW9tNbixkf/Xs8E8nMD4kB2j5RIBwaAP0vHArnvid8PtO+LXw+1zwvrMcsuk+IbGbT7pY32OYpUKttbscHrzg4NbtpdRX1pFNBJHNDMgeORGDK6kZBBHBBHepKAPKf2UfF1zeeAZvCerQ2Vr4o+H0w0LVYLWBbeGXYitBdRRgALFcQGOVQAArM6dUNfjz/AMHqf7YNhpnwt+F/wM03Uo5NX1TU38W61aRyAtBbQxvBaiQdQJJJZ2A/6YZr9dPj+v8AwpT4j6R8VoP3elQxpofi9QPlOmvJ+5vG/wCvSZyzHBxDPcHsKxfjT/wSy/Z0/aQ8Ra1rnjv4OeAvFeu+I2Dahquoaak1/OQoVcXH+tUAABQrALjjFAH8Zn7MX7QeofsyfFe18TadbzXita3Gm31tFey2Mt5Z3ETQ3EC3EREsJkid0LRsG2uwBGTX9Iv/AAQ7/Yu+F8vg/wCH/wC1T+ynBr/gPTPGkMuhePfh5q+ryalYXMSTGKUQzy/vFuLadBNHIxIkjLJiPzSRJ8bv+DOP9mD4j+MV1PwzrPxH+H9o8hebTNP1KK8tCCclYzcxySpx6u3tX6Ofsi/sm+CP2IP2d/Dfww+HmmPpPhbwxC0VrFJJ5k07u7SSTSvxvkkkZmY8csQAFwKAPUByKKRPuDPXFLQAUUUUAFFFFABTGG7P17/4U+igD8T/APgr38KP2kP2Ov2/vBGjfAjxrJpPwc/az8QpoOraFq2l2utaFouuXLhbt/st2kkaLcRbrkquPMkS5JHAr8T/APgrp+yxJ+x7/wAFIPid8OrbR9R02x0jVQNJE8KpJqNtIiNFdIERUxNu3hY1CqWKgDbiv7Kvjl8DtD+Pfhew0zXI3DaNrFlr+mXUQAm0+9s51nhnjYg4IZSp9Ud16Ma88+N3i74deIfifY2tv4C0f4qfE7w9j7FDBpltc3Gg5OQ017KhSxXPPLhznKox4oA8X/4N6f2O9R/Yf/4JP/Dvw74gsZNH8Ta8k/ifWredNklvNdv5kaSDqHS3WBGBwQUIOMV6l8bviIf2lZNN0v4U2sviDxF4Y1qDUbXxSj+VoWiTxNtlV7nB+074nlheG3DkrKwYpgEdPD+z5rvxkkF38WNZi1GxLbo/CWkNJDokfPAuXIEt8fu5EmyLP/LHvXr2k6Ta6Hp0FpZW1vaWlsgjhggjEccSgYCqo4AA4AHAxQBZjzsXPXFNYbjz9KeOlRtjd15oEz5k/wCCsP7DkP7df7IuteHbWCI+LNEJ1jw1MxAZbyNT+63Hosqloz2+YH+Gv5rrm1nsLuW3nhmt7q2kaGeGRdskMinDIwPQgggj2r+uhmCk4BIH/wBav5jv+CpGteHdd/4KJfGK78KNbyaNL4hkCvbMGhkuFjjW5ZCOCDcLKcjjOa/PeOcDS9lDFN+8na3df8A/LPErLaXsYY37SdvVf8A8Cbrn19aiduvtT9u3imSnH4V+YH44RUxjk08mozya0RrEbIcVCTk1LI36VF1rRGkRjnJ+lMc8U9jk0yTtWiNojCcCopOalc4WoWbNaI1W41/ummU5zxTa0RtEilP86jJwKfL1phOBWqNUM60xzyfank1FJyDWiNojCepqM8mpOlRnk1oaRGMcmmP0pzdTTX6VaNkRMcmmt0NOY5NNboa0RoiJzxUTHJqVzxUTHJrRG6EooorRDJYj/Kn9Kijb9KlBrN7EyJByKfG+KYORTozg1m9jEmHIp6nIpgORT0bIxUGY+PvT0+8KjQ808HBrMwe5OhyPpTkPNMj5zT1ODWZm9yQHBqWM5zUPSpYmzWT2MJEifeFP6VH0qQcis3sZyJYz+tPBwaijfFSg1lIxJOtPU5FRqcinx96h7GZJGcGpVO4VChw1Sq3P1rNowe5KhyPpTk+8KjT7wp/SspGb3J0OR9Kch5qONv1qQHBrORkSA4NUtYTc68ZBXmrmc1V1Zv8AV4z905qqV+a6HQbU9Dr/ANkj9rPxn+wV+0HpXxH8C3OLuzIh1HTpWItdasyQZLWYD+FgMhuqMAw6c/or+19/wRZ+HH/BxTr2hftM/CL4np4D1TxJZ2+n+LNKv9M/tAw3Vsix7WVZYzHcIgRCDlXVEcY3Et+VpRZQVPOa93/4Jsf8FEvFP/BMf9oJfE2lrPqvgvXCkHijQg+FvoATiaIHhbmLJZG6EEqeG4+/4Y4gdCSw1d+6/wAD9R4P4oeHmsJiH7j/AAP0g8Zf8G3HhX4zeIPgN8JJ21rTfgd+zppV82p6u7C21jx9quozR3FxDEyfNDbDYDJIOR5vlR8o0i/qd8LfhZ4c+CHw60jwn4Q0TTvDvhnw/bLZ6dpmnwCC3tIlHyoqqPqSeSSSSSTmqfwK+Nnhn9pD4UaH428Harba14b8RWy3VndQfddT1BU8q6sCGU8qykHkV2S8KBntX6fGSkro/ZIyUlzI8g+Nnw41rwX4wPxL8BWX2zxFBCsGvaKjCNfFtimSEGSFF5CCxgkbGctEx2uGTv8A4bfEjSPi34I0/wAQ6BeJf6VqkZkhkAKMpBKtG6kBkkVgysjAMjqykAg10NeGfEvRbz9mTx1qPxC8P2tzd+D9Yl+0eNNEtYTI8L4CnWLaMcmRVVRcRqMyxrvAMiYloo5L/gpjI138HZNOQ/PqU9vZKD382eOL+T19PxoI0CqMBRgD0r5b/b+srjx58HLLXPDM9rqCo1rrGmXETiS3ufLkjuIW3DgxuVTkcFTXd/Bf9vb4ZfGXw5aznxXofh7W3QLdaHq9/FZ6hYy4G6MxyMpfBzh0BVgMg4NAHtVFZ+keJdP1+ENp9/ZXyY6286SjH/ATV9egoAXrXkX7WnwZtvip8PbyCSFJSYyCCuc8Hj6d/rXrtQ3lql5bvE4BVwQQaAPlf/gmR8ZbmTwzq3wm16d2174egDTnlbc95pLHEJ/2mhP7k+iiI/xV9XDpXwh+2H4V1X9mP416F8WPDlrLNceHrgte20f/ADELGTC3Nv7lkGVz0dIyOlfa3gfxrpvxI8H6Xr+j3SXmla1aR3tpOnSWKRQysPQ4IoAta5otp4k0m806/to7yxv4XtrmCVN8c8TqVdGHcFSQQeozXlv7L2tXngyTV/hfrVxLPqngQRDS7iZt0mp6NLuFnOT/ABPHse3kPd4Nx++K9hHSvIf2odCvfC50j4m6FbT3OteATJJeWsK5k1XSJNv222A/iYKizxjvJbqOjGgD14dKKp+H9dsvFGg2Op6bcxXmnajbx3VrcRNujnidQyOp7gqQQferlABRXmfxq/bC+FH7OfifR9G8f/EnwP4M1XxA+zTrPWtat7Ka8ycZRJHUkbuN3TPGe1Wdc/aF0Pwz+0N4Z+Hd+xtdV8aaPe6toU7SDytR+xtELmFPWREuIZAP4kLn+A0Aeh0UDoM0UAFFFcv8T/i34c+DmhjUvEurW2l20snlwByXmu5D0ihiUGSWQ9kjBY9hQB1FcH8V/wBoLw38Ir230+9nutS8QagC1joWmQG71S+HTKQryqDnMj7Y17uBXItqXxK+P7Y0+G6+FfhKTreXkUcviO/Tv5ULZisgRnDS+ZLz/q0PNdx8KfgZ4Z+DVpcjQ9P8u8v2El/qV1K91qGpyf37i4kJkkOc43NgZ+UAcUAcQ/gH4g/H0iXxhqEngDwzIMjw7od5nU7pf7t3frxGCOsdsARkjzm6V6X4A+HWhfCzwxBo3hzSLHRNLtslLe0iES5P3nPqxPJYkknkkmt1M7BnrjmloAAcioy3XOKkzXC/Hn9ofwR+zJ4DufE/j/xNpHhTQbU/NdX84QSN1CIvLSOeyoCx7CpnKMVeWxM5KK5mdsG+XqMfSvFv2v8A9v8A+FP7DHhMar8RPFdnptxcAmx0qD/SNT1E9MQ26/Ow4I3HCDuwr8tf28/+DmHxD46W98OfADSZPDmmvmF/FmsQB76ZTxutrY5WIejSbmwc7FPNfl/4g8U618TPHd14i8SaxqXiLXtSkMt3qOo3LXNzcN1yzuSSBzgZwOwr5HNuLMPhk4UPfl+B8LnfHOFwicMK+eS+77z72/bz/wCDgb4pftVRX3h34fQz/C7wTchonkgmD63qMZ4PmTr8sCt/di+YZ/1hHFfBSoIF2gnj161IAFwQc+1RyNuY8Y5r8uzLNsRjZ89aV/LovkfjWbZ7i8xqc+Ilfy6L5Deg+lRSH9akYZFQuefpXno8lISoyeTTnbHFMJwK1RskMdsHNRk0+Q8fWoycCtEaRGscmo2OSaeTTGOTWhtEY54qJjk1JI/BqKrRrEbIc4ptK5yfpSVojVEMhyxpjttFOc5c0xzxWsTWI3OeaikP6092xxUTnJ+larc3Q0nApnWnOeKYTgVpE0iNY5NRyN+lP60yRv0qzaJETk0xjk0/rTGOSa0NIjJO1RMcmpJHx+FRVaNkJuAoo3AUVojRD4zg1Kp3CoUPNTKcgVBlIkQ5FOQ4amJ0pwODWZk9ywORTo+9MX7opyHDVmZMkRsHFP6VHnmpByKzMZEkbZP6VJ0qJG/SpQcis2ZyHg5FSRvio0OR9Kch5rNmEiccinqcio16Cnx96zM2iSM4NSqdwqAHBqaPnNZmMiVDkfSnIcNUaNg4p/SszN7kmealjP61CpyKfGcGszGSJulSDkVEp3Cno2TiszNoljb9Kl61AjbTUqPk+tZmLRKjZGKr6mMwhv7rVMp2mm3iebaOPxpQ+IUNJIzOlOmhFzHhh1GKYrbqlilIGDyP5V1q6eh3ap3R9d/8EbP+Cr+p/wDBNn4tjw74nubq9+Dniy5Dapb8udBuGwovoR1x081B95QCAWUZ/o78NeJdO8Y+H7DVdJvLbUdM1O3S5tbu3kEkVxE6hkkVhwyspBBHBBr+Qa+s0vICjYbIxgjrX6M/8EG/+CwMv7Kviux+CnxP1Y/8K51q58vw9q11L8vhq5c8W7s3AtZGPGSBG7Z+6xx+i8L8QJpYXEP0f6H6vwZxUmlgsTL0b/I/e7f0446Uh+YcZ49OKIpBKoYMHVhkY6GpR09K/QOp+pJnzp4m8NW/7KfiCSK7hEvwc8T3eJEbBj8EX0z8sM8Jp88jcjO23lbOBHIfL5D9p7/gj/8ACb9rDw5caR4y8MadrFhMxdQ4aKa3f+/FKhDxt7qc89xX1brGk2uv6ddWF9bQXtjfRNb3MFxGHinjcbWjZSMMrKSCD1BxXjHw61W8/ZZ8b6f4A1y5luPAutTC18GavcSM7WMvVdGuZGJyQM/ZpGPzovlH50UysZ8D6F/wag/B3wN4k+3aP4r+K9taK25NPi8TvDAo9C8SLJj6Pn3r3/Tv+CWFz4Js4bfw94m8X6QlsgSL7P4gvEZQPVvNznjqSe9fdi8qK5n4w/DDT/jV8LfEfhDVp9Tt9K8UafPpd5Jp97JZXSwyoUfy5oyHjbaT8ynI7UAfhb8PfHn7Yn7cv/BQbxh4Y/Zv+NvjnRfgZ8NbhdH1jxnfzjU9Ou7uL/j4W0Nwr/aJC5KqqttCIHZlDKW/RS08F/tOeDreNLb4qarqJiUKX1DSLCcyEDG44hXk9eCK+tPgj8DPCX7Nfwp0XwT4F8P6f4a8KeHrcWun6bZRbIoEH6szElmZsszMSSSSa637LG6jKA/hQB+efxivv2mNf8JXNnqV34P12Hac/afD2yR+CMZjkUdPapv+CNP7SXiXw9rviP4J/EK1tNO1Kxkm1nwuYA6QS2rPm4tUDMxDRyMZAoJ+WVsABK+/7rRra7iZHijYEEHK18W/t8fAq/8AA3iDS/iF4PjS18SeFrxNTsJVGAzpndE3cpIhdGHQq7UAfbi8gU1jyQQOeK4/4B/GjS/2hPg/oXjHSNy2etWwlaFzmS1lGVlhf/bjkDIfdTXZjpQB4r8CGPwN+J+s/C24zHo0iya94OY8KLJ5B9psVPrazSAqO0NxCP4DXslzcJa20kszpHFEpdmY4CqBkn8MV51+0v8ADjUvGfg+01nw2kX/AAmngy7GtaCXbYs8yKyyWrt2juIWkhY9B5gbqgrg/wBqfTfG37bH7C2p6b8FfE2i+EtW+I2lmyGtaxBLI+jW06NHc7Io+ftaAvGAzARuGJyUCkA/kM/4Kf8A7Wuo/tv/ALe/xS+JGoX81/b63r1zHpG+Quttp0UhitIkycBFhROBxkk9zX6O/Cjxh+03/wAFB/hX+y542/Z0vPDni/WP2PtBiE+mTeKrUeI9TvH2LcGWzZ1YWrwRR2i7m3SqJD/GAPPP2q/+DQX9p74F2EuoeCZvCPxbsEXcYtHvPsOoLj/phc7EP0SRyfSvc/8Ag2Y/4I6ftJ/sy/8ABQeD4q/EHwhrXwu8E+GNHvrTURrDJBNrhniKJbpFu3FEfZMXYBAYVwSSKAP3p/Zg/aA039qL4F+HvHGmWl/pQ1u2ButMv4WhvdGvEJjubK4jYApNBMskTgj7yE8jBrr/ABT4t0zwXoN5qms6hZaRplknmT3d5MsMMC+rMxAH4nuK8oP7QH/CZanfad8HvD1n4pup7hzfa+5+yeHbefhWd7hQWu5QFUFYA+duGkj61p+F/wBl+DU9ftfEPxC1afx/4jtH861F3CItJ0p+xtLIEojDjEshkl4+/jigDNPxm8Y/HkND8NdJGjeH5uD4v8Q2siRSqerWVkSstxwciSUxx8ceYOK6P4Zfs3aF8PdebxBdy6h4o8YzIY5/EGtSC4vsHkpDgCO3i/6Zwqi+oJr0dBhBn0paAET7o7cU1jwcDPNPqpdzpbRSSyMscaAszM2AoA5JPYY5pMTJixJ6isrxf4v0rwD4bvdY13U9P0bSNPQzXN7fXK29vboByzu5CqPqa+Dv2+f+DhT4U/stSXvh/wAArH8VfHEBaJotPuAukafIMj9/dgEOQcZSIOexZOtfjL+2H+3x8Wv29fEn234keKZ7zTIZPMtNCsQ1to9jzxstwcMw6b5Cz8da+ezTiXCYNNX5pdl+p8rnPF2CwMXHm5p9l+r6H6h/t5/8HMHhvwQb3w58BdMi8ZaupMTeKNSjaPSLY+sEQxJcEdQx2R9wXHFfkX8e/wBoHx1+1T49k8UfEjxXqvi3W3JKPeSZhtATnZDEoEcSf7KKB6561yCII+F4FNlwh9a/OM04hxWNdm+WPZH5HnHFeNzBuLlyx7Ij5Z8A8dqtaWM3BPdQaq8Z74q5pSYV29TivAqbHzNXSBb6VGeTTnbHFMY7RXJE40hsjfpUROTT3b9ajJwK1iaRGucn6Ux2xxTjyaZI36VcTVEbnJ+lMc8U7rTGOTWkTWKGsdophOTTnbHFMJwK0ibJDHO0moyepp0j5phOBWkTSI1jk1G74Bp55NRyNgmtImqIycmmMcmnk1GeTWsTaI12xxUTHJqSRv0qImtImqGu2OKY7YFOY5NMc8VcTWI0mopG/WpGO0VE7bjWiNojajbqakqNuprSJpEZI36VETk0+Rv1qMnArWJshjdTRR1oqjQlU7TUsZyKhBp8bc/SszNlhDkUvSmxnNOrMwe5JG2SKk6Goo2/SpetZsiQ9TkVIrZ4qNDkfSnIeamRjIkRsHFTKcioAcGpUb9azkZNEiHmng4NMU7TTwcis5GMiVG/WpAcGoY3xUo5FZyMiQHvT425qNDkfSnIcNWT3MmicGnqcio1bNOQ81m9zNoljOc08HBqIHBqQHNRIyaJkfdTgcGokb9KlByKzkYkgNPRs/hUKNg4p4ODWcjOSLAORSg9vUYqNG/Wn1DdjNGXMnlTFfQ0VPqsWJA/94VWVsH2NdcXeNztjrFMljfFQatpUerWTRyKCrAggjjH+ev51JUkT4PI4ohJxfNEcJShLnjuj9f/APg3/wD+CxkuutpX7PnxZ1Ytq0CLa+Ctcu5Mm/jA+XT5nPWVQAImPLgbD8wUN+wm8/h0r+PTU7Ni8c9vLNBdQOs0EsTlJInUhldWHKkEAgjkEA5Br96/+CE3/BYkftmeEIvhZ8Rr+JPi34atcw3czBD4qs4wP369jcIMeag5IG8fxbf1XhrPliYKhWfvrbzP2zhHieOMprC4h/vFs+5+kKrkn1xisT4hfD3R/il4K1Lw9rtlHqGk6pCYbmFyQT3DKwwUdSAyupDKyqQQQDW2gyoOenr2qQdK+w9D748c+DHxB1rwD40X4ZeO76W+1qOB5/DmvTLt/wCEosk+8HIwovYQQJUAXeMSqArOsfsSHKDnPHWuP+NXwe0742eC30i/lurKaCZbzTtSs28u80m8TmK6gfHyyISevysrMrBlZlOB8B/i9qfiDUb/AMF+MorbT/H/AIaiV7tIRtt9atSdsWpWoJ/1LkYZOTDJlGJG1nYHqFFInKD6UtABXM/FTwTD458J3VnKm/ehC8ZycV0UjYJ5zjt6V4r4i+J2t/tF69feFvhzfy6XoWnzm017xpGgdYWUkSWmmhhtluc/K8xBjgOQN8g2KAfOf7FHxxsf2b/21vE/wWubwzaV4olOoWpUZg0jVdoJtXcfKklxEu9Y853Q5wDIM/fKfdH0r4x/bL/Yx0vw18JLSHwXbNok2hyC+sbmF2a4iu1cSi6eRiXkmMoDs7EljnJNe8fscftFR/tO/AjS/EMsaWut25bT9bs1yDZ38XyyqAeQrcSJ/sSLQB6sec/5zXi/hfPwC/aQvfDzgx+E/idNNq2kEn5LHWVXzLy2HoLhFNyoz99Lo9xXtI6VwPxp8L+CPiytl4H8WXti17qkg1HTrAakbTUZWtmVzNblHWYFO7RkYDEE4Y0AZfjr9pvTtH8S3Phrwpp17488Y25Am0vS3URacTwPtl0f3VsO+GJkI+6jV82/8FFv2mvBv7DfwLT4mftSeJbnV9Hur1LHSvAfhiE/YL66IZ1iKuyPelVQszTukIAP7oHG767+FWh+FPCnhY6R4Ot9FtNJ0md7R7fS/L8uCZMCRH2f8tQfvbjuyeea/nK/4PMv2xdN+Lv7XngP4TaJqsV/D8L9Lnu9ZjgkDx22o3rIRC2OPMSCKJiOo8/FAH6zeAv+C8vwV8d/sf8Aw/8AjJ4QuBpnw6vfHVl4A1+01OBLK68MSXMTBGaNGZAsTNBIdpZTCZCOUwPvNclQfvGv42v+CUHiz4dftA+PfDH7M3xoi8cP8PPiH4qik0u58M6slk2la5cxraQXc8LQSC6UArGAxHlCSRgG3MD/AFkfsWfCPxn+z3+z9pHgLxn4h/4TC48GD+ydM8QuNlzrGnRhRayXKc7blI8ROQSHaLePv4CbsJ9z17d9M+lBJ7YHvXh37ZH/AAUI+E/7CHhcah8Q/FFrp97PGZLPR7UfadV1HH/PG3X5iM5G9sID1YV+M37d/wDwcEfFn9qtrzQfAAuPhT4KnDIxtbkNrd+nT97cLgQg/wByHnnHmEcV5OY5zhcFG9WWvZbniZtxBg8BFuvJc38q3P1W/b4/4LI/Bz9g1LnS9U1ZvFfjiND5fhnRHSa7RucfaJM7LZen3yGwchW6V+LP7df/AAWE+NH7e0t1pup6t/whngaYnZ4b0KVo4p0yOLqfiS4OByDtjz0TvXyytsFlklZmkklYvI7sWeRiclmY5JJPJJPNSM6FT1zX5xmnFmIxL5KXuR8t/mz8kzvjnF4xunQ9yHlv94yKzjsYQsahUHAAGABSE5NGPypkj4r5R3k7tnxEpOTu3dhI+KiJyaUnJpjNwapIqKBmzwK07QeVbID161nWsXnTKvvWoePwrOs+iM672QdaZI36U8jIqF2ySPQ1ikYJDScmmM2eKV2xxTa1NYoRjtFRO24093z+FRE5NaI0SEY7RTCeppXOT9KY7Y4q0bRQ08mmM2eKf0qKRv1rRGiQ1jkmo2bPFP6VGeTWiNYoa7Y4qJmzxUkrbaiJya0RrEa7Y4pvSlc5P0pjtjitEbRQyRv1qMnApznJ+lMdscVojVDetMY5NP6VGeTWiNYjXbHFRMcmpJHwaiPJq4mqGyHOKYTgU5jk0x3wDVxNYkTtk0xzxTjyaY7ZNaRNUJRRRVlj1ORT4zg1Eh5p4ODUyIaJ1O4U9OpqKNs1InWs5GUiRGwcVMrZFQdKkjbJ/Ss5GTRKn3hT+lR9KepyKh7GUkSKcipI2/So1bPFOBwazZkyfrT0bIqJH3U4HBrNoyaJUbaamVt1QA1JC2Sazexi0Soeaf0qOnqcioM5EsbZP6VJ0qBG2mpkbcKzMmiRTkVIrZ4qFPvCn1mZvclBwakRv1qFTkU5GwcVDRjJE/Snqcioo2zxTwcGsmjNq5Kr4NSq2agzmnIQBWbRm4jruLz4Co69RWWetayNkVQ1CHyps9n5rak+htRn9khRsHFPqOlRsHFatGziTK+6pdC8Raz8OfGmk+KPDOp3mi+I9BukvtOv7Ryk1rOhBV1Ptzx0IyuCCQa9OVsjBq6FaVGanDRovD150KiqU3Zo/o7/AOCO/wDwVX0b/gpD8Fmg1RrTSfin4ViWPxFpKHas4+6t7bjqYZCOQPuOSp/hJ+ywAB/Wv5G/gd8dfGH7Jnxq0T4i+AtTfSvEugTeZE2C0V3GcCS3lX+OKRcqy++RggEf0wf8E4f+ChXhL/go1+z1aeMPDzpaapa7bTX9GkcNPo15ty0bf3o25ZH6MvuGA/X8hzqGNopTfvrf/M/e+GOI4ZjQUZv94t/8z6GVwRx2rz749fBmT4qafYaho97HoXjbw1K134f1jyt/2SUqA8MqggyW0wASWPOGGGGHRGX0BeFxjnHrT16Cvoj6pX6nAfAz40j4t6LeQXtk2h+LvD0wsfEOiySb30y527gQ2B5kEi4eKUDDoQeCHVez1K/h0awnurqaK3traNppppXEccKKMlmJ4VQOSTwBk9q84+PHwk1e+16x8d+BzBb+O/D8RhEMr+XbeIrLdufT7g9gTkxS8mGQ7uVaRH5rS/BHiH9rK9ttU8e6Re+FfANu6yWXgy6ZPterSDkTarsLJ5atylqrMhIDSFjiNGMY+s6v+2izQaZPqHh/4RSZE2pRlrbUPGS/887Zhh7exP8AFNxJMCQmxDvb2jw34Y07wboNnpWk2Nrp2madELe2tbaIRQ28ajCoiDgADHAGK0Yo1iiVUUIigBVAwAPTFBIU57mgPQyPGXhuLxPoFxayqrLIhHI9q+Jfhx4il/Yh/bR8q9c2/gn4jyx6bfEnEVnfZ22lyc8DcWMLH0kjPRK+wvjd8bfCv7PHw11bxf401yw8O+G9GhM95fXb7UjUcgDuzE8BQCWJwASQK/m3/wCCw3/BXPxJ/wAFKvHp0/wXDf8Ag/4YaHcCWwiD+VqGsyocrdXJHK8gFIgfl4JLN08/G4+jho81R2PNzDNMPg4c1aVj97f29/8Agqd8Ef8Agmx4NbVPin4zs9Ov54y9joVni61jUumBFbqd2M/xvtjHdhX4kf8ABSvx/wDtZ/8ABXbRH/ae+HfwT1n4KeBPgjod9caN4ie/msPFmu6bMNtyYmUq0kaxCaTEaBFVpgssjHB+s/2VP2JP2ff+DjP4I+Fviv8AFmDxHF8ZPAWnReDvFE+h6r9gkupYMvBdSLtbcZEYsr+pZf4AB7tqn/Bv1P4WDv8ADr9rP9qvwaxj8kW954tGs2DLtxtaCVFDJjOVLYIOPauulUjUgpR2Z20a0KsFUg9Geh/8EF/2ZPhH+z7/AME+PDGr/BrxB4m8T+HviWieKL7UtbvjcXFzfyRrHPujGI4XRozG6qPvRcs5GT9C/Fb9jL4RfG/Q9Q07xh8MPAfiSz1SRpbpNQ0K2nM0jHJkLFM7ySTvyGzzmvn3/glX/wAE9bP/AIIq/sn+JvDPiX4wSeKfCzatNrovNWtYdIsdCRwFdUzI2wPtVmy+3fnaoJJPzZ+3l/wcx6F4UF74c+AOkxeK9VAaJ/FWqxPHpVueQWt4eJLgg4IZtidD844rDGY6hhoOdaVkcuPzPDYSDqYiSSPZIf8AglJ+wx/wS0+JI+O914S8OeAdS0WQy6bdaprF3cW1nOR960tZJXDTYPyhEZlJyoBFfI/7d/8AwcreKPiMb3w58BNLl8K6S4aKTxTq8CvqU6ngtb25ykA7hpNz99qHmvzl+OPx18bftPePpfFPxE8U6t4t12UnZPfS7ktlJz5cMYAjhT/ZjAHrmuVP7s8dq/PM24zqVG6eEXKu7/rQ/Kc88QqtW9LAe6u73+XYt+J/EWqeP/Fl7r3iLVtS13XdSfzLvUNRuHubm4YnO55HJJGSeMgDsKpsApIHAFI8hbn1plfDVas6kuabuz84rVqlaXPUldis240hNNZ8VGz56VCRmkOZ/wAqjPJNHWmu2OKtI0SB2xxTaKfBGZZFUZ5NXsXsi3pcO1S56twtWScCgARoAOijApjHAJrlk+Z3OOb5ncRn5ph5NHWmO2TTihxQMck0x2xxSsdoqN2/WtImiQ1jk01jtFLTGOTWkTWKEJ5pjHJpXbHFMY7RVxNUhHbHFRMck052/WmdKtGkUNdscUwnApTyabKcLWiNkMdv1pnSlJyajZs8VqjRIQ8mmSN+lOY7RUTtuNaI2ihpOTTHOT9Kcx2imE9TVo0ihrtjim0rHJpK0NiGRskj3ppOBStyx+tRs2eKtGkUITUbvTycCopH3VojZIaTyajJyae7YFMrRGkUIXANFIXwelFaI1Q9TtNPByKjHIp6tnioMpEkb4qUHIqBGwcVMjZFZmciRTkU5G2mmJ0p3SszJ7k6ncKcjYOKjibNP6VmZyJQcGn5zUY5FORucVmYNEsb4qUcioAcGpUfdUNENEqtninKdpqMHBp+c1mzFkyNuFOBwajhOSakrN7mTJOtPR8EVEjc4pwODUSM2iwDkU9WzxUMbfrT6zkZkgODUnWolbNORsHFQ0ZNEiNtNTK+6oKesmDUWMmiZTtNPByKiV91ORsHFZtENEiNtNOuIhcQ4PBxkUynCQ8Z6CoV0yOt0ZrDa5U9RRVvULbePMXqOoqkGwxHvXVF3Vzri1JXQ8HBp4ORUdFDVwaJCflwehr0/wDYg/bW8Y/8E6/2h7D4g+D5HuLZtttrmjNIUt9bsy2WicdA45ZHxlWA6gsD5ajYOKdKiTRlTzkYrrwOLqYWqqtN2aO3LsdVwddVqTs0f1f/ALJ37VPhH9tD4E6F8Q/A2oJf6FrcO7axAnsZhxJbTIPuyxtkEH2IyCCfTY/uD6V/L/8A8Erf+CmXiD/gmF8evt7C81X4a+JpUj8TaMh3EKCALyBennxgnj+NRtOPlK/0ufCz4o6D8bPh3o/ivwtqtprfh7xBaLeaffWsm+O5icZBB7ehHVSCDyK/Y8ozWnjaKnHR9Uf0BkWdU8xoKpHSXVf10OlphwqnjvTgQB1prOQcDua9Zux7bFbnGBXkn7Zn7aXw+/YR+DN945+Iesx6XptvmO1t0+e71SfB2wW8XWRz6DAHUkAE15//AMFLv+Co/wAPf+CZ/wAK21fxRP8A2r4o1RGGg+GrWQC91WQcbv8ApnCG+9IwwMcBjgV/OB+1z+198Rv+CiHxun8dfEjU/PlyU0zSoCy2Gi2+TtggjOQB0LMfmdgSx5AHi5vnNLB02nrLsfPZ7n9HL6bu/f6I7z/go5/wUx+If/BUr4qC/wBfaXw74B0udn0LwvBNugtV7TTsP9dcFerkYXlVAGc+J22kxWdr5YUcDFSWdmlpGAo4x24qZSAeRkdq/IsyzSti6nPJn4Tm2c4jHVXUqSv6HsP/AATZ/b/8U/8ABMH9o2fxhomnnxB4b123Wx8RaEZvJ+3whtySRvyEmjOSrEHhmU8MTX6g/Fj/AIOofh7F8OTL4B+HXjLU/Fk0RCW+uCCysLR8Yy7xySPIoP8ACqrn1XqPxbZVc5wMdKQRqhyeM16eD4pxeHo+xgz2cBxpjsJh/YQs10vuj139rz9u74rft4eKhqPxK8VXOo2UUnmWeiWgNvpOn88eXADgtjjfIWfjk9q8jUCMYUYIoU9+cU1n9K8PFYutiZ89aTbPnMbj8Rip+0rzcn5js569aKZvNMZ+vrXNys4krkjPjpTWfjmo85oppD5RWbdSU1nx0pvWrSNFEVmycUlFIzYNUkUkLV7T4PLTeRkt0FVrC3898k4Uc/WrrPngDH9KyqS6IxrS+yh0h2e9Rk7qKaz9RWaTRikDP1FNopjvgGqSNEhHfmoycmgnJprtjirSNEhGbPFMdscU6mMcmtEjWKEpkj4pWfHSo3bJrQ0SGnk0xmzxTmO0UwnJq0axQjHaKidtxqSU4WoScmriaJCMdophOTSucn6U1jtFao1SGyPg1EeTTnbcaYx2itEaoa7ZNMdscU4nJpjHJqomsUJ0qN2xzT3baKhY7jWiRskJ1pjHJp9RucZq0XHcZI36VETmnu360zpWsTZDHOT9Ka5wKUnJpjnJ+laRNYoSiiirLHJ1NPRtpqNTg08cioZDJM85p6PzUaNkYpyNtNZvcyJwakHIqJG3CpF6CokYyHI201Mp3CoOlSRtk/pWciGiVGwcU/pUdPVsioexk0SKcino+DUSNg4p/SoMmicHIpyNg4qJGxzUnWszNolU7TmpEkz9KhRsinKdprNoyaJxyKejZGKjU5UfSlBwazM2SqdpqWNsioRyKVG2ms2jJonp6nIqNW3U4HBqZGbRIjbTT85qIHIp6tyKhozaJFepVbNQUqNtNQZuJYBwaeDmolfdS1m0ZtEgJqpeW3l/OvKt+lWlbPFKeQQe/UU4vldxxfK7mX0PXNPVs1JdWhhywGVPT2qCujdXR1XUkSUUwHBpQ+TRYOUSe3FzGUYZBBHNfb//AARH/wCCul1/wT4+JieAvHl7cTfBzxRdAmZyX/4Ra7c4NynfyGOPNUdPvjncG+I6jvbRL23dHTIYYr1MrzKrg6yqQ+7uexk2c1svrqrT+a7o/sH0rUoNb062vbK4gvbO7hSaCeFw8cyMAVdWHDKQQQRwQa+If+CvP/Ba3wf/AME3vDEnhzRUs/F3xd1WDdYaGsuYtMVuFubwjlE7qg+d8cYHzV+D/wAK/wBv79of9n7wCPCXgb4v+M9A8NIhjt7CK6WWOzX0hMis0XXgIV9q8rntL/xH4ku9a1vUL7Wda1OUz3l9eTNcXN1Ix+Z3dyWZj7mvusXxdS9jegvef4H6XjeO8OqHNh0+d9+hs/FT4o+Mf2pfi5qfj34h67e+JPFOtSb57q4biNQTtiiQcRRqOFRflA7ZqCJBAuFwMelMjJj6YH05p3mevWvznGYmriJupN3PyfH46riqjqVHe5IX496PMqPzPagvxxXJys8/lJPMo8z2qMvx70eZ7UcrBRHE5NFMZtwpKOUfKSU1nx0ptFCiCiKWyKSikJxVFpC0hOKYTk0E5ppXGoik5NSW1sZnHp3NJbRGZ8D8TV6OMQjapzUTly7E1JqOiHKoRdq/doLZHNIx2imE5Nc6T3Zy2vqxWOTTScCkZ8dKjeTNWkUkKzY5phOTRTXbHFWkaJA7Y4ptFMZs1aRqogxyaa5wKGO0VG7YNaJFpCM3H1ptB5NMY5JqomqQMcmmO2eKdUUjYJFaxLSGs2aYzcGndKjJya0iaxQUx3z+FK7Y4qJjkmrRqkITk0x2yaV2xxTelWjRIa7Y4ptKxyaStDVIikbBIplOkOWNNPAq0aoY5yaY74BpxNRSN+tXE1iNJyajZs8U/pUZ5NaRNIoRjtFMJyac55ptao2RG3U0UN1NFM0Q9egqRWzxUa/dFKDg0mQyVG2mn5zUfWno2RioMZIkjb9Kl61AjbTUqPuNZtENEqHI+lOQ4NRg4NPzmszFk0bZJp4ODUCPUoORUMiRLnNPVs8VCjYOKf0qJGLRKDg1Kkm6oAcinIcNUNXIaJ6epyKjVs0oODWbRk0So201LG+6oetKjYOKgxaLAODTwc1CjZ/Cng4NZtEWJEbBxUiNg4qIHIpUODWbRm4k9PVs8VEj7jTqlohokBwakBzUStnilqGrmbiSA4NSK/PFRK2eKWpaM3EnVs/WlqBW21Kr+tQ12IasSZBXB5z1zVS6sTy0fIHOKsg5o604yaHGTWxmco3Sng5FXLizWcejevY1SktnhYgnANbxmmdKkpC0oODURbZ3pyv607DJPM9qcDkVCH59qd1pcrE0SUVHRRysXKSU7I21DTLm4+zofQinGLbsOMG3ZE6yedNHFFHJLNM4jjjQFmlYnAVQBySewGTX0Z4N/wCCSX7R/j3wwmr2Xww1S2tZVDxR6hd29jcSKRkHyZXDjj1UV7V/wQ++FnhXwN4B+J37SHjDTjq8Pw0Q2ujWwjWQxTCLzJpkVvl87DxxoT03MeOCPQv2if8Agut4+8S+FGn8BeDG8J6XdO1vFreoq107tgkhPlWFXA55349K4MbjZ0qvsaEOZq13LZH9S+E/0d8XxXhliIq6lb7SSX36t27JnxV40/4J2fHz4fKzap8IvHKRx8tJbaebxAPXMJavLvEvg3XPBsxj1rQdd0h14K32nTW+PxdRX7U+KP8AgqJD+yh+xz8ONZ8ZyT+L/iR4t0SHUFsYylq0xcbjNKVXbHGMgcLkkHA4OPJn/wCC2HxG8Kix1P4jfBGS38G6swEM7xzxlkI/hadCjnAyAduR6DmualmtWXxUl8n+SaPqP+JVMZi4yngb2UnFXlH33F68qdm9ux+S8epwSkBZY2PoGBp5lz1OBX9E3gj4YfA79sr4X6X4tt/APgXxFpGuw+bHLcaFb+cpyQyP8uVdWDAgnqDXHeM/+CNP7NnjYu0nwzsdKkcH95pV/c2ZX6BX2/pWS4jwibjVjJP5P/I/KMw8EMXh6kqSqpSi2mmmmmujPwKG0jOc0nFfs/4z/wCDdv4Ja6rto+ufEDw6xztC38V2in/dkjz+teTeNP8Ag2nXLt4b+L8gPOyPVdCDZ+rRSc/9812U85wE9qlvW583iPCbOafwWl8z8uQ2TxUtraNO2SNoHc192+Lv+Dd341eHnZ9J8QeAPESLkqq3k1k7fhJHj/x7FeZ+M/8Agj/+0l4LVjJ8NZ9Uij/j0rUbW8B+iiQN+ldf1qhP+HOL+aPnMVwJntDfDt+h82RqkS4X5gKR23d67zxp+yn8VfhwW/t34Z+PNLVOrzaHcMgx/tKrA/nXnt/K2lXBivIpbSUcFLhGib6YcA01SlLVanzlXIsfSv7WjJesWSUx2x1qJbyOYZjZWHsc4oLbqORroefLD1Iv3lYVmzSU0vjNNJzRyi5H1FZs00nAzQx2imE5NUkWogTk0jHaKRnx0pjSZNXY0SB354pnWg8mmM2eKuKLjEHOT9KQ8Cio5HwatI0SEdv1plB5NMZs8Volc0SBjk01zgUMdoqN2/WrSNooazZprHaKWmMck1oWhCcmmO2TSu2OKbWhqkIx2ionbcafI36VETk1UTVBUZ5Jpz9KY7bRVxNIjZHxUZOTSyNmmMdorWJqkNZs8U0nApScmmO2TVo0ihGOOajZsc05z2qJmzxWiN0hCcmiiirGKjYOKmVsioKkjPSpkJolRsHFP6VHT0OR9KzkZNdSQHIp6NniokbBxT6zkZNE6nIpyNg4qGNufpUvWs5GciSnxtzzUa9BTlO01DMifrT1bPFRRtuWnVBm10JQcGn5zUStmnI2Dioe5k4kiNtNTK+6oKcj1DRm1cnU7TTwciolbNOU7TUNXIcSRGwcVKr54qEHIpUbaagycSenq2aiR91OrNozaJVbYc09JMmolbNLUNWIaLAORQDg1Cj1KrZqWrmbRKDmlBwaipUbBxUtEuJMG3GlqOlBwahozcSVXx1pytjmolbdS1LRDiThtxoYBxyMioQcGnK240rCtYin04PyhK57Gq0tq0PbGK0A5FLuDjB5+taKbW5pGs1uZNLuIrQmso5P9k+1RSaUf4XDfXitFOPU2VSL3Kvme1Hme1PksZY/4T9RUbKyHlWH1FUrPqXZDy/Ayao69deXbMfVatdayPFM/lWjknt+f+cVvh4c1RI6sFS56yij9yv+CAfwztLf/gmXp7ahZW11B4q13Ub+aG4hWSOdBIsShlIIYfus4NeQ/wDBwFfxxeJvhb4UsY4beMx3N0IUQIiszxRpwOB0avsj/glZ4KPw8/4JzfB/TinlyP4divZBjGWnZ5z+klfC3/BWe6k+Jf8AwU/8C+G4W877Fb6bb7OuHe4d2/8AHSv4V8PKq6ubVZ9Ls/0t+j5g0s1wyk7RpU5Sfk1Hf8TlP2VvBUX7Y/8AwVDsbXVI/tnh3wNAFS1mGYlttPRYYowDwFM21iO+W9TX6P8A/BSHwHp3jP8AYc+JFtfQwmOx0Se+g3LzFNAvmxOPQhlHP1r4X/4IP2qXP7WnxLu7gAXkenuFU9RuuRvx+IFfZ/8AwVi+IUfw5/YN8dyO4R9WtV0uIA/fad1jIH/ASSfYVzYypN46EI9D7zxArVJ8a4LAYS6jT9kopebUm169TxL/AIN9/FdzqX7NPi7SZ3eSDStfzAvaNZYELAfipP4199cnrjPtXw//AMEEfAUvhj9kPUdYmjx/wkevTXEJb+OONEhz/wB9I4r7gHSvIzVx+tSsfnPidUpz4oxsqO3O/vsr/iFFFFeefBhRRRQA5Z5EGFdgp7ZrJ8R+B9D8YQtFq+iaPqqMMFb2xiuNw9PnU8VqUVrGvUT91tGbowe6PGPG3/BOn4EfETe2rfCTwNLJJnMkGmpavz6NDtNeT+Mv+CFX7OPivebbwxrmgSN0bTNcnRUPsshdf0r6/ortp5vjIbVJHn18kwFb+LRi36I/Ojxn/wAG4Hw51Mu2gfEXxxo7HJVLy3tr5R9cKhx+NeUeMv8Ag218YWZdvDvxS8M6iBkqmpaVNalvT5kaQfpX63UV3Q4lxsd5X9UjwsRwFkdbWWHS9NPyPw58Z/8ABBD9ojwuXNhY+DfESLkg2OtrEzfRZlTmvJvGn/BL39onwIHN/wDCPxbJHGMtJYRR3y/X9y7Gv6H6VSVPBIPtXbS4sqr46cX9/wDmeBifCfJamsOaPo/8z+YTxf8ACTxh4BlZde8I+KtGePr9t0m4gA/FlFcz/aEIkKlkD9wxwf8AGv6opXM6FJD5iEY2uAyn1yDXF+Mf2dvh98Q0Zdd8C+DdYDjDfbNGt5Sf+BFCf1rvp8WUH8dNr5r8jwcT4NUH/Br29Vc/mTL5PY0F9hz6iv3++MX/AARu/Z2+MGhXVsPh9YeFr6dT5Wo+H5Hsbi2bH3lUExt2+VkwefrX4wft2/sZa9+wh8f7zwXrNwup2M0QvtH1NIyianZsSFbbk7XVgUdc8MOOCte5l+aYbF3VJu66NWdvvZ8DxP4fYzKKXt21OG11/keNu20knvUXWnBDjPXH41G7ZNem462PhEn1EZs8U0nApajd/wAaaRokIz/nTCcmgnNNdscVaRaQjNnimsdopajPJNaJGqQE5NMkfFOY7RUTtuNUkbJWEJyaaTgUtMdsmrKQlRu3enO2eKiY5NaJGyQnWmMcmldscU2tC0hGO0UwnJpWOSaSrRqiKRsEimUrnLmkPArRGqE3AUUzrRTK5R6tkU5TtNRg4NPzmgTJAcipEOMVErZ4qRTkCsyJEoNOVufrTEORS1m0YtEgODUqN+tQq2achw1Q9yGienr0FRI+TTulRIycSVTtNSxtkVCORSocNUNXMyenqcgVGpyKWoaM2iVTtNPByKiVs05GwcVm0ZSRIjbTUiy5FRU5XwaTVyLXJgaepyKiR8mnVDRm4kgODUiPzUStnilrNohosA5FKp2moEaphyKhqxk0SA5FKDg1FSo2DipauTyk6Sc09WzUFKp2mpasZuJPnNOV8dahV/Q05ZMmpauS0TdaKjpQcGpasTykqvjrShgTUQfnmndalohxJKKjopcouUlBxS+Z7VGHwOlHme1LlE4kokx60u/cKi3il60bC5R7FcHhfyrnvFsH25BbxqpknIiUY6luB+pFbrnCmtL4FeEW+JP7T3w78PKCx1nxLp9rgdcNcJnP4Zrqwmk+btr9x7vD1B1cfSh3a/M/pY+EPhQeAvhD4T0NF2jRtEs7Lb6GO3RCP0r4p8Y/8E+/iR4v/wCCrdj8Vbyz0ubwNFqEU6zJeq08EcVpsQNEcEkyAHC54avvycKJnCAKgYhQOgFRTTLbRM7lVVRksxwMd/bH+Ffl0cdOFepOH2rn978NZ7ism53g7c1SDg7q+j3tqtT8rPi98D/id/wTE/bV1X4oeA/C934t8DeInneaC2R5VSKdw8lvJsDNGVcBkfaQQBz1FZvxr+IHxp/4LDeM/DvhPSPAmo+CfBem3Aubq5ulkaCOQjaZ5JGRAxRSQsaAklie+R+oHwq+L3hr44+GJNb8Lapbazpkd1NZ/aIDlDJE5RwPow69CCGHBrpxGqcBVCg9AK6lmUo2c4LnWl2foEfEmrRnCticJGWMpRUY1ZNpqysm4bOSWzZwPwT8JeFf2evh7oPw+0rULCJdAsI7dLd7mNLiUY/1jKSDlm3MSBgk13wdW5R0cDuDXkH7N/7L/gb9p347fGvX/GvhTQPE8VhrtnoFm2o2cdy0CW9hbyMELAlBvuG4UjkV6jef8EtfhDEjNo2k694YkP3W0XxHqFgEPqFimCD/AL5r7vBeGmIx+GjjKdVe+r2aZ+V5rm2Cp4uccXUn7R6yfKmm3q/tJ9exeJzzRXOSf8E69W0Ak+HPjV8UdLA+5Hd3VpqkY9OLi3diPq35VRu/2TPjr4eRm0v4s+FNe28rHrHhIxs3sZLe4QD/AL4rixPhbnEPgSl8zmp4/LqivHEJeqkn+TX4nY0V543hj9o3wqCt14N+GvilV6vp+v3Wnyt/wCW3dR/32frVG9+LXxP8MRZ134DeOI0B5k0nUdP1NAB3C+ejn/vjPtXhYjgfOqWkqD+R1QjTmr06sX/2/Ffhe56jRXkLftpeGdHjY+IdA+I3hRl+8dU8I6hGg9cyJE6Y981d0L9tr4SeIpxHbfELwslw2B5NzfJayj2KSFGB/CvErZLjqTtOlJW8jb6hiOXnUG13s2vvPUaKo6L4o03xLbCbTtRsb+Ijh4J0lH/jpNXQ4z249DmuF0qifvKxyuMluhaKOtFZiCiiigAooooAK/KP/g5snsY7v4MpsX+1GXVGLD732cG3AX6bia/VyvxX/wCDk3xx/a/7YngjQVfK6B4TE7r/AHXuLmVs/wDfMSV9RwlByx110TPivEGrGGSVb9bI/Pwkkdc4ppOKPur9KjeTOa/R3qfynyis2OajJyaKaz46UJWGkIzZ4pKOtMY5JrRI0igY5NNZttDnAqJn44ppG0UK7frTKOtMdsmtEi0IeSaR22ihjtFRu361aRskNZ91MdscU6o26mtEikFMZs8U5jtFMY9TVxNooY5yajZs8U5mxzTCcmtImoVG3U0rNnikPAq4lpCbgKKZ1oqy+UehyPpTlO01FC24mpKT2E9yQHIqSKTjB7VEvQUoODWbRkWOtKjYOKZG+4U4H9Kghok6U8HIqNTkU4HBrNoxaJEbaaljfdUIORSo201GxBYBwafnNQo+408HBqJGbiSI201LG27NQg5FKhwahq5mT09WzxUStk06oM2iUHBp4OaiVs8UtQ1YholU7TT0eolbPFLUtXMmiwDmlU7TUKv+dSK2aholxJQcigHBqOnq2eKloz5SVX54qQciq9Krbahq5m4k9OV8dahD5PBqQcipasS0SdaKjpyvjrUtXJ5SQP608SZ6YqENk0tS1YhxJ1bcaWq9OD4FS1cXKTUu4iohJ704ScUuUmxJ5ntRvFR+Z7Uu8UcomiUciio+tFHKLlHSnEZr2/8A4JG+DT4//wCCn3wntinmJpupS6o/HQW9vJKD/wB9Ba8JuZNqH6V9l/8ABuz4N/4Sj/goZqOrMuYvDfha8nzj7ryvHCP0dq0nP2WHqVe0WfccA4X22cUYva5+5juFXIbbt/i9P/1579hX5gf8FbP+CqEetQ6j8LPhtqKSWxzBr2s20uVkHR7WFh1XjDuOvKj+I1+hX7SPwvvPjX8DPFHhXT9XvdCvtcsJLW3v7WQxy27kZByvO0kYbHJUkZBNfzw/EDwHqnww8car4d1u2ez1jRbqS0uoHH3HRiCB2xxkHvX59kuFpVP3k910/U/1B8AuD8qzfMZ4vHy5pUbONN9f7z7pPp959vf8EM/2vR8Lvize/DTWrspo/jF/O00zNhYb5Vxt9vMQD/gSL61+vG8FgTkDIzntX81nw60XX/EHj/RrPwvDf3XiKW7j/s5LEE3HnhgUKAdGB5z2xk4xmv6Fvh/rfiTw9+zvYah46Sxt/E+n6KJtXFs+6BZ0iLOQcDjjJ4wCSATWmb4SPtoVFu3sdH0geFMJg86p43CyinX3gnrdfat2f5nSf8EvoPt3wX8Va8OR4o8ba3qCtj7yLeyW0Z/74gQfhX0Zf3sNhayTTyRxxRgs7OcKB7n0rw//AIJyeGz4N/YU+GxuPllvNAg1OffwRJcr9ofd/wAClOa/Mb/gsh/wWjk+NU2pfC74U6hPD4WiZrbWddhYo2rEHDQQHqIezP8Ax4IHy/e/pSGPoZVlVJ1f5Vbzdj+duHeBcz4z4lngsBGy5vfl9mEVpd/doup2n7aX/BfebRv2zfCem/D67M/w48Gasv8AwkN1Dhh4hBzHKkZ7xRqzFSPvyKD91VLfrV4O8V2Xjrwtp2s6bPFd6fqdul1bzRtuSWN1DKwPcEEH8a/knXGDX7Uf8G7X7e6/EX4aXHwZ8RXe7W/CcRudFeV8m6sM48oZ6mFmxgfwMmOFNeDwzxNUxWMnSxL+PVeVuh+7+OPgXhMj4cw2YZLD/d1y1X1kn9t+j/B+R+oSDcxB6jpTzECOQD+FNQBQCOff1qTNfoi11P41V0QvYxP1ijb6qKwfFvwl8MeO7Yw61oGj6rC2cpd2ccyn8GBroy+DTSATUyhF/EjWFepB3g2vRnhfiL/gmr8C/Ek5mk+Gvhm1nJz52n2osZQT1IeHYwPvnNc/f/8ABMLwTZnPhvxL8TfCbj7o0/xdeyRofaOeSVP/AB2vpXbtHA+teLftw/tq+FP2G/gtf+LvE9yuUBh0+wjYfaNTuSCUhjX1OMk9FUEnpXl4zLcu5HUxFOFlq20j6HKsfneMxEMBgqk5zm0lG7d36anAS/sKfEPSVKaF8efFIRDhU1vRtP1JR7ErFE5/Fqz9Q/Z+/aK8LSZtPFHwu8VQqPu3mk3mlSP/AMCjlnUH3214H/wRO/4KteIf2uPjB4+8J/EDUITrGp3Ta9ocfCx29sQsb2cXQ7YtsbDqT5kjGv0xUfKD0PpXzuH4WyDMaSr0qKs+2jPpOK3n3DmYSyrNIx54pP4Y9VfdJNnxF4/+LfxX+BK6NN45+Gug/wBlarqtno39oaJ4l+07JbqdII28qW3jYrucE4PAHTivY2+8a53/AIKKXK6x4q+Cnh4E7r/xzFeyKP4o7SzurjP08xI/xxXQ53c+tfifH+TYPLMesPg00rXd9dWdVLELEYKjiHBRlLmva9nZ6aNv8Aooor4QgX/DH61/P3/wXH8b/wDCaf8ABTvx4ituj0K30/Sl9AY7VC347pGr+gWJBJIqnjcQv0yf8K/ma/br8dH4lftyfF3XFbet94svxGf9mOZo1/RBX2/BVL36k32/Nn5j4qYjkytU/wCZnmJbEeOeaY3U0M2KjJya+6sfzeloKxyaaTgZoY7RTCcmqSNFECcmms3BodscVG0nP0ppGiQjNnikoJprtx9atF2EY5NNc4FDHaKjdv1rRI1ihrNmkopjNniqiWkDHJprNg0MdophPNaxNIoCajdsc0rHJqNmzxVo2SEJyaQnApaY7ZNWUhKikbk+9PkbFQk5NaI2SCiiiq5SuUVTtOaej5aolbPFKDg0nuKxY609WzxUcbblpaiRm0SA4NSKeQaiVs8U5TtNQ1chonzmnq2eKjjOVpFfJI96ixk10JgcGpAc1ErZ4pwODWbRm4kinaalRtwqEHIpUODUWMyenq2eKiR9xp1Q0ZtEqnaacj81EjdqdUWM2iwDkUqnaaijfAp6tmoaJcSUHIpVO01FT1bPFS0ZuJKDkUqnaaip6tnipaMmiVX9KepyKgpVbbS5SWrk9PVs8VCr08HIrNohxJKUHBqKnK+OtJxJ5SZX9KkHIqv1oqGrkOJYoqFXx1pwf3pcpLRNEMyAepxVsafk8OPyqlDJ+8X6itZTubNRLQym2QLpZb+P9KX+yf8App/47VtBx0pzHtisnJmLmyj/AGSf74/Kg6cV/wCWn6VcL4FM601cOaRXGnE9JB+VI1gw6HJ+lW060v3WzimnqCmzI1dPs9sCTkkEV+lP/BsL4L+1eMPjH4nZf9Va6fpMb+7PLKw/JFr82PGUqx2sZHcN/Sv2B/4NoPBP9k/sa+MdedMN4g8WvGrf3kt7eNQP++pGrmzefs8sqy76H614T4X2mZqp2TP0Zr8vv+C6P7GVzdeNPDvxK8L6bNcXPiG4i0LUre2iLvNdHi2kwOSzgGP3IjHWv1BHSorqzjuwglhjlCMHTeobYw6MvYMOx61+Z4PFyw9RTif2NwbxZiuHszhmWE1cb3T2aa2Z8kf8Ewf+Ca+nfsg+EovEXiS3t774h6tDmeQ4dNKjYf8AHvGem7H3nHXp90c+2/tq+IG8MfskfEW6jY+e2gXVtAT1MssZiQf99OPzr0+vIf20bca78O/Dfh/t4p8Y6FpbJ3dG1CB5B9PLjc/Su/L51MZmNJS6yX5nNmOeY3OMzePxs71JO/kra2XZI+sfhL4Uj8HfCbw7okSFYdM02CzQdcCOMKB+AFfhT/wXU/YB/wCGTv2i/wDhMdBsxH4L8fyvcqsSbYrG/wCWmgGOArj94o93UcJX792EItrOOMdFUAV4p/wUM/ZN079sv9lnxP4LvFiW9ubc3GlzsP8Aj1vI/mhf2G7hv9lmHev6lzzKI4zAukviitPkeR4T+IlbhjieOYN/uqkuWou8ZPf5PU/mFYg8k5zX6Cf8EOv+Ccvjv4z/ABu0D4tfbtR8IeD/AApei4t72Nds2uOhw9vGGGDAw3JI5BGMouTkrzP/AASp/wCCRmuftf8Axl1C78bWN7o3gTwXqD2OrCVTHLqd3E22SyQ9tpH7xx90YA+Y5X98/BvgrTPh94VsdG0aytdP03TIFtra2gjEcUEagBVVRwAAAB9K+N4W4YlOaxWJuorZdW1+h/TPj9464ehhZ8PZJJTnUj+8luoprZdG2vuNdV2RgE/nR5mDgckUiYK88ED8q+a/+ClP/BRLw1+wB8GbjVrp4dR8V6qrQaHpCyYku5gPvtjlYkyCzduAPmZQf0vEYmnRpurWdoo/h7Jsnxma42ngMDBzq1GlFL9fLufSrNyOKUnjPU54r4Z/4Ihf8FDNU/bX+B+saf4w1KO+8eeGNQc3sm1UNzbTO0kMgReAF+eLgYAiGTzX3MDgAHnNZ4PF08TSjWpO6Z08SZBjMjzGrlmPjapTdn/wPI8d/bZ/bP8ACH7DXwWvPGPi+5ZY9xt7GziG6fUrjaWWCMcZJAJJJAUAkkAGv53P22/23PGP7dfxjufFPiq5eK2jLR6VpUUhNvpUBIIjUcBmOAWc8scdAAB/Q/8At3fskaL+2p+zbr/gfV0VJbuMy6fdbcvYXaAmKZfdW6gfeUlT1r+Zn4l/DjV/hB8QNa8K+ILRrHW9AvJLG7hOfkkRiMgnqp4KkcEEGvguO6uLjyQi/wB2+3fzP69+iZgOHqzxFecb42D05ukH/L283uanwC+Nmtfs4fGjw5458OzeXq/hu8S7iUkhJ1HDxOR/A6lkOezGv6dP2W/2itC/aq+BXh7xz4fnE2m67aLPt3Bnt5OjxPjo6MGVvcGv5a/CnhLU/HHiSx0fRbG61TVtUmW3tLS1iMs1xIxwqKo5JPb/AAr+hH/gjR+wd4o/YY/Z4uNP8W69cXWreJbhdRn0iOQSWmjOUwY42xlnYbd7D5SUG0cFmw4Cr4hTnSSvTfXsz0/paZXk0sNh8e6ijjFoo9ZQ6t27dG/Q2f2qJf8AhJv28/hfppIZNA8O6zrTD+47taWyN+Uko/GuyAwPSvPfFF6vin/go94xuVOU8M+DdL00E9FkuLm6mf8AHbHFn8K9CHI6EfXrX5T4jYh1c7q/3bL7j+ZKVONPCUIR/kTfq9Qooor4VXeiGt7FTX9cTwz4f1DU5TiLTbWW8c+ixIzn9Fr+VbVNafxN4g1HVJW3SandzXjn1Mjlz/Ov6WP2+vHP/CtP2H/i3rgfY9l4UvxGfR5IWiUfm4r+ZjSl8m0RT/CoFfo/BlK2FqVO7sfini3iNKNL1Zb601nx0ppOaOlfWJWPxDlDrTHbHWhpMCoick1SVy0rCs2aSimMcmrSLSuDHJpjNwaVm21G0uTVpGqVhHbHFNoPJpjNnirSLSBzk/SkpGO0U1mzVpGiiIxyajJ5NKxyaYz46VaRqlYR2yaQnAo60x2ya0SLQhOTTXelY7RUTtuNaJGyQ0nJprtjilJwKZ1q0ikgoooquUsM09WzUaHIpaTQNEqNtNSpJuNQK2aer4qGiGianq2ajRty5paiRk0SqdpqRGxUKtmnKdpqGrmbRP1pyNnio0bIFOB/SoIaJKerZqJWzxTqzaMmiVTtNOR+ajVs8UtQ1YzaLAORT1YYFV0fmpFbdUtESiS0qnaajDEU8ciosZtWJEepAciq9OV6lolq5Op2mng5FQrJk06paIcSSnq2ahU7TTwcipa7GcoklKrbaip6tnipaIaJQ+TwaerZqClBwanlJauT0VEJMU4OaTVhcpKH9ad1qHeKcORUtEOJNB/r0/3hW1AeawoDidP94VspJg1lUiYVYltDxQ7YH1qJJQaVzxWHLqcvKLTd/NN8zjqaarZNVYpIswjdT2h+cD1plvw3AFX4Lcz3UKDGWzSS94xbtI5Tx/mKzTAOFBycdOlfvN/wQt8Ef8IR/wAEwvh8xXbJrb3urNx1826kVf8Ax1Fr8Tbn4fJLpd/qWtW0s+h6WjTXHl7xhfLkOMqR82VyBkZx6Zr+hT9grwN/wrT9iP4TaG0flPYeFNPEiY5VnhWRv1c1xcXRdDL4U3vJp/LU/oHwewl/aYrpses9KKDyaK/LLaH7yFeWfGSL/hJf2lPgPoAUOX8UXGsSD0S0065Ib/v5JH+Yr1OvPvB9nH4p/wCCkPhGBxuXwx4K1PUcf3ZLi7tIUP4rFKK+t4Hw/ts6oQ87/ca05OFOpVX2YSf4W/U+vkXn6U1gCDkAjpTkOOCetfJ//BVL/gpdov7AHwela0ktdQ8e65G8Oh6azZw2MG4lA58qMkE/3jhRjJI/qrFYmnh6Uq1V2UUfn+R5Hjc3xtPL8vg51ajskvzfkurPqHTdDstCjmSxtbe1WaV55FiQIJHdizscYG5iSSTySTV3JCD5snvgda8B/wCCan7YMP7bX7JfhnxjJNC2uCIWWtRx4Xy76IBZflHADHDgf3XWvfwK0oVo1KcasNmr/eY5vl2JwOMqYLGK1SEnGSfdafcfOf8AwUT/AOCi3g//AIJ+/C46rrbrqHiPUY3XRdFikAn1CQYBPfZGpILORgA8ZJAP88v7TX7TXi79rv4v6l408aai19ql82IolyLexhBO2GJCTtjXnjqTliSxJr96P+CyH7AkP7bn7Md42lWsbeOPCYfUNEmwN8xA/eWxb+7Kox7MEJ4Ffzr3EMllcSxSxvDNGxjkjdSrIQcEEHkEHsa/MeOq2LVWNKTtSauv+D5n9zfRQynh6pgauOpK+Ni7ScrXjF7cq6J9X3Pcv+CdX7Yt9+w9+1NofjKOSc6K7/Yddgj5NxZORvIHdkIV1HcoR3Nf0v8Agzxhp/jzwrp2s6XdQXmm6pbpdW08T7kmjdQysp7ggg596/lM+E/wo8QfHD4g6X4U8K6Xcazr2szC3tbSJclj1JJPCqACSxwFAJzgZH9Iv/BNH9lrxF+x5+yX4f8ABHijxFL4i1SwDyucfu7AOd32aJiMtGhJwW5OTgAYVe3gTEYnklRcfc3v0T7HzH0tMnyeGIw+Y0qijipe7KHWUekn2ttrufQQGT/skV+On/Bxh+wxPbeM/D3xc8MaXNO+vXEeg6zBawlpJ7gjFrLtAJLN/qs4yf3QHXn9iwCenP8AhVLVdFtNcjSK8tbe5jhlSaNZow4R0YMrjPRlIBBHIOCORX2ebZbTx2GeHnon17M/mPgDjbGcK5xDN8GruN04vRST6P8AM+Cf+CNP/BJCy/ZH8K2/jvxxZwXnxK1iD5Y3AddBhYDMKHkGQ/xuP90HAy36BBdqAdgKUIAAAAB/Ko76cW1o8hP3FNbYLB0cJRVGgrJf1r5nn8UcT5hxDmc8yzCblOb+S7Jdkj42+DEq+Jf2ivjrr+d/neKoNIjP+xaafbIQPYSPJn3r1IcCvIv2LZxrnwx17X8DPivxbreqhv76SajMsZ/79ogr13Oa/kriev7bNK9TvJn2+LjGFTkh8KSX4IKKKK8JHN1PkP8A4Lr+N/8AhCv+CY3j5FbZJrs9hpK/7Xm3UbN/45Ga/n7tyBGBjGBX7S/8HMPjb+xf2O/BWgq2H1/xakrqDyyW9tK385F/SvxXjbC84r9Y4YpcuWwfdtn89+KdfnzCFL+VfmS+Z7Ux5M5phOTRXvJWPy6wUdKYxyaQn9KZaiKxyajkekZ/yqM8k1okapWHO2QKbSMdophOTV2KSuKzZpKRmwaYTnrVJGqiDHJqMnk0rHJqNmycVaRolYVmxjFNJopjHJrRItK4McmmM3BpWO0VG8mTVpGqVhGbFNJoJpjHJq0i0riHkmml8UO2OKiZs8VokbRiKZOaKbRVFcoqNtNSI3P1qEHIpyHDUCaJ6epyKiVsmnVm0ZtEqnaakRv1qFWzTlO01m0ZtE9KjYOKYjZAp1TIzaJOlSK2aiVs0tSZtE6nIpynBqBGp4bBrNolxJ+tKp2mo1bFPByKhqxk1YkByKVTtNRU9WzUNGbRMj8c0/rVenq/51DiS1cnV8dad1qJWzS1LVjNxJQcGnq/pUCNg4p9S1clqxMsmTTqgBwaer+lS0S1clU7TTlbdUQf1p3WkQ4klOV8dahpyvjrSauQ4kobJpaj60VLViOUkpwf1qLcRS+Z7UrXFyli3b9+mD/EK2I2yKxLY/v4z/tCtdW9xWU0YVS0vQU4vkd6hjl45NK7grwax5TlcXcUuMU0HBzTA4C0glwOo4q1Bl8pdgmAPWrumaollerJISVj9KwjcbG4NR3l7tTJ7muihTtNNgsNzuzO3+IHjGz8Y6No/hbSJmN54n1G3sLiIxBgYzNGfvZ4JkEfQdA3Pav6XtE0aPw3oNhpsS7ItOtobRF/uiNAoH5Cv5nP2DvB4+KX/BQP4SaHjzY7jxVYvIp6BI5BIxPthK/pvlfzJWbGNxJxXzniHiLypU/K/wCCR/S/hThXRy+S7afm/wBRtFFFfmR+rB0ri/2Uox4o/bx+Kup43R6B4f0TRY2P3Q7G8uZB9cSx5/CuzyQfbjH51z3/AATns11bWfjT4gI+bU/Hc9nG/qlpaWtr+jxSD61+leFuG584VR/Zi2ZY+Thl1eonbRL/AMCaE/4KU/8ABS3wl/wT++GzT3skeq+MNTjYaRokcu2W5bn95IRnZCpxl8ew3NgV/PT8f/j/AOKv2nPitqnjLxlqb6nreqPlmI2x26AnbFGuTsjUHAUH1JySWP65f8HEf7AB+JPgCD40+G7Z5Nb8KW4ttbhjXcbnTwcrKB/ehYknHVHbP3BX4sE/KMcZ96+841xmL+sewqaU91bZ+b8z+w/oucN8PxyV5thPfxTbjUb3h5LsmuvU+7P+CEH7dQ/ZZ/aYXwbrty0XhL4hSR2mZX2x2eofdgkOegfPlt7tGegNfv7DKJYgytlWGQfWv5Q/gl8FvFH7Q/xO0rwl4O0u61bXtUmEcMUPGz1kZ/4EUclicAD8K/p6/Zc8EeLPhv8As/8AhPQ/HGtQeIPE+ladFb6jqESGNLmVVwW5OScYBY43EFsLnA9/gbGV6mGlSqL3Y7P9D8f+lXw5leDzqlmOEqRVWqvfgt9NpWW19vM7+ZFlRlYAqeDkZH4ivwZ/4LZf8E8NV+Gf7cthd+CNGu9Rs/jBcGaws7SLJXUywE8QxwN25ZcscfO/IC5H71Hpj29Ky9W8K6brOqWN5eafZ3V1pcjS2k0sKvJauyFGZGIJQlCVyDyGI719LnGUUswoqlUdrNO5+I+G/iHjeD8zeYYRc3NFxcXs77N+j1Pkv/glF/wSy0T9gv4bpqeqRWmqfEbW4FOp6iFytqpwfs0B6iNT1IwXIyeAoX7HyQAQOvalU5H1qC6mS0jeWVgiRAuxY4AA7n8P5V2YXC0sNSVGmrRifMZ/n+PzzMKmY5hUc6lR3b/JLsl0Fu7hbSCSSRgsa53E9Fr83PiD/wAF39Gi/wCCivhX4feHprGf4cLdNo+uazkMtzeSny42hfoIYpNqs/8AGHYjhAW8V/4LL/8ABaYeN21T4T/CPVD/AGUS1tr3iG1kwLkdHtrdhj5D0eQEZ5C/LyfypCgqDnGfwH5/55r4fP8Ai5UqqoYR35X7z6eiP6q8IPo5vM8tqZpxDHl9pBqlHZq60nL9F8z+uaCVbiBXQh1YAgjoa5v4zeJk8FfCXxLrDnCaVplxeN7CONnP6CvlX/gid+3nD+2L+yzZaZq16JPG3ghI9M1VHbMlygH7m5P/AF0VeT/fV+2K9c/4KW+Jn8MfsM/EkwkCbUNFm0yL3e5At0H4tKB+NfXf2hCrgpYqm9LX/A/mXMOG8TlOfvKMbG06dRRfmr7+jWp5X+xl4ePhn9k74eWsgbzv7AtZ5s9S8sYkcn33Ma9NPWs/wnpKaD4W02xQbUsrWO3UegRQv9K0Otfx3jJudec31bf4n12JknWk1tdhRRRXOtzC9j8hf+DoPxv53jH4O+GlfK21lqOqyJnu8kUS/wDoDV+WtfdX/Bxx42/4Sb/goZaaUr7k8NeFLG3xn7jytLOf0da+EetftWUUvZ4CjB72v95/MXH9f22cVPLQcz4pvWkY7RTGf1NeilY+NURzPjpUbP1pC5zSE07FJBTWfHSkLnNITVpGiiHWmM2eKGbJpjPitEjRRHVG3U0M3eoycmqSNEhWOTSUUxjk1aRSVwY5NNZttIz46VGz/nVpGqVhHfdSUdaYxyTWiRaQMcmmM3BpWO0VG7frVxNYoazZ4pKKYzZ4q0jVKwFzmikoqxig4NPBzUStniloYNEyPsNSRtmoFORTkODWbRDiT09WzxUSvk06oaMmiUHBp6PzUCNg4p9Q0Q0WFbuKeGBquj81KDkVDRlKJJSqdpqMMRTwcioIasSA5FSDoKr1IkpPFQ0S1cmVsU6olO4U5TtNS1czcSRTtNPByKiVtxpaiUTNxJQcGnrJzUKvjrTgahqxLROrZpQcGoA2Dmnq/pUtXIcScOKXOahD5NOqWrEOJJTlfHWogcGng5FKxLViQS471IDkA+tV6UHFTyktXJ6Kh8z2p7S7QKTQuUlVu1OVgar/AGgKMtWl4P8ACms/ETxDaaR4e0bVNe1W+fZbWen2r3M9wfREQEn3ranh6lR2irm1LCVartBNldG2OCOxzVkapj+D/wAer3K3/wCCT37Tt1Aki/Aj4k7XAZc6WVOD7Eg/pUn/AA6W/afP/NCPiP8A+C3/AOvXTLKcX/z7f3HW8hxr3pP7meFLq20/cP8A31/9annWs/8ALM/99/8A1q9z/wCHS37T/wD0Qn4kf+Cz/wCvR/w6Y/ag/wCiEfEj/wAFn/16lZPi3/y7ZL4fxn/Pp/czwhtUyeEI/wCBUv8AaXH3f/Hq91/4dMftQf8ARCPiR/4LP/r1Nbf8EkP2nrhwh+BnxCiDdWk004H5Zq45NjG7Kmy48O456Kk/69TwJr8Meh/OifUAYsFCfxr6k0H/AIIuftAagwOpfD/xppa55C+G7u5cf98qB+tdlZ/8ETPGlhZmXWtC+MjbRlls/AsqD/vp5D/Ku6lwzjpatJfNHoUuD8fLVxt6s4T/AIIQeBx41/4Ko+DrnYWi0Kzv9VZeuwx27ov/AI9IK/oTHT1r8qv+CKv7Hlt8Af26fFVyuk+M9NudP8HuG/4SKy+yyuZ7uJFZEwPlxG4Nfqrx26V+T+IEZ08wVCe8Yr0P6E4Jy6WDy5U6mrv0CiiivhL21PsOug2acW8LSk8RAseemKzv+CWduZ/2SLDWXGJfFOrarrjNj7y3OoXEqH/vhlrL+NvikeB/gz4s1luF0jR7u9z6eXC7f0r0/wDYi8GnwD+x/wDDPRypjnsPDOnwyhvveYLdA5PvuzX7N4Q0L161Xskjz8/k4ZZo/iml8krnoPivw/aeLPD17pd/bxXVjfwvbTwyJuSRGUhlI7ggkY71/N3+2F/wTy8UfBr9vjUPhB4X0m71WbW70S+Go0GWubOYsyEk8BYwHVnPA8pmJAr+lcAFR29q5q++E/hvUPiZbeMJ9FsZvE9jYyabBqLRA3ENs7q7Rqx6KWVSfp9a/Xc8yOnmMIxlpyv8Op6nhb4p43gzEV6mGXPGpBrle3N9mXy6nzv/AMEwP+CZXh3/AIJ//CtdyQav451iJX1nVymWduvkRZ+7Ep6DufmPJ4+roxwPXFNUA44IJ5pJ7hLZMswGK9TD4anh6apUVZLofAZ3nmNzfG1MwzCo51Ju7b/L07E1JnI6Zryz40ftfeAvgNe2ln4j11INU1AFrPS7SCW+1K8A6tHbQK8pX1baFHc1yOn/APBSX4WxXqRa9f8AiHwX5zBIpfE3h6+0i3k9MTTRiL82FRUxuHp1PZznFS7X1PNVKbV7H0ATt/hrN8U6BaeLPD1/pd/FHPZajA9tcROMrJG6lWUjuCCR+NV/Bvj/AET4h6Ql/oGs6XrdjL925sLqO5iP/AkJWtdZFYDGOK6FaS8hRk6clJaNH8zn/BTP9iO8/YT/AGotW8MCOd/DWpZ1DQLmQ5821cn5C396NgUPrhSfvCvnnIU8g4r+h3/gt1+xIn7XP7Iuo32lWay+L/BIfV9LdFzJMirma3HqJIwcDu6R+lflL/wSb/4Jcar+338R/wC1NcS7034Z6DOBqd0hKSanKAD9khYdCQQXcfdU4HLAj8gzzhutHMfZYaN1PVeXe/of6S+F/jbl1Xgt5lnVRRqYVKE+8nb3bLq5fmesf8G9n7MPxT1n9oeP4m6HO/h/wDYxy6fqVxcxkx66pGTbxJxu2uEYy5wpUrySy1+nn/BTqcXvwc8IaE3zf8JN420SxZf7yJdpcSD/AL4gavdfh38PtH+FXg7T/D/h/TrXS9I0mFba1tbaMJFBGoAVVA4AA/E187/t33ra9+0L8C/Dwy0aa1f67Ko6bbbT5YwT/wACukx74r63H4KOVZDWpqV2ou/q+3Y/jfiTjmfF3FyzarTVOC2SWvLFO131Z1R60UDOOeveiv5Wl8VzhbCjqOn/ANbmin2+BcJngbhk+nvVU03NLzIk7Js/nC/4LGeOP+E9/wCCnfxbuQ++LTtUj0yM+1vBFEf1U182s2BzXXftJ+N2+Jf7TXxF8QlvMOs+JdRvA3qrXMhH/juK409a/eadLkpxh2S/I/k/iGv7bMKtTvJis2aSkZsGmHk1aVjxkhxf0pvWkY7RTCcmqSuaKJJUbdTRUbdTVJFRiSVFI2CRTWbcaQ8mtEjRKwU1nxSM2Tik6UzRRDrTHbHWkZ/yqM8k1okaJWFY5NNJwM0MdophOTV2KSuBOTTWfHSh2xxUbSc/SrSNVEHbJptBNMZs1aVzVIGOTSUUxjk1aRSVxS/NFNoquU05Q60qNg4qOKTdx3p9EhNElPVs8VGrZ4pakzaJAcGpEf5qgRsHFPrNolxLHWlRsHFRJJ2p6tuqGjJxJaVTtNRg4NOVt1S1czaJo396eDzmoAcGnpLms2rktXJw4NLUQORS9Klqxm4kqnaalVgQKhHIoqWrmbVyxSg4NQq2eKcGIqWhcpMG3GlqJWzTt5zUNdjNxJEbBxUhwRwDmoVbdSu6xgdRQotuwlBt6EoO08jNOWT5q9Y+Af7DPxM/aN0pdT8P6GYNFckLqOoTC1glx12Egs+PVRXuHhn/AIIreOb51OreLfDGnA9VgSa4Yfoor0qWS4qouZRPXw/D2NrRUoQ3PjrzPalEoHfFfoJ4b/4Il6FbOF1nx/qtzIPvR2VjHF+rMxFeg+Gf+CRPwg0IL9rh8Say45P2nUtin6hFX+ddtPhnEyW6R6ceC8Z/y8aX3n5dNOqDOaWC6a4kCRBpGPAVBuJ/Kv2G8MfsDfBvwltNr8P9DmZOj3avcsP+/hIr0Hw98LPC/hKJV0vw1oGnKvQW9hEhH4ha7qXCa+3P7kd9LgmP/Lyp9y/zPxt8DfADxh8RJYxYaPdpG5x5skEhUfgqlj+Ar3n4a/8ABMrUdVEcuujxncIcEwaVogtw3t5t28Y/JK/ThJDEu1CUX0XgflTJD8pr1qGQYOlvG78/8j3MNwvgaOrjd+d/+GPiyy/Y78KfBbQJ9THwntbxrCF55LrxR4iS4bailifKiVkBwCcY/Gv2I/4JQ/sZ6J+z7+z3oni280bS4viB4706HVNVuYLdUFhDKvmQ6fANo8uGFGUEADfIGZskjH5v/tgag1v8KfEIB4Onzj/yG1ftJ8CWx8EvBoP/AEA7L/0nSvWp0adNWgkvRWPcp4alTVoRS9Efnj/wXl/4L+Sf8EwvEnh74YfDXwxZ+N/jJ4stku4oLsSSWekQSuY4C8UREk88sitsiUr93JJyqt8gfFv/AIKvf8FR/wDgnt4K0z4r/Gz4WeEdQ+Gt3LGL20k0+1T7AJSNkcrWkxmtWYkKGlVgGIByxwZv+Dkv9mHxj+yH/wAFPPhV+21YaAPF/wAPvD1/oza7bZGbC6sbgFEcHok0YUI+CA6nPVd3S/8ABYH/AIOVf2fv2uP+Cc3if4Y/CYeI/GHjv4sWcWjppl1o0tqNF8yRC7TM4CvKMbUWEvlypzgc6mx+q/8AwTl/b08I/wDBSj9kvw58WfBiXFpY6z5lve6fckNPpN5Eds1tIQACVOCGAAZGVsDdXuygFRx27ivg/wD4N0P2APF3/BO//gmpovhbx7CLDxh4m1W48Tajpu8OdJM6RJHbsVJBkWOFCwBIDswz8tfeI4AxQAUUUUAFcv8AFC9Nn4cuDk/dPf2rqK89+PN+bLwrdHOBsOaT02A+Qf2ZP+Kh/ax+MestyNPttH0WNvQhLi5cf+RUz7Yr6APWvB/2D4P7Q0n4na6eut+Ob2NW9Y7WGC1H5GNhXvGc9sV/J3HOI9rnddro7fcff5VDkwsEFFFFfIq9z0fM8f8A29LyWP8AZS8WWEA/feIYodDiH983k8drt/EykfjX2X4V00aN4asrRVwlvCsYHoAMV8d/tTQtreq/CrQQAf7d+IOkB1/vJbO164/75ts19kavqdroGmTXN3NHb21sheSR2CqigZJJPQACv6C8JaChgKlbu7fcePxQpewoUY/acn+KSGeItetPC2j3WoX9zBZ2NjG8000zBEiRRuLFicAAAkk46da8E/Yi/wCCkPgf9u3xB46sPCZnT/hDdTFmjykZ1K3ZcpdovURs6yqAecIDxnA/L7/gs1/wWIf9pe+vfhh8NL6SLwHbSeXqmqQuVOvOp5ijI/5dwcHd/wAtCP7oG/5k/wCCY/7ZE37EP7WWgeKpppB4dvz/AGXr8anO6zlZQz7R1aNgsgHUhWHevpsVxjRhmEKFPWmnZvz/AOAftWQfRwzHEcJYjOcYnHEOPNTp9bLV3XeS2XQ/pkYssQPA29vavCf20/2l/wDhn74S65rkEAvLzT7cmztS2DdXLEJDFn0eVkHHTNeyWXii01/wrb6nZTx3FleQrPDLGwZZEZcqwPcEHOa+Hv2rdQf4uftQ/DHwVzLaz64de1CPqGttOQzgN/smc24/Gvps0xscNgqmIbtyxbP5kp0J+1VJrW9v8zvvgF8EY/g/oMt3qM/9seOdf23PiXX5Vzc6ldkZKhjysEZOyOEYVEVcDOSd34rfEzRvhL8OdZ8ReI7uG10TSbV7i6abBQoAcrj+Jj90L1JIHcVvF8gtuYknqM9f5c9vSvyy/wCCiP7Q2u/8FBv2ntI+Anw1nEmh2F+E1K6iyYbi4jJ8yViOsEADHngv0/hr+TYVa+YYqWIqye92z9w4L4Sjm2L9hJ8lGmuapJ7Rit369F5ntv7MH7TX7O/7bnxJOn+HPDGteBPHEkMl1HPpgfRbuRU+84nspArMBg4cd+mK+pNO8OfFr4cgf8Ir8WrrWbVORp/jXSotTU/7IuoPInH1YyV+YP7NPw4sv2VP+Cz2m+DNMDJp1kDpsRc/NKH04OWPuzgk/Wv17/WvbrcR5jltSP1StJRa6u6/E7fErg7J8BjqTy1N0atNTi3vr8jnLf8Aa7+IvhOAweNvhJLrVmE2y6h4K1aPUVI/vfZLkQzD6DefrV/9nv8Aau+AXgjR7Twf4e1HTPh2Yi3k6DrdlJoE0bO5d1CXKoGYuzH5WbJPetSqfiPw5p3jHSnsNY0+x1axkGGt723S4hI/3XBFfS5d4sYyDX1ump+a0f8AkfltTJIuDhTk0nq10ufQNpqNvqNrHNBNHcQSjckiMGRh1BBHFfKPx2uV8Sf8FGfD9uSGXwz4DvLvH/PN7y8gjQ/iLV/yrHj/AGRvCvhq7e68HXXif4b3jnd5nhXWJrCAnr81qS1sw9jHXMXXwJ+LPg34t6r420vx1oPj3UdU0y20mS38Uab/AGfKLe3eV41W4s/lDFpnLEwHJAJxXq5/x/gc1yyeEpJwqS7/AOaNMlwMsFXlVqapxaVu7PeM5orxtv2kfFHggEeNfhX4v0uFPv3+hbPENiB3Y+QROo+sPFdF8PP2p/h/8Ubv7Jo3i3RrnUAcPYyz/Zr2M+jQS7ZAfqtfjU8FWSva/mtT1Y149b6noVc38ZfF6/D/AODvi7XnO1dE0S9v93p5Vu7/AMxXQiZcgnIPvXz7/wAFX/HP/Cvv+Cbnxj1JZNkknh2WxiOerXDrCB/4/V5bQlUxdOn1bX5mOOqqGHnNdE2fzWWVy94HnkbdJOTKx9SeSakPJqK0Xy4lX0ApzfeNfu1RXkfyXipc9aU+4+mMcmkpjMc1KVjGMRxYCmHkmkZsGmHk1SRokOZ8dKb1oqNupqkikrklRt1NFMdsda0SKjEfUUjYJFNZt1J0qkjRIKaz46UjNuNITVJWNFEOtMdsdaRn/KozyTWiRoois2aaTihjtFMJyapI0SsBOTRRTGOTVpFJXBjk0xnx0od/wqJmzWiRqlYUycniim0VXKUFPR+aiRu1OokDRYByKVTg1Aj1IjZJqGrkuJN1pVO01FT1bNS0ZOJKDkUqNg4qMHBp4ORWbVibEqPg9af1qAHBp6v6VLVzNxJUbBxT6iU5FKDg1m0ZuJKrbamU5AqurZpaloiUSxSggdqgV6kFxgYbBApcrewlBvYmjYMeelP3KD938aueFfB+r+Ob9bXRNH1LV7liAsdpbPM5P0UHH4mvevhf/wAEsfjJ8SDHLPoMHhi0lIPm6vcLEwHqI13P+GBXVTy+vU+CDOyhlWJrfw4M+egVboaGkRetfof8Mf8AgiNo1isc3jHxpfag2MtbaVAII/ceY+Wx9FFfRPww/YG+EXwj8t9M8FabdXUWD9p1PN5Ln1+fKg/QCvUocOVZa1JWPaocJ15fxXy/ifkj8PPgt4x+LFykXhnwvrmss5xvtrR3jH1f7oH417l8Jv8Agmv4zb4p+DIfHVtZ6TpGr6tFbz2gug908YV5HXC5C5VGB57gda/VZLePTrAQW8UcECDAjiQRoo+i8V4X8bNUbQ/id4Kvi2Es/EVpk+iyM0J/SQ17WGyHD0pKTu2e/hOGcLRak7yaPdNO0630XTbezs4IrW0s41ht4IgAkSKMBVA6AAAD6VJNbC8t5bc52zo0ZIOCAykH6de1PcbWI6YNEZ2yKR1BB579P6V7U1ePKj6nDNQqRfZo/PP/AIJM69c+H/2pvHvh69uZ7iaXT5kzM7OzNb3Kr1P1NfoXjFfnV+z8n/Cq/wDgr1rmmZ8uPUNT1K2A9RNG8y/riv0VryMkm3SlF9JM/RfE7DwWPo4iG1SnF/O2oUUUV7J+ahSP900tI/3TQB4V+2R/yS/Xv+vCf/0W1fth8Cv+SI+Dv+wHZf8ApOlfif8Atkf8kv17/rwn/wDRbV+2HwK/5Ij4O/7Adl/6TpQB/P8Aft63mqf8Fm/+Dl/S/wBm7xzr2qaf8IvAWoyWMej2twYVnS1sTd3Ugx/y3nkVo/MwWSPbt+7z+g3/AAUU/wCDeP8AZd+If7E3jKy8KfC/wx8O/EnhrQ7rUdF17R4Wt7m3nghaRRO+7M0bFQrebuOGJBBAI+f/APgtb/wRJ+Nlr+3lpn7X37JssFx8QrSeC+1bQhLFFdNdwxiH7TbiXEUqSwhUlhYgn5iN+8hfKf2hf2yP+Cpn/BQf4OX/AMGbX9mub4cHxXAdJ13XoNLuNL+0WzjZKi3F5OYoY3UsGKFmKswUigD3X/gz4/bi8ZftKfsieOfh74y1S915vhRqNnFo19dyNLNFYXUcpS2ZycsI3gfbnosgUHCgV+wq8gV8N/8ABBn/AIJHr/wST/ZJuvD+s6haaz8QPGV4uq+Jru0BNrHIqbIbWEsAWjiUt8xA3PI5wAQK9z+K/wC2/ZfDP4z6j4E0/wCHvxN8ca3pOm2urXreG9Mt7mC1huXmSEO0txH8zGCXgA/doA9yor56H7eeqgD/AIx/+P59/wCw7Hn/AMnKX/hvTVf+jf8A9oD/AMEdj/8AJlAH0G/3TXj/AO1Dq40/wpOWbCqpJ+gHNc2/7eeqlT/xj9+0B/4I7H/5Mr54/bu/bv1SD4SeIJ3+Cfxs0gQ6fcSC4v8ASLSOGE+U2GYrcthQcEkAnAPFRUkoxcn0Gld2Ok/4J62Jg/ZE8LX0gxJr8t9rUh9ftV7NKP8Ax1lr2jOa439nTwn/AMIJ+z14E0UrtOl+HrC1cf7S28e7P45rsjyeetfxpnNZ1cdVqd5P8z9IwseWjFBRRRXnI2btseY+K7d/Ff7b3wT0dQWj0s6x4hlA6L5VqtqpP43Zx7it3/gsb+z74y/aL/Ym8SaV4J1jUbDVNPH9oTWNq23+24IwTJZsRz8wOQAQGZVU/KWqt8Gbf/hIP+Ck93IcOnhj4fqn+499fk/qtiPyr6xmhW6jZWGVYfMD0/z0r+muAMBGWQRpy2nf/I8/Ms2qZXm+ExlFJypKMkmrpu99mfyNMhiYq6kMpwQeCMUMATwMD+Vfb3/BdL9iKP8AZU/atl8R6NamDwh8QjJqMARNsdpeZzcwjsMlhIvb94QPu1vf8EdP+CRd1+2L4ht/H3jy0mtfhtpk/wDo1sylG8RSq3KDuIFYYZv4iCo6Ej4xZBipY94KK95P5W7+h/pI/F3JKXCNPifETShKOkdLufWCXe59of8ABC/41+P/ABT+wjc2PjDSr2LQfDkotfDOr3DbTqNrg/u1U/Mywn5Q+NpUhByhre+ACn4j/tk/EXxRJ80HhLTLXwzaE9FnuD9ruce+xbVa+lvj7eab8MvhmthYW9vpum6fbCOKKJQkVvCi4woHCqAOg9K+fP2DtEvYP2YovEYiA1bx9fX3inEpKBhcyt9mVjjIAgSAcDgV9Nx9iHgMijg1PmlK0b+XU/zXx2Z0s74grZlRpKlCpJy5Vsrv+vmeO/8ABYL9vtf2bPhe3grwzebPG/iu3KmWNsPpdm2Vabjo7kFE+hbtXyB/wSl/bJ+En7G1/rMvjbT/ABBZ+K9YfyJNWFms8NpbDGIlVT5ilmyWIU52r6V7t8H/APglP8RfHv7cV38Q/jZe6JrOmw3B1RTYztLDfTq37mDy3CtHDGADhhjCquTk19ufFT9lX4c/G2Hy/FXg3w9rWBhXnskEqjpw+AwP0NfiyxOFw1L2GrT3a3P6I/1i4ayfJoZAoyre2SlVqU5WafSKurNLqnY/Lf4kfHbwt8QP+CyHgnxr4P1e21bRdX1HTALiIMnzOiwMjBgGUjPII71+xH5/jX4u/wDBQP8AZ78LfsV/t+eBoPB9hLpWhn+ztZ8l53l8uRbtt+GckgYQcZxX7PWc/wBptY5BzvUN+dc+b8rp05Q2scXitTwcsDlWIy9ydJ0bLmtzaPrbS/oSUUUV4R+MhRRRQAoJU5GQfUdq5z4g/CHwp8WrPyPFPhrQvEKAfL/aFjHO6e6sV3KfQqRj1roqM1cKs4O8W16CcU1Znjx/Y50/wvl/A3jLx34EK8pbWmqHUdOB7A212JUA/wBwp9RXiP8AwUO/ZG+P/wC07+yd4g+G2l+IPh34ij1ae1mN5Nbz6NeskMok8tkDSwsWKryCnTpX2fRXp4TN69GpGro3F31S/M5cRgqdWm6T2ej1P5nvjl/wTD+Pn7Oolk8TfDHxILGDhr7ToRqNoQO/mQbgPxxXg92WtbmSKVZIpozhkkG1lPcEetf1tI5jJIyMjBxxn615p8af2NvhR+0VbSR+Nvh54T8RPLwbiewRLoZ6kTJiQfXdX2eF46i7LE07ecf8n/mfmmP8MaM9cLUa7J6r7z+W3zvcn8KazDOQSM9a/c/44f8ABtn8FPiB50/g3WfFfgG7fJSNJl1GzU9hslw4H0evjr44f8G2vxt+Hvm3Hg7V/Cvj6zT5ljiuDp14w9PLl+TP0evpcJxHl1f4KiT7PT/gHxmN4AzTD6qPMvL/ACPz0GSetMkOW+lej/Gv9jv4r/s6XTx+N/h54s8OKn/Le509zbn3EoyhHvmvM/PU5xmvci4zXNFpryPmK+X4ig+WtBxfmrD6az46Uwy5phOTVcpzKNhzP+dIzFutIeBTGbP0qlEpIV2xxTaKY7YPJq0i0h9RO/Jx601mz9KSqSsaRiHWmu2OKRzk/SkPJq0i0rBTWfFIxyaaTirsaKIvWmO3PPakd6jPJNXFGiVhWbNJRTGOTVpWKSuKX5oqMyAGiqsaco4HIp6sMCqyvUqtmm0EokoODTlb58+tRBiKcDkVDRm4k6PuNOBwagBwaekuazauQ0ThwaWowcilBwalohxJlbPFLUYORSg4NS0ZtXJFbbUqvnFQK26lBwc1NhcpYY7a9V+AH7GPxI/aXiNx4U8OzT6Yj+W+o3Ti3tFPcB3wGI9Fya5v9m74Wr8dv2gfCPhB5Hih1zUY7ed16rFnc5HvtDYr9z/CvhbTvBnh+w0XSLSDTdK06Jbe0giXbHBGBtGAMZ559znNezleVRrx9pU2PoclyaGJg6tbY/Ozwj/wRdPhrSF1T4lfEfRfD2npgzC2Kqq+3nzMqA/QGvoH9n//AIJ7/s829t9r0FNJ+IUtowEt1NrCaiiN/tRxHYv4ivn+x/4JBfEP9s3xhq3i79of4k63HI99cR6VpGmqjG3t1kZUcBsxQIyqCERScYLEE181ftEfs96//wAEdP24/AmoeCPE2p6jpGsGK7tHlAjnuoRMI7i0uET5JAegOOQ6nAIBr6elgKFP4II+to5bhaT9yCXrqftJ4Y8LaV4LsFtdG0zT9JtlGFjs7ZIF/wDHQKv0MQxBClNwyFPUe1FdSVj0ErIKKKKYDZV3IfpXz1+2HA1j4RuL5BhtPeO9U+hikST/ANlNfQzjKmvHv2odC/tnwTqVuRk3FvLHkdiUIoA9iW5W8RZkOUmUSA+oIzTlhaQ4VGPbgZ//AFcc81y3wU17/hJ/g34T1EncbvSLR2PoREoYfmK8g/bd/Zc8fftBazoFx4H8X/8ACLR2lrNaanG1/cWyXSM6svEIO7GGHIzzjpWGIqypw5oR5n2PUybBUMVio0cRUVOPd6nzR4g1KHxl/wAFkrSbQZUuVi1+3SWSI7lLQ26if8BsYH6Gv0dPJr54/Yu/4J9aP+yhez63e6kfEXiy7iMH2wQlILJG+8sSk5Jb+JzgkcAAE5+h85rhyvDVKUJTqaOTvY+r47zrCY6vRoYJ80KMFHm7vuI7iKIu7KiL1ZiAo/E1zXiT42eDPB5I1Xxd4Y08jqs+pwo3/fO7P6V538Tfhh4f8f8A7XOh23ibS4NasL/wncvb210zGBJ7e7iJcJkKWMc2DkdBXovh34LeDfB6r/ZXhLwzp7L0a30uFGH/AALbmutTqSk1FaLTf/gHzc8JhKFODrSk3JXsrJel9fyOXk/bF+HLybLHXLjXJB/BpGmXV8W9MGKIg/gaG/aQutVQ/wBj/Db4l6rn7ryaWmnxn6m4kTA99tenQsYE2R/u0/upwKa5JBJOSar2dV/FK3ov87mTxOBgvcpNvzd/ySPz7/bN/b41Cz8V6n8P9X8AXXhTU7y0kVZtW1NTGyOjbZEMSMjg9PlbAbGcV/R/8DBt+CXg4emh2X/ohK/Bb/gpt8AtF+OHwmuJb9DBq3h+OS902/jGJbdlG5lz3RsYZT+HSv3c+FmuWvh34A+GdS1C7tdO0+y8PWtxdXVxII4LaJbZGd3diAqqoJLE4ABJ6VdODj1bXmY43E4etGHsaag1e9r6/e2bHxG+Iug/CPwTqvibxRrGm+HvDuiW73eoalqFwtva2cSj5neRiAoHv7DrXyx8BP8Agvf+yX+0v8aIfAPhH4x6HdeJLy4+y2UN5aXWnw6hKSQI4Zp4kjkckAKobLZAGSQK/Ob/AIOiP+CkHws/bS/4J+QeGfgv8Z/Bnix/Dvi61uvFWjabqWLi+tBFMsboDgXEKXJiLeUXAJjbtkfz5aBa3V5rtlFYOUv5riNLZkkEZWQsAhD5AU7iOcjHtWp55/fYOnHSvnn4W/8AKTn4v/8AYj+GP/SnVq5f9iv/AIKe/BD40ReFvhfZfG3wH4w+K+naLaW2q2dlqiytqF7FAguTBJgJcHeHJ8tm7nsa6f4Wf8pOPi//ANiP4Y/9KNWoA+gnbDHHPr7/AOcV+UX/AAUb/wCDsf4PfsR/HHVvh74R8J6v8W9d8N3LWes3dlqMen6bZXKErJAkzJI00iMCrbU2AgjcSCK+8/j9+3T8HfhV4kuvAOu/GL4ceEfHuq2skFhp2qeIbW1u45nQiMlHcMvzFSM4zxiv4lPin4Q1rwF8SvEGieIllTX9K1Ge01ESPvb7QkjLIS38WWDc9+tAH9gH/BJj/guf8Jv+CuWjatZ+FoNS8J+OfD1uLrUvDOrOjTrblgv2iCVPlnhDFVYgKyll3KoZSc//AIKv6g+p/B3UdIjP73Xp7TR0H943V3FAR+Icj8a/A7/g1u1BPAP/AAVEsfHuseItJ8I+B/BHhzU7vxLq2q30djZRW8sBgiieSRgpZ55Iiqck7CcHbX7bfHv9ojwJ+1z8SPhWPh94y8MeOdEv/HNiZ7rRdQivIUFsst0ytsJK8QDhutedm1b2WCq1H0i/yNaEeaoon1KYUtCIYxiOIeWo9AOBQORSsSzEnqaSv4zqS5pOT6n6WlZJBQfSil5OMfL7/oKlIa3uch+xBaP4i/ao+OWvsCYrO60rw9Gx6Yt7EXDAe268Ofevqo5Yk+lfNX/BMuD7f4A+IevEg/8ACR+PtYuFb+8kE32Nf/HbUV9KOQBj+HvX9e8K0PY5TQprpFfifG8Utf2lUgto2X3JHjP7av7E3g/9un4Z2fhbxelwLKx1S31NJLYhZgY2O9A2MqHjMkZI7Occ16d4L8GaX8OfB1houjWdvp2laXAttbW8MflxwRKoCqF9AABXhHxf/wCCmXw++EH7Xngz4OXVz9r8ReK3ZJ5YpFEOkEqTAkpP8cz4VVHPIJwCufoHX74Wmku+eNuf0r16P1eVWU6dnJaNr8hZhHNsPgqGGxnPGlK86ad1F30ckvPufGn/AAVF8aXc3wqvtC02V11XxRNB4fstv3vOvJVt1I91Ehb6LXqXhvw3aeDPDenaNYII7HSLSKxt0HRY4kCKPyUV4V8WJz8W/wBuz4faF/rLPwwLzxbeDsDAn2e2z/22uNw94vave9R1K30fT5bm6lit7a3RpJJJG2KigZJJ6AAd6/CPFnHurjaWDg9Iq/zZ6HDuGfI5x3bsiUnHtjkZ6E1V0fXrHxHbyvp93bXkUM720jwSCRVlQlWQ443KQQR1BBr8zv8AgpD/AMFmo761v/A3wfvsq+6C/wDE0R7chktfc8jzv++f7w3/APggB+0Kdb8IeMPh3qFy0t3p90Ncs97EtJHJhJgP91wrH/roa/N5ZTVjQdeej7H7hivCrOMLw7PiDFR5UmrRa15X9p9l6n1X+1j/AME9fh5+2RqlhqfiqHVLfW9MgFvaajp94YZYowxbbtIZHwxJBK5Geoq/f+MfiR4m+O9/4M+Gum+FdYsvBuiWV1q41iee1knmuHmEcUUsauEYRwljuRh869M17ESEB3EDn5iTwPT9TWB/wTO0seI/Bnjn4gsgdviD4rvbq1l7mxtitjbY9iltvH/XU19XwHkyzbGexxS5qcU/kfn+OzzEU8vbqy5409IRlsnJ62V/yOH1D9ojxR8NpAnxC+E3jnw1EB89/pkK6/p6+rBrUtMF93iXjrit/wCGv7S/gH4v3Rt/Dni3RNRvE+/aLcrHdR+oeFsSKfqoPrX1hLbRyMSyqxPqM1wHxc/ZS+HPx4iC+L/Bnh7XnXhJbmyRpovdZMblI7EEH3r9AzLwlwlS7wlRxfZ6o+Xo8UYWf8ek4+cXp/4DLX/yY4bdzjOPalrntT/4JuxeEpWl+HXxG8eeBgB+7spL8azpy+3k3gkIX2jkT2xWBqPw9/aG+F0sgfS/A3xRsEOFewuJfD+oMO/7qUzQMf8AtogPtXwmY+GOb4fWnaa8v8j16OMwNb+DVV+0vdf4+7/5MegUV5Dc/tg6b4HkaD4geFfG/wAOpkO1pdW0hprDPT/j7tvNt8f7zLXfeAfip4a+KWmC98N69pGu2vQS2N3HcAfXYTivicVlWMwzarU3F+asdc8LVjDmlHR9Vt960aOgooorzvVGDv8AaCiiimIKKKKAEniS7tnglRJoJVIeORQ6SDuCDwR7YrwP46f8EufgD+0b5sniX4Y+HFvp85v9MiOm3QJ/i3w7cn/eBr32iuvD47EUdaM3F+TOethKNZWqRTXmrn5c/HP/AINgfA/iEy3Hw7+Iev8AhuY5aOz1m3XULcHsPMTZJj6hq+Mfj/8A8EBf2ifgZZXl9p2haX4+0q0RpDN4euvNuCo5z9nkCyE+wBr+hSlBKsCODX02D41zClZVbTXnufM43gnK8Qm1Dlf93T8D+RW9tLjTrma1uYpbe4tpGjlilUq8TqcFWB5BBBBB5qu746HNfqh/wc1/sk6F8P8Axz4M+LmiWkGnXXjKWbStdSBAqXVzEiyR3BA/jZCVY9WKqTX5UHkmv1bLsbDF4aGJp6KXTs+x+KZ5lEsvxcsO3dLZ+o5n/Omk5opjHJNdyVzykhWfHSmk5opjMc1aRaQ4sBTWOTSUx5MVSRaiOLBetRySZJprNupKuxaVgpCwFNY5NJ0qki1EVjk0x3xTWf8AKozyTVqJrGI7zPaimFwDRV2K5RaVHwetRA4NPDZNDRTVyZG5+tP6VXBwakR+alozcScHIpajVs9Kd5ntWbiZOJIr461Kv3RUAORSg4NS1YhxJ6evQVAknNSDkVLVyJRJKcpOw1EGIpyv8pqXEnlO0/Zq+J5+Df7SHgnxMW2x6Vq8Ekp7CMttf9Ca/eXzElQPGwaJxvRh3B5Br+dvVULQb13KwOQR2Pb9a/c79h/4rj40/smeBdf8xZLmbTI7a5OeRND+6cfmmf8AgVfVZHUvTcOx9pw7UXs3TMD9vv8AbA1j9jH4WaTr2h+BL3x/e6zqY0uK0t7h4/IkaNnRmCI7sG2sBtA5AGRkV+YfxF/aC+JmrftMaT8cv2gfg14v1jQvDjRDRdLWzl0nSdN2uXjDF4n3AOd+GI3vjccfLX7ZRz+XOiLIFlfPlruwzeuB/hXlP7b3xt8DfBT9nDxdP8QtQsI9L1LSbqyXTbmQGbVpJImCwxRH5nYkjnHy9SQBmvdPphv7Hf7ZfhD9uD4Uf8JZ4Tkuofs8/wBm1LT7sAXOmz7c7XxkEEcq6nDDPQgqPV/0r8yP+DcH4f63pvhr4neJpo5ofDepyWen2jMCEuLmHzGlZR0IVZEBI7viv0J+N/xbj+CXgJtdk0q91kte21hFa2skcbPLcSCKMs7kKib2UFj0znmgDrqcqF84ycDJ74+p9K8qc/GjxqxUR+CPh5bNwfMaXXtRUfh5UCsPq3PrTH/ZRtPFWH8beMPG/jYk5a2uNROnWB9vs1r5akezlvxoA6Hx9+0b4D+GVybbXPFmi2t8eFsopvtN459BDHukJ9tteVfFj46ax490ST/hFPhz4tv7d1JXUNZRNEtCPUCU+cw78Rc17V4D+FPhf4V2vkeGvDuiaEndrKzSJ2/3nA3H8Sag+JcBu9Em3HJKmgOpyf7FmoXN7+zV4ehvFhivNMa50+eOJy8cckVxINqsQCQBgAkDPpWN+0j+398P/wBmLX00fV5tR1TWyiyy2OmxJI9ujfdMjMyqpI525zjk1b/Y4uvL8O+L9MJ507xFNIB6LPFFKP13V+dv/BR/4ear4C/a88WS6ksjQ6/cf2pYztys8EgGMH/YIKY7bK8jOcbVw1FVKSu7n6P4acMYHO8xeGxsrJK6S0b8j9CdP/b9+HOs/ALWfiBZajPPYaGFiutPeMRXqTvxHDsJ6uejAlcAnsa+cPC//Bam7n8bxjW/BNhbeHZpQHa0upHvLZM/f+b5XIGOMLnnBFfDUd7NBZzW8csqQXIXzY0Y7ZNp+XI74JJHuam8NeGr3xp4hsNI06BrnUNUnS1t4l5MkjthQPxIr5eXEGKqTgqelunc/eMP4QZDgqNeWJXMndp3a5V9/wCZ+wvxL1O3k+Mfwa8Q2cqzWep3V9pyTDpJHdWBljI+pgWvU/0rxr41eFx8MPgx8OVD+Z/wg2v6EjP6qHW0c/QiU/nXs0ieXIy8fKccdK+1w902n5P7z+X86hTUIOlrFOST8k9PwEpH+6aWkf7prqPAPCv2yjj4W6//ANeE/wD6A1fR3/Bx/q3i7Tf+Df2X/hFTfJb3EXh+DX3td25dMYR+Zu28hDL5Ct2Ksc8E181/ts2pvfg/4jiWRoTJp1wA46j5DyP5V+0Hw98GaV8Qf2a9A0LXdNsdZ0XWfDdraXtjeQLNb3cL2yq0UiMCrKQTkEc0AfwkKCT09zgfrXpPxS/ZF+InwX+GuieMPE3hfUdL8Pa80KWt3LHgK01utzAsgH+raS3dZUDY3JyMgHH9GX7Sv/BPj/gl1/wTE8b6n8RfHWm+FYde0WRry18HS+I59UmecfOscWlmYlsnGBKPLXPzEDkfAn7EP/Bdn4YfHj9tz46ab+1L4Q027+Bn7Rl/Zyi0ubdryDwlJZRi2sCwQbwgtljRpYgGR41dQBmgD8oPhLrXiLw58VPDd94Qlv4PFdnqltLor2RP2lbxZVMPl7ed/mbcY5ziv64/jh8a/Ev7P3i/9qXx/b26f8Jh4T+B+jawkSIHSO+hi1mQcdCqyjJHQgVkf8E4P+CQv7Cfw8+IcPxV+A+m+EfHGq6ey3FhqMXihvEUOiuwJVokaV1ikwTtZxvXHBBBr3Pwr4csPGX/AAUQ+OGj6paRX+mav8P/AA5Z3ltMu6O4hkm1dJEYdCrKxBHoTQB/Fl408Zat8QvFmpa5rmo3msazq9y93fXt3KZp7uZ2JaR2blmYkkk85NVdN067127MVtb3N5NtztijaR8cDtzjoPyr9yv2vf8Agy58bz/GW/vfgj8Q/CA8D6jctNa6d4pe5gvtHjYk+T5kMUizqoOA52MQACCfmPL/ALcf/BPb4a/8G8X/AAT1kttS8S6f4+/aQ+Lmr6bDb3UcAhTStLsL6C+uFtY2JdYme3hjeV/mcuoCqFZaAPxVeR40eMllBbLLnuMjn8z+dfpv/wAGo/gmbxP/AMFIr7US0htfDvhi8u3UMdhkbbDGxHQkeY2CemSO9fWv7a//AAbZeEv+Ckukad+0j+yr458MaFoHxStR4gufDmrCRLGC5m+ab7PNErmIiTeHgZPkdXAYDCL3P/Bv/wD8Ev8AXP8Agnd+0b8ULPxRreh69r83hqwEz6UJGtrMTXUpEYkcK0hIgLE7QBx1r5bjXE+wyWvPq1ZfM78shzYmC8z9UT1oo/Wiv5HR+ghVTXdRGjaJd3bnC28LzN7bRn+S1brzv9rrxMfB37LPxD1JGKS23h2+8ojrvaF1UD/gRXHviujCwc60Irq0bYaHPWhF7Nr8z0L/AIJgaC+jfsOfD+eVQs+taedbkI/ja8ke6J/OY145/wAFbv8AgrZo37D3gybwv4ZmtNW+J2qwZtbTO+LSkYYFxP6f7KHlzjoMmvqL4O+A5vC37N/hrw1aTy2M+naBbadFNGAWgKQLGGXcCMjGeQRntjiv5tP28Pgx4x+AP7V/jHQPHV/e6z4gW+a5/tW6Ys+qwyHdHcZP95cZA+6Qy/w1/U2eZhXy3LaccPHdJX7aH2PgrwHlXFnFdaOaVPcpNzVPrOz/ACWl+555rfxH1/xH8QZvFmoavf3XiW4vv7Sk1KWXNw1xv3eZu67gcYxwMe1f0K/sO/tzWf7Y/wCxLpPisSRx67YRf2drlurcwXkajecf3XBV1/2X9Qa/nMPGPTtX1D/wSk/aO8YfBH4z65aaTYXmq+DdU0yWbxPGn+p0+GFWdLxmPyqUOVx1cOVGTgV8dwlnFShjHGo7xnv69/8AM/qD6RPh7gsy4aji6KjTqYXWPRcvWN/y8z9Tv2RLdvHHxy+LXjiQB0S9tfCdi56eXaxma4I9jPcbT/1yrO/4KvfBfWfjb+xd4mtNCu7+C/0ZBq32e2lZP7RjhDGSBwp+dSm5gp/jVeK7r9iHwTceBf2WPCSXy+Xq2tWz69qGRg/ab2Rrp8/7vmhf+A16ndWsd9byQyxh45QUZCMhgRgr+I/SvyziTNXiM5q4n+9p6I/i3hfFzyuvQxkUrwkpW6PW/wCJ/MpjA9/pXs//AAT++NerfAP9rbwdrulW17fma8Wwu7O1RpJbu3m+SRFRQSxAO8D+8i113xW/4J++Lda/bz8UfC3wVpL3Plag1zbTHMdtZ2UuJI5JH6IiowXPUlcAE4B/U39hX/gm34M/Yt8PpdRRxa54zuYtt7rdxF84zyyQoc+VH9OTxuJ6V34zH0YUby1bWx/dPiL4rZFR4e+rytVniIK0E9k1vJ9Evv8AI9K/am+I83wy/Zw8Wa3abjqUWmyQ6eg4aS7mHlW6gf3jLIgFfQv7NXwth+CvwC8G+ErfHl+HdItdPLAY8xo4wrN9SQWP1r5l+O1kfiN8cPg94EjBdNR8SDxDqCDkC10xDcDd7G5NoPxr7WhjEUYUDAAr9N8KMt9ng6mKf2nZeiP8+OKa6hh6VCPVuT/JfqLj5O3ShRxS0V+tnw6CkBySKWigZWubCK53b4o2BBB3L1z+lePfEn9gL4R/FnV31LU/BWmW2sO246npgbTb8N6+fblJevqxFe07ximA7cjHWuethaVVctWKkvNXOnDY/E4eXPQm4vunY+Wb79grxr4GU/8ACA/GPxHb26HMem+KLOLXbYei+YfLuQO2WmY1z95cfHf4XQsPEHwz0rxraQ8vfeEtYVJio7m1uxGc98LM59M19jcY96COCMZBHNfJ5jwFk+KTcqXK3/Lp+Gx7tDizFpWrxjUXmrP742b+bZ8T2X7bXgO0vo7LxLd6r4E1OQ7fsvinTJ9JJPoskiiJ+f7jnPvXqOj69Z6/p8d5YXtre2kyho5oJllRwechl4r3bXPCWmeJ9LmstR0+zvrO4UrLDPCsiSD0IIwfyrw3xZ/wTL+E+r3U99oOj3/gPVpjuF74W1CbSGDZzkxwssTc9d8bZr4XMfCRb4Oqn6/5o9ajxFl9TSpGUPS0l+jS+8nByM9KM81xurfsi/Gb4doX8KfFDTfF1tGRssPF+jr5rAfw/a7TyyPq0Ln61z/hr4z+MdB+NWm/D/x74ETQdb1bT7nU7S90vVk1HTp4rcxrISWWOWM7pYwN8eDuxng4/PM34IzTLYOtXh7i3ad0exQVHEJvC1Izsr2Ts0uujs3bra56lRRjHcnHc0V8elYjRIKKKVEMjBQASeAM459/r/SqSu7Lcln44f8AB058cI7rxP8ACv4bQSKXs4LnxFeqDyplYQQg+22OU/jX5J78Divp/wD4LQfHkftBf8FKviTqUM/n6boN4vh2xIOR5VooiJH1kEjf8Cr5ePXtX9CZNg/q2BpUuttfV6n88cV436zmNSa2Tt9wdaQsBTWOTSV6iVz51RFY5NMZuDSNJj2qNm3VSiaKI5pPxxTWYseaSms3arSLSFLAU1jk0lMeTFWkWojiwFRu/JxTWbNJVJWNFEOtNZ8dKR2yaStEi0rB1ophYgmimVYch3jjmlqBW2nNSLNmm0NxJlbPFLUYORQDg1LRLiTK2KlVhgVADmlBwahxM3En6U8MDUCv6U9TkVDVjNxJaVW21GGIp45FS1chqxKr08Hoar05XxUuIrC3i746/TP/AIIR/FY678GPFng2aTdP4e1Jb63UnpFOuD+Tr+tfmY7bl+tfT3/BG74qf8K6/bTtNIlk8u08YWM2msCeGl/1kf8A48v6162TVuSsl3PcyKtyV+Xufox+3h+xvF+2x8ILLw4niG68JanpOpJqen6rbxGWS3cI8bIVDoSrK/8AeHIFfM/w3/4N9/B0XiWHU/iN8Q/FPj14nGbZF+xRzL/deVneUrzztKn0NfoHnNefftYfFW1+B37M3jzxZd3X2NNG0S5khkDBW89oykIXP8RldAPU19alofcJ6I6vwH4D0T4XeENP8PeHNLstE0TSohBaWVrGI4oF9h9SSWPJPWsb9oHwA/xT+B3ivw/FhbrUtMlFq3dLhBvhYf7siIa+Rf8Agmz/AMFj/CHx98HaR4R+I+r2vhj4gWkSWv2y9cRWWvbcKsolPyxzsOqMQGOSpycD7qjYoyN16EHruH19DQBzPwZ+ICfFX4ReGfEqKVOuaZBdyqescjRjzFPurhh+FdLXlP7LK/8ACKr468EsSv8Awh/iW5+yA9Vsr3F7AR7AyyJ/wCvVvpQAVj+MIPP0uUY7H+VbFUdej82xkHtQB45+zBcf2Z8Y/H+m9rm3sdQUe482Fv0C1vftbfso6J+1h8ODpOoutjq9jul0rU1XLWcpxkN/eibgMvtnqBXL/DGT+xP2uBEfu6xoV1Bj+80U0Ug/QtXvY5FZVqMKsHTqbM7stzHEYDERxWFlyzjsz8QfjB8INf8AgV8QL3w14msGsdUsT0+9FcIfuyRt0ZGHRh6Edc19c/8ABIT9l/8AtrWrr4oavb5t9NdrLQ1k58ycjEtwP9xTtB9WY/w19K/t4/spWv7UXwcuY7W2j/4S3Q0a40efADStjLWzN3SQfk20+tekfBH4cWvwh+EHhrw1aRhItG06GBhj78m3MhPuzlifrXzOCyL2OM55axWqP2/iTxYeYcNqhTXLWn7s/JdX8zA/a9059R/Zi8amIMZrLTW1CIL1D27pOCPf93x+Nehadqaazp1reRkGO8hjuEI6EOoYY/OqPjfQU8V+CNb0uTlNT065tT9JImT+orlP2dfF0OpfsxeC9Yv54reJNAtvtUsjBY4zHEI3JJ6AFCPr0r6NaVGr9D8Zd55feS+GX4NHfDgUj/dNeD+Pf+Ch/gjwgZFtQ2oquf39xewafCw/vAzOHx7hee2aqfs+/tM+If2kfjBay6dJpFr4P0+xnmvLeyZ7kyyMVWHfOyrzkuQFXBCk5Nc0M0ws6yw8J3k+ybX4I8z2M0rvYvftkf8AJL9e/wCvCf8A9FtX7YfAr/kiPg7/ALAdl/6TpX4Q/wDBRD44+G/hZ4Dn03Vb+Iazr0Etvp2nRMGurtijAkJkYUddxwOO9fu/8DF2/BPwcMg40OyHHT/UJXemnsZmL4l/ZW+GHi/xJeavq3w38B6pqt8/mXV5d+H7Se4uGxjc8joWY8DkntVcfsafCAL/AMkp+G3H/UsWX/xqvS6KoDkvhz8EvBfwinvH8KeEPDPhZ78r9qOkaXBY/adudu/y0XdjJxnPU15L8LP+UnHxf/7Efwx/6U6tX0PXzz8Lf+UnPxf/AOxH8Mf+lOrUAdT+1b4N+NHjXQ7S0+EHjnwR4DuW8wXt/rvhmbXJhnbs8lFuYY1I+bJkDj7vQZB/Ir9qH/g0j+L37Z3xg1Hx38Tf2tk8XeKdSwsl5eeDXAijX7sUUa3gSKIc4RAFGTxkk1+6VHSgD8b/ANjf/ghD+0j/AMEsdC1GH4cftc6KfDN+xnu/DWr+BZL3SrmQ4zIImvCYnIABeMoTgZzgV79+wFZa5f8Ajj4u6x4mvdK1PXf7W0/Rbm7021e2tJ3trJZGMccjuyLm5IKl25B5FfYv7RWoG18KXHPBBH04/wAK+Wf+Cfdv9p+DfiDW8c+JfGOs34f+8i3JtkP4LbivzXxSxXs8ncP5pL7up7ORQ5sTfsj3Oiiiv5pPt7hXj37cVodc+CNvoAIP/CWeItF0Lb/eS41G3SQf98F69hryr4/Imv8Axp+BugswAvPGy6hID0KWdjdXIP4OsZ/Kvb4boe2zOjT7yX5nVg2lV5pbJN/cmfZemwfZtNgj7qoH6V+d3/Bwh+wynxy/Z8X4laFZNL4o+H8bS3QjXL3enHmVD6mP/WL7CQdWr9E4ruKRRiSM/Rqp+ItFtfEui3en3kcc9pewvFNE43LIjDDAjvxniv62zHB08XhpYeps1/TPjeEeJsXkGdUc2w7alTld+a6r0a0P5df2Rf2S/Fn7aPxisPBfhG2DXE/729vpATbabbjh55WHRRngdWbAHWv1Q+K/7IvhT9lj4D+G/gt4Kib7T481qw0bVNSkQfa9UaSQNdTyHsq26TYUfKi4GMkmvsH9kb9g/wACf8E+/hdq2k+E4Hkn1S7lu7zULrDXM4LMY4iR/BGhCKBx1Y8sxrwmSVviz/wUG0xTmWz+H+g3Wsyg9FurxvsluD7+Wt0RXxFTK6WR5TWxdSzqWeva+yR+teK3jLjeM8whhcNenhI2tH+Z95d/JH0CkccCLHEgjiiGyNQMBVHAGPpTqD1or+aJTcpOV7nxcV7qWxRtPDen2Gt3Wow2VpDf36IlxcpEBLOEzsDMOSFycA9Mmr1FQajqCaVYz3Up2xW6GV2/uhR1/KhXlJR6mz56klZ3eiOP/Zfsj8Sf27PHfiLaWsPAeh2fha2YjKi5uD9tuyPfZ9iH/Aa+tlGFFfN//BMDw9Mf2bj4vvI2jvfiXq954scN18q5lJth9BarbqP92vpBfuiv674Uy/6nldGh1td+rPiuJsQqmYThF3ULRXy/4NxaKKK+iPACiiigAooooACM0dKKKACmN8v4mn0xsk/pStdhewzgKeM4OcV8dWOrv8Vv26PiX4kYBrLwZYWXg6yYHI8zab26I98zW6H/AK5Yr608WeIYPB/hjUtUu5EhtdNtnuZZG+6iIpYk/TGfpXx5+xRYXU3wJtvEuoR+Vqnj++uvFlyp+8hvpmmjU/7sTRJ/wGvy7xUzL2OWRw63m/wR9jwpRcadbEveyin66v8ABHrR60UYx2I9j2or+cb9D37JbBXH/tD/ABctvgH8BPGfje7ZUg8KaLd6nljjLxxMyD/gT7R+NdhXwP8A8HHnx3/4VJ/wTou/D8E5iv8A4iaxbaOqg8tbx/6RMf8AyHGp9mr1siwjxOPpUV1a+44MzxKw+FnWfRM/n+1TXLnxLrF9qd7I0t5qdxJdTu3V5HYsxPuSTUFRxnametI74JxX9DNW22P5srSc5ub3bJc4qJ35OKZ1pCcCmlchRF60hYCk8z2ppOTVKJaiKxyaa5wKRpNvtUTNuq0jRRHNJwO9MPWimM2eKtI0URzNtprHJpKY8mKtRKSHFgKjeTLUjtkCm1SRoogeTRSeb9aKorlBWzxS1GDkUqnaabRTiSq+evWpQwNQA5FKp2mpauZuJPSo2DiokkqQHIqGiGrElKrbaip6tmoaJauTq/rTutV6cr461LVyHEnBwaeDkVAr/lT+tS1YzlEkrU+Gvj2f4WfFnw14ktmKTaJqMF2pBxwjgtn6jj8ax+lQajEZYT6HuP8APrW2Hny1FI3wkuSqpn9E2jazb+JdHs9RtXEltqEEd1CwPVZFDL+hFfkz/wAF+/21ZvGHj+1+C+hXDJpHhp477X2U/wDH3esm6OE+qxIwbHd5P9kV94/8EwPi1/wt79ibwbdSSCW80aJtHueed0DYUn/gBWvzP/4Ks/8ABPH4qaZ+2H4r8UaF4R1/xZ4d8bagdSsb7S7R7wxPIMvDIEBZGRsgbsAjBHt9vF3SZ+jwnzwUj4ZzsOQTwc8Gvv7/AIIxf8FE/Gvgr48+GfhTr2p3ev8AgrxTN/Z1nBduZJNGnZSY2hY8qhYBTHnaAcgAjnzPUf8Agn9o37Ntp8NY/jzqmoeC7j4ly3yOlrtmufDNvGIVt7ueLo6mVnEiZyqcghgQPvn/AIJ2/wDBG7wP+z78QNL+KEXjuP4l3FnG02hz2VukOnwM6kCclXcyOFJ2jIC7s4JAxRR9K3//ABQ/7Z1hP921+InhqSzfHR7zT5BIn/AjbzSD/tnXqn1xmvKP2u2PhvwZ4e8ZxBvM8A+IbPVZSOotJH+zXQ/79TMf+AV6w6hWIBBHYjoaAEqDUIvMtn/3TU9R3IzER6igDwHXn/sD9p/wLd9Fn1CawY/9draQD/x5V/SvoKvnj9pGQ6B4i8P6sOP7L1yxuSf7o+0Irf8AjrGvomVdkrAdASKAG0UUUK9w6joOJkJ5GcfhX56fE3XvFfxK+HWn/B/w3LbH+x/Fuo6XfWFhdMuty2aXEr/aUiI2mGJXUbgeDjvgD9CQcfhzX5+fEb4c+JvFn/BQnxr4P8L+I7jw/caxK99PNbw5vIrea2jkaSCTZhPmBQ/MvMoPNEMNTrVfZ1NmmephZt4Kqo76Nffqek/AT/gmT8GLCe5Mtre6zrdmw+1w6lai3urdjyGYODIQezlmyeM9qn/aP/a38G/sT2lr8PPhxpenDxTqkrpLJHG0tpopWEyPPdPnMkwiUlYt244GcA1wH7U37ZMvh/w54f0fwBrd7d+M/DNpFp/ijXJ5IUnsVuT5TWzyShY/tPmjd8xAjwT6KfnfxNp978B/CN14g1wC8g0uCGe7tLRzeSXaySsVuHuXGZ7kszE3AxGg/d4YNgfK55m+HwElQw0U6ktF3v0V9X+hhRoTqaz2RxHxq1lPiUtxrniS5vtQ1DXLlb6yunKy6lZyIoAmyvSNh9+MARxqRt+YZP8AXb8D+fgt4Q7f8SSy/wDRCV/Hj8SNP1RLjVDfRada+F4Y4JrBLC2+yDU/Ok2qbhskosRX54lIXeRxgg1/Yf8ABHn4MeEev/IFs+vX/UJWnDbm6cpVJ8zevkr9PXuRiklKyR09FFFfTHKFfPPwt/5Sc/F//sR/DH/pTq1fQ1fPPwt/5Sc/F/8A7Efwx/6U6tQB9DU2ThfpTqZK+1G+lJgeF/th+JE0DwNf3LnbHbQPK/0Vdx/HArx39hHQ30D9jf4cxSqRLd6NHqEuepe6Zrgk/jKa0P8Agqj4sbw/+zt4ylibE39k3McQHUyOhjX9WH412Xw/8Nr4M+H+g6NGMR6RptrYgenlxKn/ALLX4z4vYi1CjRXVtn0nD0LylI1+tFA6UV+Dt32PrArj/i38A/CHx0trKHxVolvqw012ltJHkeKW0dlwzRyRsrISvBIPSuwoqqdWdOXNB2ZpSqTpy56baa6p2PIF/Y10bRkUeG/GXxT8LEfdWw8Y30ka49I55JUx9Fq9bfDT4ueGFX+xPj14oeOPlYtb0PT9QQ+xZIoZCP8AgVeo02Q7EY+1e7Q4pzWkrU68l8/+CayxUpPmqRUr/wA0VL80eJ/Er4sftEeA9Bm83xF8KPFkITG270i+0qZ+v8Uc8wH4LXN/8E3J9W8feFvHfxG8RWVjZat4w197JIrKZ7i3S009fsyCN2VWKtL9oblRy3en/ty/E4eAPhfrWojl7CzlmRc/6xwp2qPctgfjXqv7MHwvb4Lfs6+CvC0gIutI0iCO7J6tcuokmY+5leQ17uZ8T5hisrdLFT5lJpdOh50vZVKycYRi1/KrfgtDusY64z7UUUV8F5nQ1awV5T+2rrl7p37Out6XpbFdY8XvB4X04g/MLi/lS1Vh7r5pf6LXq1eYeLdNk+K37Zvwl8IIqSWnh03vjbUFJzgW8YtbYH6zXRce8PtXu8M4F4vM6NFdWvuOjDSUJOtLaCcn8l/mfWPw68H2vw+8AaNoVjH5Vlo1lFZW8Y/gjjQIo/AAVup90U0EbeOPfFOXlRX9gU4qMVFH5TVm6lR1JbsWiijNWSFRt19hUlcf8ZPjP4a+Afw/1PxV4t1e10fQtJiM9zcznAVQegHVmJwAqgsxIABJAMVJxhFyk7JdTWjQqVqipUouUm7JLdvsdUHyfcVKv3RXLfCX4p6L8bvhtoXi7w9c/atF8Q2MOoWUrIUZo5VDqSp5BwRkHpXUr90Y4GKISUlzLqTVpTpVHTqKzWjXVPzFoooqyAprHAPfvTqY52tS9RHz1/wUz8XXOk/srap4esJTFqXxCu7bwjakfeBvpVhlYe6wtK/0Sm6DpEPh7RLSwt0WO3sYEt4lXoqKoUAfgK5b9r7UW+Iv7Zvwx8JLITZ+EbK98Z3qfw+btFlaZ9yZrkj3j9q7PpX85+KuZe2zKOGi9IL8WfpGV0fY5dSh1leT+ei/BB0ooor8sS1OpBX4b/8AB0d8eP8AhLP2n/Avw8t5i9t4O0RtQu41OQLm8fI/4EIY4/8Avqv3JiUPKoJCgnBJOABX8sX/AAUn+PB/aY/bz+KXi9ZTLZ32uT21kSchbaA+TEB7bI1P41+h+HmC9pjJ4h7Rj+Z8TxzjfZYH2S+0zxaTqG459KazbiTTXkJUKe1M61+utH4nyis2aSms+KYz00i1Eez4pjSUwnJpCcDNWkWoi9aRmwaazbqSrSKUQJyaKa0m3NRvJuFUkWojmf8AKozyTRTWfqKpI0URWO0UwnJoprP1FWomiiOoqOinZDsg6U9WzUKvzTxyKpqxTViSnq2eKhU7TTwcipauS1ckpyNtNRA4NOVt1Q0ZOJYDg0vWq9OV89etQ0Q4k4ODTwcioVkyadUtEOJJTleolO008HIqWrEuJMH9aZc/Mhx6UylY5jPtQtxJWdz9Ff8AggZ8WS9n488DTycxvDrVohPOP9XIB/44fwr9BPHWvav4Y8KXl5oOiSeItVhUC309L2KzFwxIHMsvyIoByTycA4VjgH8Yv+CWHxZ/4VH+3H4Tklk8uz8QM+j3GTwRMuEz9HCmv20ZdrEenFfXZfU56KPusrq89BeR+enxk/4I/wDxG/bm+Nc/jr40/ETRdD3qtvZ6H4atpL1NMtVJ2QRyzGNc8ks207mLHvivb/2fP+CRnwa/Z2itns7HxL4gvLZxMJtV1mcxNIp4f7PCY4SQefmU4r6bortPRMf4i+C4Pib4A13w5dhXg8QafcafJnt5sbID+Zz+Fc1+y942n+IP7P3hTUbxj/aUdiLC/B+8l1bM1vMD774mP413wbawIwGHr/n0ryn4C/8AFHfFv4peED8sMGrxeJrBD0+z6hHukA9hcxT5/wB6gD1U9abMMxmndKRxlTQB4J+2PpjXHw71Z0/1kVs8y+zINy/qte4+HdUXXPDunX6nK3trFcA+odA39a88/aB0gan4YuY2xtlRkPrypFav7MernXP2efBk7ktIulRW8mezRZiI/NKAO5HAooByKKACvg3/AIKF/tBa3+yX+0nrWpeGrWxGr+PPDNpbw6jNGWl0ryzNFJNEc7d21UGCOcDJ45+8q/Pf/gul4YYXPw81lER1aK7spd7lFJRkkUNgcj94TjvmvPzOrOnQc6e59lwNRw9bMvY4pXg07rvbU+Q/BBvvFHwZ8TQae2pzah4g8Q2FnDPBa/2hdXkyia4lcxuR5v8ACWLHBySeK9J03TfEfgbw5rUF7YQ6Hor6WIFsJZ4jdHUHwpljiDNHbRyA4eAsQ2MquTXIXenv4Rt/B+hXji0j0pTqOrSJa3QkivLnaV8iaFGEc0ESxj5u7FSDkit3xVqcPxJ0DS9R8Q2+pI+ga7PqcF29v9m/tcW0e8XbQsBgSgRq3AHmbSOpr8px8pVJKLs4Sd22m2u1tr7edr6G+a1IYnMpOj8LaSS0XbY838WeLp49e8R6Ot/Ha2l9qExtpCN0UEwcqAQeNkirtK9c7WHK1/Yj8D8H4LeEMAgf2JZcH/rglfxOfE7xG9nd2rOf9Ju7pRCuXRw28Fp142SKTvj+9wc+lf2yfBPj4M+Eccj+xbP/ANEJX6Nw9hPZUOa1uY4+MXhFjVSwi+FJPs31sdPRRRX0B8kFfPPwt/5Sc/F//sR/DH/pTq1fQ1fOnw2mS3/4KYfGKSR0SOPwP4ZZmYgBR9o1Y5JPsPwFAH0HeXUdjbzTzSJFDCpkd2baFUDJJPYV/Ml/wUv/AODsr44fEr4+63pnwD1qy+Hvw70a8e0068XTbe81LW1jYr9pledHWNZMbljRQVUrlien6CftP/8AB3P+zL4C+LOr/D600Lx/448OK82l6p4k0WG3WzKnMcjWollV50HOHwqt/DuBBP8AMp8Q9K0bQfHms2vh3VH1nQbe9lj02/eBoHu7cOfKkaNsFHKbSV5wSRk4o0ejA/Yj9j7/AILr+Pf+Cifw28T/AAw+LFpp2qeNLDThrekaxp9qtq2txWcsc89rPCmE8wxRuVaMDdhgVJAJ/cjw94nsfG3h+w1vTLmO80zWLeO9tJ4jlJYpVDow9irA1/Jj/wAEpP2jfh3+yN+0dcfEr4hy61cReG9Juk0jSdJtVluNUvJ0MIUu5WOONI3dizE87QA2Tj9Wv+CY/wDwWbtPH+tah4R+Gunm60+ISX8HgbxJcfZbq0QsWlOnXsYdTFuYsYJE+TJKkLkV+beIfCmIzalCrhNZwvptdHtZPj4YabVTZn7AUV8uad/wU1ayYLr3wl8cWI/ik066s9RUe+BJG2P+A10Glf8ABTv4U3BC6nL4v8OHuNU8NXaKv1eNHXH41+HYjg7OKGkqEvkr/irn1MMxw0tpo+g6K8s8L/txfBzxk6pp/wATPBjSseIrjUltX5/2ZthH5V6NoXifS/FMIl0vU9N1RGGQ1pdRzgj1+UmvFrZdiqWlSm1950RrU3s0y7VfU5/Itmb0U1aeJ4+WRlHuKwPHOpfYNHmfOMKf5Vzwg20mi3JWufLH7SVt/wALe+PPw98D7fNg17xHBNfR9jZ2ebufP+yRCqn/AH6+xXYu5Y9Scmvk/wDZd00/Er9tzxXr7rvtfAmgpp0LHot3fyb3/EQW6j6Se9fV+c16ubPkVOgvsrX1ZzYVXcp92FFFFeN5nU0LjI6e2a4/9iDSZPiH+0x8YPHkuJLbTLq08E6a2OQlpEZ7gj2M90yn3h9q2vHPiy28BeCdX1y8cR2mjWU19O5/hjjRnb9Frc/4Jw/D+78B/sh+E5dSXGseJYZPEepbh8xub+RruUH3Vpin0Wv1jwny51cfPEvaC09Wc+bV/Y5bUmt5tR/V/kj3UDJJxUi9BUYJ3DHcU8cCv6HR+b+gtM24cnt6etOLAdTXzF/wUI/4KdeBP2BPBzyatdJq3iq8jZtN0K1lH2m6PIDMekUQPV244IAYjBxxOIp0abq1ZJJdWepk+TY3NcXDA4Cm6lSbskv6/E9S/ah/an8GfsjfC2+8W+NdVh03TrUbY4/vT3UnJWKJB8zu2DgAds8AEj+fn/gpB/wU28X/APBQb4gN9oebRPA2nTM2k6Gkm5BjIE05HEkxB/3UBwvUs3n/AO2J+2r47/bh+J03iXxtqLzCMsun6ZCxSy0yI87Ik9Tj5nb52PU8ADyT7rHnPv61+R8RcVTxrdCh7tP8X6+R/oj4MeAOE4ahHM85Sq4trbeML9F5+f3H7x/8G6H7QifFH9iuXwpcz+ZqXgPUZLEIzZb7NITNC30+Z0H/AFzr9CVOQK/n7/4N+P2lk+CH7cEXh29l8vS/iHZtphDHCi6jzLA36SoPeUV/QIn3BX3/AAtjvrOAi5P3o+6/kfyH4+cKPI+MMRGEbU637yPa0t/udxaKKK+kPxcKjkIDZPQDJ9qkrj/jv8RbX4RfB3xR4nu2VbbQNMuNQmJOPlijZz/LFZ1ZqEXKWyNaFGVWrGnDdu33ny58KL5vib+018YfHDs0sSaxF4S04t0EGnxYlx7fap7kH/dr1MdPWvNf2QvBF14C/Zz8LW+ohzrGoWv9q6mx+815dM1xOT/20lcfhXpX06V/H3EWPeMzGrXfWTP1PEqMZ+zgtIpRXy0CiiivDZz3seQ/t/8Ax0X9mr9in4m+NvMEVxo2gXK2ZJxm5lXyYQPfzJFP4V/KbHK00jO7Fnf5mY9Se5r93v8Ag6F+PP8Awg37HPhTwHbzbLrx3rwnuEBwWtbRN5OPeSSP/vmvweRsLX7fwFgfY5d7WW83f5I/IePMZ7TExoLaK19WSs+BTGkyOtMJyaK+1sfBKIE5oprPjpTetUkUlYVmzxSUVG52k1aRSVySonfBOPWmE5NFWkVGIdaazcGkY5NJVJGqiGc0jHaKazZ4pKrlL5QJyaQnAoZtoqJpM9KuKKSH7zRUXWiqNOUKcr1Ep2mng5FNqxXKTq2aWoFO01Isue1Q0ZOJIjYOKfUStupahxIcSZXx1p3WolbPFLS5RcpKDg5pyvk+9Qqdpp4ORUtEOJOpyKWq9OV+lQ4mXKThsHNLv4qMPzzTqVkwtbUl0rxBP4R8R6bq1qSlxplzFdRsDyGRww/lX9Cfwy8bwfE74b+H/Edswkg13T4L1SPWRFYj8Dur+eC+UPF/Wv2R/wCCNnxbPxM/Yl0mwkk8y88JXkulOM5YJnzIvww5H/Aa93Kqmjiz6TJKtouDPqoHIooor29T6IK8r+IX/FE/tW+ANcHy2/izT73wpdns0qj7Za5/GOdR7tXqleX/ALYthOvwJvtds0L6h4IvLXxRa465s5VkkA/3ofOX/gVAHqB60EZFRWV/Bq1lBd2riS1u4luIGHRo3AZT+RFS0AcZ8WbM3Ghy8Zwp/rmuc/Y1vd/wZlsc5Oj6zqFpj/Z84yL+kldt8QLf7Roso/2TXm37IV19j1X4g6Wf+XfV4b1B/szW6Kf1iagD2kjBooooAK+UP+Cu+jqfgh4T1saS2tzaH4jjaKzVDJ50kkT7BtHLAOiMVA+baR3r6vrw/wD4KMRXEH7JeuarZo73nhq9sdZhCjndDcxk4+qswrzs1g5YWaSu7M9jIZ8uOgr2vdfgfm18EPiVqHhfW10i+8QNcar4yvJYdRs7aG5hlmnUedFdtHIimJ32mBwDhlKnsa5b4mfEPVNY03U57qezuV1e5kGki1tVj8rTUkJQkD52eSVR97JZYcjg16D8XPjDqx1x7GWcy6BaWrprF6biY3wvHmkAsoSGCpKUCdiETcxPQHw7xDrEmq6gb27aOLzZYyUVpEihRSoSNTGN6oqqACozxnHWvy/A0FWqrEVKfK5Jdn10torP9D9B4V4fq1/bY6afs6Kbu+sjgPBmnp4/+LV9OyC6sPDFqfs8aNK0Uku4IhVZPmXdIxkK4HQ8Cv7afgfz8FvCHOf+JJZf+iEr+Lf9ly1a78K+MNRLl5GvVLMWLOSsNw4OTycnHJ5yK/tH+Bgx8FPB/T/kCWXT/rglfpGArXrzpLaFl+B+Y4uTlL2k9XK7Opooor2TkCvhL9sPw/4m8W/ED9sjTPBqzv4qv/gjp9vpaQ/62S4ZNbCKg672PC+5FfdtfO3ww4/4KbfF/PH/ABRPhkjHX/j41b/PPY0AfxHTxtDM6OrI6MQysMEHuDmvRfgF+y94x/aQi16bwvpwnsPDENrNqt7M3lWtkLq7is7cPJ0DSTzoir1PzHorEf1T/tbf8Gxv7KP7XvxhvvHGq+GvEXhLXdXna61NfC+qCwtdQmZiXkeF45EVmPLGIJuJJOTk1+Yv/Ber9p39nr/gn7+y5a/sf/ss2Oj215c63aa9461XT7j7Y8cto4kt7e4uixM1z5yI7KWIiESqACxAAPxw+Kfwv1/4K/EjXfCHinTbrRvEfhm+m03UrG4QrNazxOUkRh7EHpwRzX03/wAEH/h9r/xR/wCCtfwS0zQLe4nmj15bi9MSkiKxSN2uXcjogh3g567gO4r9svgN8FP2M/8Ag54+DeheOfFtgNF+O2madBZ+Lo9C1JdM1uOeNFRpHQqy3Nu23McrRvtUhNwKlR9xf8E6/wDgjf8AAj/gmBZ6jJ8L/C9wmva1H5F9r+rXRvdUuIcg+SJCqrHHkAlIlQEgEgkDABu67+xfpN477LePB6fLXG63+wjZylvLgVc+lfXflAryM002yN1FFgPgrxd/wTqstXjZZ9PtrtWHKzQrIP1FflZ/wcXfsr+Jf2NvhB8PvGnga2vPDFjJrVxY6pf6MGs2SR4Va3WV4iPlOybG7jPuRX9Ir6bDJ1RT+Fcb8a/2e/Bf7Rnwz1nwV458OaZ4m8La9Cbe/wBOvYt8NwuQR0OVYEAqykMrAEEECspUKb3imUpNbH8Zfw4/4K3ftJ/CrYujfGjx5BHGRiObUnuU49pNwr6o8Pf8Fnf24NM+E0PiPUtVtPEWgXGky62jano0Uk81hHdJavdAKqsYhM4Ut04Y9ATX616//wAGwH7C/wCzBeX/AMSfGf8AwkNn4S8P5vrm18S+KvK0O0RPm/eNtSVk4+60rbuhznFflD8eP+Cq2n/tJ/8ABXqO++FfhW3/AOFa3Wgn4T+FtGW0WBJtOlzGk4gwAga4ZZRGRxGiqec15eKyfLZRdStRg7a/Cjenia17Qk7n7Gf8EZode8T/ALDmi/EHxbFBF4p+KtzJ4lvxBH5aJGyrDbqo9BDCpH++a+rKwfhZ8PLX4Q/C7w34TsVRbPwzpdtpcAQYUrDEqfqVzW8etfyVnGJWIxtSrFWTbt6H6BhqfJSjEKKKK825vrsjx/8AbUim8VfDLS/A9q8iXHxK16x8MMVHzC3mlV7sgegtYpyfpX2to2mR6NpVvaRKqxW8YjVQMAADAFfIegaSPin/AMFCvCOmtuex+HXh268RTjqq3d432S2z7+Sl6RX2Kgwor+k/C3Lfq+Vuu1rUd/kjwOK61lRwy6Lmfq9vwQoGBVO+vI7FHlmkSONeSWbaAOvU/T1q5Xxb/wAF1/hx40+IH7BfiC48G6xqmnP4fmXUtUtbKQo2qWKKRNCxX5ioVvMK5wwjIOQcV+h4zEOhRlViruKbt3sePw7ldPMszoYCpUVNVJKPM9Uru1zxT/gpl/wXz0T4Pf2h4M+Ds1l4k8VRkwXWtgiTTtMPIIQ5xPID6fID1J5Wvxp8f/EHXPiv4xv/ABF4l1a91vWtUmM9ze3cpeaVj6knAGDgAYCjgACsQEAEdQe9IeOO1fh2c57iMfUvUdo9Etkf6p+G/hRkfCGEUcFDnqv4qj+KT/RdkgYgscdKULnnNNNKqnbmvDXY/Udd+pq+DPF+ofD3xjpOv6TMYNU0S6iv7OUdY5onDofwIB/Cv6j/ANk7486d+0z+zx4S8baY+638Q6dFcMucmGQj54z7q+5T7rX8rm4sAPev1/8A+Dab9rk3mj+KPg5qlxufT2OuaMHfJ8lyFnjUeiyFGx/02b0r7vgjM/ZYt4ab0n/6Uv8AM/lP6VfBTzHI6eeYePv4d+9/glv9z1P1rGNo9aevQUxeQMcDHXOc1IORX62j/O3qFfMv/BTvUzrfwm8OeBInPnfEfxNY6LMink2iv9qu8/7JtreVT/v+9fTRIFfIXx31Bfih/wAFCtG07cJbH4a+FpdQkAOQl7qMvkxZHqsNtOf+2tfNcYZh9TymtVW7Vl6s+i4YoKeOVSW0E5fdt+Nju4olgjREXaiDaoHYCnUHk0V/I0neTlc+wb1Cgf8A1hRUd7qUGjWU17duIrSzja4mduixou5j+CqTVU4OclFbsibSi29j+fz/AIOYPjz/AMLP/wCCgdt4Tt5vNsPhzocFiyhuBcz5uJvxAeMf8Br88ScDnrXfftW/Ge4/aK/af+IHjm5kLv4n126vkbPSNpWMYH0TaK8+PU1/S+W4RYbB0sOvspH8/Z3i3iMbUqvuKzbhSUVG52k13JHlpXJKjY4JNRk5NFVylRiKXJpKaz46U3rVJGkYjmfHSm9aRjtFMJyatI0SsOL4NNJyaKYz4zk1SVykrj6Y7Y61GzZpKpIqMRWOTTWO0UjP1FNq0jRKwu80Um7HeiqKsAORRUCnaakWXPam0NxJEbBxT6iVt1LUtXIcSZXxT1fvUAf1p3WpasLlLAORRUCttqUSZFQ4mbiSq2eKWoxyKKhxIcSUHBp4ORUKvjrTutLlFyklOjk2nmoaerZqSHEfORIpI7V95f8ABA74s/2P8V/GngmaX93rdimpWyE8GWE4YfijE/hXwVw1esfsDfFo/BH9srwJrjSeVatqC2V0c4HlTfu2/wDQs124CfLVSPQyypyVkj95aKWRdjkDGAccUlfT3uz7HoFQalpMGv6ZdWF4gktL6F7aZT0aORdrA/gTU9BI4+uaAPMf2O9UnuPgFpWkXzl9S8HXFx4YvC33t9nKYVJ9jGIm/wCBV6dnNeVfDTPgn9qX4i+Hz8lt4mtbLxbZL2LlTaXWPffFE3/A69VoAzPE8Xm6bIvqD/KvHP2fZv7I/aQ8WWR6alotvdKP7zQzuh/SUV7XqyeZaOPb+leGeG5P7C/a70F/ujU7C/sW9zsSZf8A0UaAPfsYoo/SigArh/2mfDLeMv2cvHelID5t5oV2IyOodY2ZSPcFR/MV3FR3tguq2c9rIMpdxPAw9VZSp/mayrxUqcoPqjrwFTkxNOXZr8z8OfiJbXIs/D120gOk6lYG7s4RnFtIXKTo5Jy8xcAvIeW3DoABXLTyNCVkDurRMrK6TmBlwc5EgB2f73Yc9q9r8bfDO4/4VZNpqQ+ZLp7zapYmOARrugJhv7VWUsGkCxRz8gE/Mcd68UKieEsQrxMuOOQVPp9c/rX5jOlOjWcJbp/f1TP6x4KxeHzLJauXwSUlzJr12bMP9mHWI9Jv/HGjyuszlluVaKXzVdFaSKQh/wCIbZc571/aV8DRj4KeD/8AsCWX/ohK/iW8T6te+DfilY+JGmkuW1ImxvVlnRpJxsEbEIoG2Moyhc5OVPpX9tfwRG34MeER6aLZ/wDohK+9y6knUliIvSaX3pan8q5rhZ4XESw1VWlBtfidPRRRXrHmhXzz8Lf+UnPxf/7Efwx/6U6tX0NXzz8Lf+UnPxf/AOxH8Mf+lOrUAdT+1Z+xN8Pv20dDtNL+IVlr+qaZYiQLaWPiPUtJgmD43eatpPEJeBgb923JxjJz80p/wbLfsRFAT8D7HOOf+Kg1b/5Kr7zooA+GPD//AAbefsaeEtah1DSfhDJpGo2rB4Lux8VazbXEJHdHS6DL17GvsT4Z/DnTfhL4C0rw1o51H+y9Ii8i2+36hPqFwq5JAeed3lkPPVnY4wM4ro6+T/8AgtB/wUUl/wCCX/7BHin4n2Fjb6p4iE0Oj6Ba3IJt5L+4JEbSAEEpGiySkAjcI8ZG7NAGr+2p+yJ8a/jVeX2q/CP9pXxf8I9Ue2VLfTW0DStX0YyKuASs1v8AaF3EZYiU4JJCkfLX8/H7aX/BXD/gpL+wX+07f/Cfx78U9RTxVbSR/YvsXh/S7iHWYZW2wzWrC0zKkhyFwAwYMpAYED5b1r/guh+1zr3xUk8YP+0B8RYNUabzhBbakYdOjySdi2a4t9gzjZ5ZFfadv/wXL+G/7YHj39mr41/HfR7F/in+zxea4+tW1hbiNfGEa6eZ9JkiBG2NzfxorLysbMXXCttUA/VD/gnj+xl+2748+G+jeKf2if2p/Fnh3UtTiS6bwj4c8OaIk9gjciO5u5LR/wB7j7yRphScb2wRX6QW8ZigRCzOVUAs2Nze5xxn6V/HB+1L/wAHBP7V37UvxavPEj/Fzxb4IsGuTNYaH4V1KXStP06MH5YwIiGlIGPmlLsxz6gV+yH/AAa3/wDBbrx9+3zceKfg78XtSHiPxj4U00a1o/iBo1judSshIkUsVwFADSRtJGQ4ALK7BslcsAfb37VH/BGj9nL9rHxbqHiX4m+DNc8Y6hdzvdMt94v1lraJznPlW4uhDEPQRoABwMCviS2/4JJfs7/A39v74TJ8NPhva6Bqulalc+IJ7kaleXZit7OEkfJNK6jdPJAuSPXmv1k+KOs/2X4cncnadh/lXxN+zfG3xE/a0+J/i5vnt/DlpaeFbJj0Er/6ZdY9/ntl/wCA18pxrmP1PKK1RbtWXzO/LKPtMRGPz+4+hC24k5znmijpRX8lt3dz9BWwUHp0B4xz0+n4/wBKK5H4+fEaL4RfBLxX4nl5GhaVcXiJnmSRY2KKPdmCj6kVpQpudWMI7s0pQ55qK6ssf8E6dKXxf4m+LPxEkBZvEPieTR7CQ9GsdNT7KuPY3C3Tf8Cr6mHSvKP2K/hEfgf+yz4H8NTD/TrHSYTfk9Zbt13zt/wKV3P416uOg71/Y2R4KOEwFLDxXwxX/BPgs+xKr4+rNbXsvRafoFZfifQLXxRol7p15Gk1rewvDNG67lkVhggjuMHFalRHcHIGMelenJXVmeVCcoSU4OzR/L1+33+zLP8AsgftZ+MPBLRyRadZXbXOlO3PmWUp3wEHuVU7Cf7yNXjJ69MV+y3/AAcufsox698OvDHxc06Bftnh+YaRqzAYLWsrZic+yTcf9tzX40nqa/COJMueDxsqdtHqvRn+sngpxkuJOFsPi5v95Bck/wDFHS/z3ClA+XrSU5BuOPQV4B+s7uwgPA7e9elfsh/tFah+yh+0j4T8fae8jHQL5ZLuFGwbm1b5J4z65jZwPQ7T2rgNF0i78RanbWNla3N5eXUixQW9ujSTTuxwqoi8sx6ADqe1fq1/wTT/AODfSXV/7P8AGnx1tvKhbbNa+E1kOSDyDduvTt+6Q9eGPVa97I8uxeIxEZYZbNO/RH5V4q8ccP5Lk1Wjnc01Vi4qC1lK6tou3m9EfrR8OPH+n/FLwFo3iLSLiO70vW7SK+tZk5WSKRA6sPYqQfxre6Hg1n+G/DNj4O8P2emaXaW9jp+nwrBbW8KCOOGNQFVVUcAAAAAcACtDAKj1r94jzKK5tz/JnEOnKrJ0U1G+l+3QjndYYnkYhQg3Gviv9mO9X4h+Lfid8Qj+8/4S7xXdQ2UoH37KxAsYSPZjBI4/66V9Fftl/FofA79l/wAb+JkwbvTNJneyT/nrcsuyBB7tKyL+NeQfs+fDhPhF8EPCnhlAHk0bSoLWV8f62YIPMc+7OWP41+Q+LOZ8mGp4SO8nd/I+04ZocmDq1usmor0Wr/Q7H8vwooByKK/n5HsBXzP/AMFh/j5/wzl/wTd+KOuxTeRqGoaYdDsCDhjNeHyOPfYzn6CvpivyQ/4Otfj3/ZPwu+GHwzt5sSa1fz+Ir6MHGYoF8mEEehZ5T/wGvpOFMD9bzOlTeyd36LU8rO8UqGCqVPJn4o24bYP9miSTcTTQ2M4ppOBX9FNdT8El7zuxaKYzbhSUJXFGI4v6U3rTWfHSm9apKxolYezYNMPJopjNVJXKSuPpjNnimM+eKbVJWKURzvnim0jHaKYTk1SVzRIcz46U3rRTHkxVpFJDiwFMZ/ypjNmkquUtRFLnNFN3iinYrlGo2Din1ErZ+tLVNFOJKrbakSSoVbNLUtXJ5SwDkUoODUCvjrUq/dFS0ZyViRW3UtR0VHKQ1clVttSK9QB/WndaTQuUnVg1LUCtgU9X9DUcpDiTK+OtO61CsmTTqTViWrElRzXUljLHcRErNA6yIQf4gcj+VAODTbsboz9KqErSTKpu0kz+gv8AZg+KEfxq/Z18FeKEkDnWNIglmI/56hQkmf8AgSmu7r4o/wCCFXxc/wCE3/ZR1Lw1NLvufCGqvGiE5IgnXev4bg/519r9a+qpy5oJn2lGfNBS7hRRRVmp5V8cm/4Qz40/CzxcPlhbUp/C18/YQ30eYs/S4hi/77r1UjBweorz79qrwfceOP2efFVrYgtqlnaf2rp5H3lurRluISPfdEF+hrrPA/jC3+IngjRdftCptdcsYL+Mjsssavj8N1AGheJvt2HtXgHxNcaB8dvAmo/dEevRQOf9mZHhP/oY/KvoKYbkI9q+ef2t1bSNHTU0GH0u7tr4f9spo3/kpoA+iD1560UsjrK5dTlXO5T6g0lABSxuY5Qc9D+fQ/ypKM0MqPxH50+OtD0qf4k+MvCETWkPi/RfEWp6hosskLFrY+b5qsWjXf5ZEpVlZZVKsx+TrXy78ZPh0nhu9l1WyhSHT57pre8s4pBL/Yt51a3Lrw0Z5eJ+jKcdQa+nf2+fBt/pn7VOp6jpNwVvdJ1/SPES2yXc4mlgmtxBO8UEfMhBjG7y2D4zgEDjxP4qeNtT8Nf8J2l3pNpqsug67b2FyLq1ut+p2F1yIbi4ZVOVc5jeVRIh6McEV5+ZcPrH4SOIwrvUho13S6evY+8yfi6vkOcfWYL3J2uu6sfPfii2W5tjHKJJbeV0aaGNxH5pQkoSSCflY5xnnpX9o/wR/wCSMeEemf7Fs/8A0Qlfxn/tN+Gh8KtS06COLULI6vMoj0/UEMd/Z8glWHKypg/JKmVYc9a/sw+CP/JGPCPOc6LZnPr+4SuPIqdWFFqqmnfZl+ImbZdmOOji8B9pe96nUUUUV7h+fBXzz8Lf+UnPxf8A+xH8Mf8ApTq1fQ1fPPwt/wCUnPxf/wCxH8Mf+lOrUAfQ1FFFABXx3/wXQ/4J5at/wU0/4J4+Kfh14cuLa38XWtzBrugC6cRwXF5bFsQO54XzI3ljDHAUuCeAa+xKKAP4jdS/4JO/tJaDr3iOw1P4K/EHSG8JWs19rN5qWlPZ6dp1vCpeSZ7qTbB5YVSdwcgjpnivnU8E1/Z//wAF4fhL4s+Of/BJL44+G/BMN1eeIbnQhcRWlshaa9hguIp54UA5ZnhjkUKvLH5e+K/jBcYYg9QaAPVvhf8AsSfFv43fCmbxt4J+Hnirxn4atL/+yrq60GxfUTZ3O1XEc0cIaSPKspUuoVgTgnBx+8n/AAad/wDBHn4lfsk+J/F/xw+K/h2+8G33iDRxoPh7RdRiMN/5DyxzT3M0R5hBMUaqrgMRvJAG0nA/4MlPgn4v8PfDr41+Pb2C9tfBPiW503S9LMiskV/dWv2lp5I+zBBOiFhxklc5UgfuzcSbYWPHAJoE2ePftV+NIvDPgy7lmkEcUMTvIx6IoXJJ968B/YD8OzaZ+zJpGs3aGPUPHF3deKroN97/AEyVpIgfpB5K/wDAaf8A8FRvEN9qvw1l8OWHmLf+M7y28N2bAfx3kywMfoqM7f8AATXrej6Na+G9HtNNskEdlp1vHaW6DokcahVH4ACvxjxczLlo0cH3d36LY+m4fpe/KpLpoWPp0ooPWivwa3c+rCvIf2prEfEPXfhr8PlAlHjPxZafbYv71jZZvrgH/ZYQJGf+uvvXr1cB8EtPT4n/APBQ/U70qs1j8MvCiWS8fLHfalN5jkf7SwWsX4Te9fW8EZf9bzilBrRO79EawrewhUxD+xFv57L8WfXMEYgiCKMKowKmHIqMDB7YFPU5Ff1jFWVj8qvd3Fpj9afUbHc314qrXEzzv9qz4H6f+0d+zz4w8FagoMHiLTZrMMRkwuy/JIPdXCsPcCv5avGfhK+8BeLtV0PU4vs+paNdy2F3F/zzmico6/gykV/WyRxjA5r+ez/gvX+zp/won9vbVNVgiK6Z49tY9aiIXCCfPlzoPcsoc/8AXQV8Bx3l/tMPDEreLs/Rn9d/RN4teGzfEZDVl7taPNH/ABR3/D8j4o5yCeh4rvf2dP2afGv7VvxLtPCXgXRp9Y1a5ILEDbb2kWeZJpD8saD1J5JwAWIB9B/YI/4J6eOP2/8A4lDS/Dlu1h4f0+VTquuTxk29gpOdq/8APSYjlUBHqSBzX9Av7Gn7D/gT9hz4XQeG/BulxwswWS+v5cNd6lMBgySvwSfRRhV6AAV8tw9wtVxrVat7tP8AF+h+8eMXjzgOFqcsvy5qrjGvlDzl59keMf8ABNH/AII8eCf2F9Hh1zU0tvFHxEuI8TavPD8lkCMGK2Q52L6t99snoPlH2hEgSMADAApq9M1IOlfruDwdHDUlSoRskf5z8QcRZjneNnmGaVXUqS3b/JLol2QYzTJG4x0p9RswJ5PFdT2ueKfLv/BRvV08X618LPh3Gxc+J/FEWo38WMhrLTkN4+7/AGTMlsv/AAP3rpulec+KdXHxQ/4KGeJ75fnsfhv4bt9DjJHyreXsn2q4wfUQxWY/4FXo1fzJ4mZisTnEqcdoafM/TcLS9hgqNHy5n6y1/KwUUUV+d3L6igFuBkZPftX823/Bwl8fP+F3f8FOPF1pBM0uneBbeDw5bgHKh4V3TY9/OkcfhX9GPxD8d2fws+H+veJ9QdY7Hw7p1xqdwzHChIYmkOfqFx+NfyGfFD4g3vxZ+J/iHxVqLmW+8R6ncalMzckvNIzn9Wr9S8M8BzVauLfRWXqz4XjbFcuHhQW8nqYzNxj0pKTtnOcimHk1+vH5bbqOZ8dKb1opjtg8mmlcaVx9NLnNRl/Sm9apKxSiOZ/zpvWkY7RTCcmqSuaJWHsdophOTRTS+DVJWKSuOprPimO/50zrVJFKI9n5ph5NITgU1m3CrSLURzNg00sTSUxmycVXKaKI+io6KooKcH9agU5FSIcim0Nol60oODUVOTvUtEtEqtupajpV+8KlqxEokittqUSZAqAHOaWpauQ4lgHNFQp0p6/eFS1YjlJVfHWndajoqWrkNXJKcr1Ev3hT6lqwuUl3miRvkqKikSo6n2r/AMEJvi1/whn7Vmq+F5pNtt4u0p1RSeGnhPmL+Y3D8a/XfrX4A/sQ+Jbzwl+2T8Nb2xlMNwNeto93+y7hGH4qcV+/8gxI2OBmvocC70kfVZfPmpISiiius7hQRnDKGQ8FT/EOBj8Qa8p/ZDZ/D/w91nwfK2Zvh/r97oig9RbeZ59qfp5E6AfSvVa8r8CD+y/2y/iDZwfJbap4e0fVLhOzXCtdQbx6ExxxqfXaKAPU5B8h6/jXi37WGhnWvAOrQgfNJaSquPUqcfqRXtOcpk9xXnfxyhWXQJtwyCp/lQB1Hwu10eKPhf4a1LOft+lWs5Pu0K7v1rdrzv8AZMuXm/Zp8HsxyYrAxr7Kkjqo/IV6IepoAKKKKLAfAP8AwVO8S6x8M/2rfAl3pzWTWPjDTItPvoLy3EtvN5U8oU9mVl8wYZCCNx5rB+JnwxHiH4dyap450CaGy8WaPDHFq9zdSTwxRoPMi8u9X7pjI4jukI4xvxXUf8FwoFtYfhNqCDbdQ6pNGj+g8y3NfUv7Isi67+zV4ft7uOK4gEE0DRyLvR0WeRQpByCMCvlqWHqf2nKph6jhK19OvqtmfU5zGP1TC1Gk+aOt/I/F7S/i5bfGL40eLtdlngu7PwpoEtv4fhuUWFOGSPzFjBKq7bmYhMcniv7LPgeuz4K+EBnONEshn/tglfyn/tzfDnw38OP2gvHUugeHtH0czXCoy2luIlHEakqB93JcsduMnGcgYr+rD4IAL8F/CAHA/sWz/wDRCV6OBxDrYyvJt6NL7kfNSSUIpHUUUUV7BmFfPPwt/wCUnPxf/wCxH8Mf+lOrV9DV8meJvGd38Nv2xP2lPEmnrA2oeHvhbompWyzKWjaWI63Ku8AgkZRQQCOO460Ad3+2f+yT8I/2q7TTbH4l3l7p15brJDpl1Y+K7vQbuLeV3eW1vPH5hyFOHDjPbtX88/8AwX4/4JwfGz/gkr4w0rxV4R+NHxZ8T/CHxdeNaWFze+JLs3ui3eC4tLhlcK+5FYxyBRuEbgqCoLfmt+0f+0148/aw+MGqeN/iF4n1bxP4l1e6eWa7vJ2cxZbISJTxFGvRUQBVAAAAFfoF/wAEzv2s/Hf7Vf7DvxB+B3xF1u48YeBPB3iHwXrehR6ozXF3pTy+JrC0lgilYk/Z2iuJB5ZBCk/KVBYEA/RL/gkJ/wAEJ9Sj/Z20P4p/tW/Ff4nX2o+JreK+tPCUnjjUNMsNJt5AHiF5Kk6SPcOpDFA6qmQpDkHH6+/CfwV4f+Hvw50fRfCgjXw5p0AisAl292vl9v3rs7vyT8xY1/HJ/wAFlv28fih+2Z+3H8Qj468TXl9pfhfxDf6Po2jwyPFpmlWttcyQxpDBuKqxWMFnOXZiSWPGPrn/AINHf2z/AIj+DP8Ago7onwft/El7cfDnxvpmoTX2iXUjS21vPb2sk8c9upOIZMx7WK8MrEEEhSoB/UI2R1zgHOe9fJfxf/4IQ/sj/Hj4pTeNPE/wO8JXfiK7n+03U1u1xZQ3kpOS8sEEiROxPLFlJYk7s5r64hcyQox6sAadQBheAfh9onwp8F6d4d8NaPpvh/w/o8AtbHTtPtlt7WziGcJHGgCqPoOSas+I7v7HpcrYIbGRjtWpX58/8HL/AO1b43/ZA/4JaeJ/EXw/1d9B1/V9XsvD51GIEXNnb3O7zWgYEbJSq7Q/JUM2MHBCbsJnF+IvgV4M+IP/AAVm8PeJtOt5W8ReHbC+8Qa26avcTQh9i2lt5lsZDDHJulZgwRWxFnOM19dda/I3/g0e8PwXv7Ofxc8W3TT3niDWvEtpaXl7cSmSWaMQFwCx5J3OxJJOa/XLrX8xeJuLlVzudJ7QSSPuckpqOGUl1Ciiivz29j15bDZphBGzEhVA3E+mMVif8Ex9M/t/4Y+LfH0i/P8AEfxTe6vbsVwzWcbCztef7pgtkYf75rC/ag8QXXhL9m74hapYyeVe6Z4evLi3fGdji3dgfwNe6fsqeFrLwR+zf4F0jT4/KstN0KytoVJy21YEUZPc4HWv2PwiwUJYmtiOsVb7ziz2o6eVtx+3JJ+iVz0ICpAMCmqOBThyK/fUfni7BRRRQMK+QP8AgqN/wTAt/wDgopP4BB1ddCPhrVXe/uVj3zyWMifvY4uwkLRxbS3yr8xwcAH6/qAuc9utc2LoU61J06yvHserkmd4zKcZDH4CfJUhs+11Y4j4Afs9eFf2Z/hfpvhHwdpNro+jaZGFjiiHLHqzux+Z3Y8ljyxJzXep9wY9O9Rg/IPripFGFFbU4RhFQholscOJxVbE1ZV8RJynJ3berbfVsWiiirMAqlrN6mmabcXMjBUgRnYk4wMdau143+3/AOJrzwf+xX8UtS0+XyL208Nag8MoHMbfZ3ww9weR7iscRU9nTlPsm/uOnB0VWxEKL+00vxPBv2MriTxZ8PNa8bzKwm+JHiK+8RIW6/ZpJfKtB9BaxQ4+teu8Dp0rA+FHh+18JfDDw7pdjEIbLTNNtra3TrsRI1VR+QFb69BX8a5tiJV8XUqy3k2/xP1DGyvXl5O33aBRRRXAjmPiz/g4D+P3/Cif+CYnjWKGbydQ8bTQeGrbDfMyzNvmI/7ZRsP+BV/NRG2UAr9nv+DtXxjqEOg/BXw6k23S55dT1GSMDl5kWFFJPsGbA/2jX4uK5C/Wv3/gLCxp5PCot5tt/kfkvGNZzxai+iJfM9qY0nWmUV9nY+RUQJyaKYWIJpOtXylpWHsdophOTRTGY800rFJXH0VCznj6U0nJq+UfKPeTLUw8mimFiCaaRooj6YzZpOtI33TVpGiiLSM2DTKKdh2A8mkLAU1jk1GxyTVpFqI8z4PT9aKjoqh2R//Z;" vertex="1" parent="1">
          <mxGeometry x="350" y="200" width="141" height="146.35" as="geometry" />
        </mxCell>
        <mxCell id="UU1zndkIT4-Pa7lK9VET-30" value="" style="html=1;verticalLabelPosition=bottom;labelBackgroundColor=#ffffff;verticalAlign=top;shadow=0;dashed=0;strokeWidth=2;shape=mxgraph.ios7.misc.check;strokeColor=#0080f0;" vertex="1" parent="1">
          <mxGeometry x="106" y="206" width="10" height="8" as="geometry" />
        </mxCell>
      </root>
    </mxGraphModel>
  </diagram>
</mxfile>
